<svg viewBox="0 0 732.2000122070312 400" xmlns="http://www.w3.org/2000/svg"><g><g><g><g><g><line x1="50" y1="378" x2="45" y2="378" style="visibility: inherit;" fill="rgb(0, 0, 0)" stroke="rgb(204, 204, 204)" stroke-width="1px"></line><line x1="50" y1="330.74999999999994" x2="45" y2="330.74999999999994" style="visibility: inherit;" fill="rgb(0, 0, 0)" stroke="rgb(204, 204, 204)" stroke-width="1px"></line><line x1="50" y1="283.5" x2="45" y2="283.5" style="visibility: inherit;" fill="rgb(0, 0, 0)" stroke="rgb(204, 204, 204)" stroke-width="1px"></line><line x1="50" y1="236.25" x2="45" y2="236.25" style="visibility: inherit;" fill="rgb(0, 0, 0)" stroke="rgb(204, 204, 204)" stroke-width="1px"></line><line x1="50" y1="189.00000000000003" x2="45" y2="189.00000000000003" style="visibility: inherit;" fill="rgb(0, 0, 0)" stroke="rgb(204, 204, 204)" stroke-width="1px"></line><line x1="50" y1="141.75" x2="45" y2="141.75" style="visibility: inherit;" fill="rgb(0, 0, 0)" stroke="rgb(204, 204, 204)" stroke-width="1px"></line><line x1="50" y1="94.49999999999996" x2="45" y2="94.49999999999996" style="visibility: inherit;" fill="rgb(0, 0, 0)" stroke="rgb(204, 204, 204)" stroke-width="1px"></line><line x1="50" y1="47.25000000000004" x2="45" y2="47.25000000000004" style="visibility: inherit;" fill="rgb(0, 0, 0)" stroke="rgb(204, 204, 204)" stroke-width="1px"></line><line x1="50" y1="0" x2="45" y2="0" style="visibility: inherit;" fill="rgb(0, 0, 0)" stroke="rgb(204, 204, 204)" stroke-width="1px"></line></g><g transform="translate(40, 0)"><text x="0" y="378" dx="0em" dy="0.3em" style="text-anchor: end; visibility: hidden; font-family: Roboto, sans-serif; font-size: 12px; font-weight: 200;" fill="rgb(50, 49, 63)" stroke="none" stroke-width="1px">0.5</text><text x="0" y="330.74999999999994" dx="0em" dy="0.3em" style="text-anchor: end; visibility: inherit; font-family: Roboto, sans-serif; font-size: 12px; font-weight: 200;" fill="rgb(50, 49, 63)" stroke="none" stroke-width="1px">0.55</text><text x="0" y="283.5" dx="0em" dy="0.3em" style="text-anchor: end; visibility: inherit; font-family: Roboto, sans-serif; font-size: 12px; font-weight: 200;" fill="rgb(50, 49, 63)" stroke="none" stroke-width="1px">0.6</text><text x="0" y="236.25" dx="0em" dy="0.3em" style="text-anchor: end; visibility: inherit; font-family: Roboto, sans-serif; font-size: 12px; font-weight: 200;" fill="rgb(50, 49, 63)" stroke="none" stroke-width="1px">0.65</text><text x="0" y="189.00000000000003" dx="0em" dy="0.3em" style="text-anchor: end; visibility: inherit; font-family: Roboto, sans-serif; font-size: 12px; font-weight: 200;" fill="rgb(50, 49, 63)" stroke="none" stroke-width="1px">0.7</text><text x="0" y="141.75" dx="0em" dy="0.3em" style="text-anchor: end; visibility: inherit; font-family: Roboto, sans-serif; font-size: 12px; font-weight: 200;" fill="rgb(50, 49, 63)" stroke="none" stroke-width="1px">0.75</text><text x="0" y="94.49999999999996" dx="0em" dy="0.3em" style="text-anchor: end; visibility: inherit; font-family: Roboto, sans-serif; font-size: 12px; font-weight: 200;" fill="rgb(50, 49, 63)" stroke="none" stroke-width="1px">0.8</text><text x="0" y="47.25000000000004" dx="0em" dy="0.3em" style="text-anchor: end; visibility: inherit; font-family: Roboto, sans-serif; font-size: 12px; font-weight: 200;" fill="rgb(50, 49, 63)" stroke="none" stroke-width="1px">0.85</text><text x="0" y="0" dx="0em" dy="0.3em" style="text-anchor: end; visibility: hidden; font-family: Roboto, sans-serif; font-size: 12px; font-weight: 200;" fill="rgb(50, 49, 63)" stroke="none" stroke-width="1px">0.9</text></g><line x1="50" y1="0" x2="50" y2="378" fill="rgb(0, 0, 0)" stroke="rgb(204, 204, 204)" stroke-width="1px"></line></g></g><g transform="translate(50, 0)" clip-path="url(#clip_0)"><clipPath id="clip_0"><rect width="682" height="378"></rect></clipPath><g><g><g><line x1="0" y1="0" x2="0" y2="378" fill="rgb(0, 0, 0)" stroke="rgb(60, 60, 60)" stroke-width="1px" opacity="0.25"></line><line x1="56.85" y1="0" x2="56.85" y2="378" fill="rgb(0, 0, 0)" stroke="rgb(60, 60, 60)" stroke-width="1px" opacity="0.25"></line><line x1="113.7" y1="0" x2="113.7" y2="378" fill="rgb(0, 0, 0)" stroke="rgb(60, 60, 60)" stroke-width="1px" opacity="0.25"></line><line x1="170.55" y1="0" x2="170.55" y2="378" fill="rgb(0, 0, 0)" stroke="rgb(60, 60, 60)" stroke-width="1px" opacity="0.25"></line><line x1="227.4" y1="0" x2="227.4" y2="378" fill="rgb(0, 0, 0)" stroke="rgb(60, 60, 60)" stroke-width="1px" opacity="0.25"></line><line x1="284.25000000000006" y1="0" x2="284.25000000000006" y2="378" fill="rgb(0, 0, 0)" stroke="rgb(60, 60, 60)" stroke-width="1px" opacity="0.25"></line><line x1="341.1" y1="0" x2="341.1" y2="378" fill="rgb(0, 0, 0)" stroke="rgb(60, 60, 60)" stroke-width="1px" opacity="0.25"></line><line x1="397.95000000000005" y1="0" x2="397.95000000000005" y2="378" fill="rgb(0, 0, 0)" stroke="rgb(60, 60, 60)" stroke-width="1px" opacity="0.25"></line><line x1="454.8" y1="0" x2="454.8" y2="378" fill="rgb(0, 0, 0)" stroke="rgb(60, 60, 60)" stroke-width="1px" opacity="0.25"></line><line x1="511.65000000000003" y1="0" x2="511.65000000000003" y2="378" fill="rgb(0, 0, 0)" stroke="rgb(60, 60, 60)" stroke-width="1px" opacity="0.25"></line><line x1="568.5000000000001" y1="0" x2="568.5000000000001" y2="378" fill="rgb(0, 0, 0)" stroke="rgb(60, 60, 60)" stroke-width="1px" opacity="0.25"></line><line x1="625.35" y1="0" x2="625.35" y2="378" fill="rgb(0, 0, 0)" stroke="rgb(60, 60, 60)" stroke-width="1px" opacity="0.25"></line><line x1="682.2" y1="0" x2="682.2" y2="378" fill="rgb(0, 0, 0)" stroke="rgb(60, 60, 60)" stroke-width="1px" opacity="0.25"></line></g><g><line x1="0" y1="378" x2="682.2" y2="378" fill="rgb(0, 0, 0)" stroke="rgb(60, 60, 60)" stroke-width="1px" opacity="0.25"></line><line x1="0" y1="330.74999999999994" x2="682.2" y2="330.74999999999994" fill="rgb(0, 0, 0)" stroke="rgb(60, 60, 60)" stroke-width="1px" opacity="0.25"></line><line x1="0" y1="283.5" x2="682.2" y2="283.5" fill="rgb(0, 0, 0)" stroke="rgb(60, 60, 60)" stroke-width="1px" opacity="0.25"></line><line x1="0" y1="236.25" x2="682.2" y2="236.25" fill="rgb(0, 0, 0)" stroke="rgb(60, 60, 60)" stroke-width="1px" opacity="0.25"></line><line x1="0" y1="189.00000000000003" x2="682.2" y2="189.00000000000003" fill="rgb(0, 0, 0)" stroke="rgb(60, 60, 60)" stroke-width="1px" opacity="0.25"></line><line x1="0" y1="141.75" x2="682.2" y2="141.75" fill="rgb(0, 0, 0)" stroke="rgb(60, 60, 60)" stroke-width="1px" opacity="0.25"></line><line x1="0" y1="94.49999999999996" x2="682.2" y2="94.49999999999996" fill="rgb(0, 0, 0)" stroke="rgb(60, 60, 60)" stroke-width="1px" opacity="0.25"></line><line x1="0" y1="47.25000000000004" x2="682.2" y2="47.25000000000004" fill="rgb(0, 0, 0)" stroke="rgb(60, 60, 60)" stroke-width="1px" opacity="0.25"></line><line x1="0" y1="0" x2="682.2" y2="0" fill="rgb(0, 0, 0)" stroke="rgb(60, 60, 60)" stroke-width="1px" opacity="0.25"></line></g></g></g><g><g><line x1="0" y1="850.5" x2="682.2" y2="850.5" fill="rgb(0, 0, 0)" stroke="rgb(153, 153, 153)" stroke-width="1.5px"></line></g></g><g><g><line x1="56.85" y1="0" x2="56.85" y2="378" fill="rgb(0, 0, 0)" stroke="rgb(153, 153, 153)" stroke-width="1.5px"></line></g></g><g><g><g><g><g><path stroke="rgb(51, 187, 238)" stroke-width="2px" d="M56.85,288.3084486722946L68.22000000000001,283.13875633478165L79.59,284.0418936610222L90.96000000000001,278.2804362773895L102.33,286.8758996129036L113.7,282.0487280488014L125.07,282.20447051525116L136.44000000000003,284.9138824939728L147.81,283.6993165612221L159.18,288.900157392025L170.55,285.69248217344284L181.92000000000002,287.0938827395439L193.29000000000002,286.03505927324295L204.66,287.31186586618423L216.03,284.29102528095245L227.4,288.6198772788048L238.77,287.436459839344L250.14,284.3844707608223L261.51000000000005,285.8793168067932L272.88000000000005,285.0696249604225L284.25000000000006,284.75819635391235L295.62,288.3707456588745L306.99,284.5090084075928L318.36,289.74105405807495L329.73,284.9138824939728L341.1,287.93472307920456L352.4700000000001,285.10071712732315L363.84000000000003,288.8379167318344L375.21000000000004,290.9244714975357L386.58000000000004,287.77903693914413L397.95000000000005,288.900157392025L409.32,285.5367397069931L420.69000000000005,289.8967401981354L432.06,290.1147233247757L443.43000000000006,287.24962520599365L454.8,288.2150595188141L466.17,287.93472307920456L477.54,284.3221737742424L488.91,287.24962520599365L500.28,286.0661514401436L511.65000000000003,287.4053113460541L523.0200000000001,289.7722025513649L534.39,288.18391102552414L545.7600000000001,290.08363115787506L557.13,290.55074590444565L568.5000000000001,287.3430143594742L579.87,292.63730067014694L591.24,292.3570205569267L602.61,288.2461516857147L613.98,288.80676823854446" style="fill: none;" fill="none"></path></g><g><path stroke="rgb(0, 119, 187)" stroke-width="2px" d="M56.85,268.3770178556442L68.22000000000001,242.77757513523102L79.59,231.47269982099533L90.96000000000001,225.36866533756256L102.33,223.46894520521164L113.7,222.0986931324005L125.07,220.60379076004028L136.44000000000003,219.45152181386948L147.81,218.7352191209793L159.18,219.1400932073593L170.55,219.29583567380905L181.92000000000002,220.0743790268898L193.29000000000002,220.5415500998497L204.66,220.23012149333954L216.03,221.7561160326004L227.4,221.66267055273056L238.77,223.53124219179153L250.14,222.81493949890137L261.51000000000005,225.1818307042122L272.88000000000005,224.87040209770203L284.25000000000006,226.42754513025284L295.62,225.1818307042122L306.99,226.17841351032257L318.36,227.11269932985306L329.73,227.79779720306396L341.1,227.8912426829338L352.4700000000001,228.10922580957413L363.84000000000003,229.5106827020645L375.21000000000004,231.7841284275055L386.58000000000004,231.6595344543457L397.95000000000005,231.75297993421555L409.32,232.9986943602562L420.69000000000005,231.84636908769608L432.06,232.8741003870964L443.43000000000006,234.52468889951706L454.8,234.2755572795868L466.17,234.52468889951706L477.54,236.5800951719284L488.91,236.73583763837814L500.28,235.8327003121376L511.65000000000003,237.48323249816895L523.0200000000001,238.07499754428864L534.39,237.1095632314682L545.7600000000001,236.92267227172852L557.13,238.10608971118927L568.5000000000001,238.82239240407944L579.87,239.1338210105896L591.24,239.9435691833496L602.61,239.9435691833496L613.98,238.54211229085922" style="fill: none;" fill="none"></path></g><g><path stroke="rgb(0, 153, 136)" stroke-width="2px" d="M56.85,416.61720353364944L68.22000000000001,352.1513693332672L79.59,322.0984806418419L90.96000000000001,302.13590133190155L102.33,290.42615193128586L113.7,280.64732748270035L125.07,273.2041330933571L136.44000000000003,266.57074320316315L147.81,260.7469888329506L159.18,256.72956544160843L170.55,253.42844474315643L181.92000000000002,250.34525084495544L193.29000000000002,247.04413014650345L204.66,244.70838743448257L216.03,242.55953568220139L227.4,240.72211253643036L238.77,238.54211229085922L250.14,236.829283118248L261.51000000000005,235.11639761924744L272.88000000000005,234.555837392807L284.25000000000006,232.9363973736763L295.62,231.93981456756592L306.99,230.63180315494537L318.36,229.38608872890472L329.73,228.23381978273392L341.1,227.23723697662354L352.4700000000001,226.52093428373337L363.84000000000003,225.8046879172325L375.21000000000004,225.27521985769272L386.58000000000004,224.27869337797165L397.95000000000005,223.59353917837143L409.32,223.15751659870148L420.69000000000005,222.37897324562073L432.06,221.6938190460205L443.43000000000006,221.2889449596405L454.8,220.44810461997986L466.17,220.26121366024017L477.54,219.35807633399963L488.91,218.7352191209793L500.28,218.76636761426926L511.65000000000003,218.517235994339L523.0200000000001,217.86323028802872L534.39,217.55180168151855L545.7600000000001,217.02238994836807L557.13,216.89779597520828L568.5000000000001,216.64866435527802L579.87,215.74552702903748L591.24,216.18149328231812L602.61,215.27835595607758L613.98,215.80782401561737" style="fill: none;" fill="none"></path></g><g><path stroke="rgb(204, 51, 17)" stroke-width="2px" d="M56.85,342.7176566720009L68.22000000000001,255.91609972715378L79.59,230.78512358665466L90.96000000000001,214.2406548857689L102.33,202.99255657196045L113.7,193.991430580616L125.07,185.81948536634445L136.44000000000003,180.18876153230667L147.81,175.98912227153778L159.18,171.86974811553955L170.55,168.873803794384L181.92000000000002,163.6442928314209L193.29000000000002,161.53109568357468L204.66,157.278002679348L216.03,155.72649228572845L227.4,151.58036309480667L238.77,152.38284516334534L250.14,148.03608137369156L261.51000000000005,144.74594432115555L272.88000000000005,143.87654650211334L284.25000000000006,140.23865032196045L295.62,140.58640944957733L306.99,139.58329278230667L318.36,138.0050836801529L329.73,136.573999106884L341.1,135.7982720732689L352.4700000000001,134.94227993488312L363.84000000000003,134.03283405303955L375.21000000000004,132.69536393880844L386.58000000000004,130.22105830907822L397.95000000000005,129.04406207799911L409.32,129.07081711292267L420.69000000000005,128.91034322977066L432.06,127.5996281504631L443.43000000000006,127.80020642280579L454.8,123.52035838365555L466.17,125.82078444957733L477.54,124.34953916072845L488.91,124.64378821849823L500.28,124.34953916072845L511.65000000000003,121.46061497926712L523.0200000000001,123.97508132457733L534.39,121.43391627073288L545.7600000000001,120.63143420219421L557.13,118.51823705434799L568.5000000000001,120.43079960346222L579.87,119.14683955907822L591.24,118.54499208927155L602.61,116.40503990650177L613.98,117.956493973732" style="fill: none;" fill="none"></path></g><g><path stroke="rgb(255, 112, 67)" stroke-width="2px" d="M56.85,351.5850638151169L68.22000000000001,243.53116589784622L79.59,212.20772284269333L90.96000000000001,191.4368598461151L102.33,176.22986125946045L113.7,163.81817239522934L125.07,154.21519893407822L136.44000000000003,145.601880133152L147.81,138.08534878492355L159.18,133.23035198450089L170.55,125.90104955434799L181.92000000000002,122.27650272846222L193.29000000000002,117.10050183534622L204.66,111.37616354227066L216.03,108.52734375L227.4,105.54480510950089L238.77,103.68569630384445L250.14,99.99429005384445L261.51000000000005,97.10536587238312L272.88000000000005,95.2998234629631L284.25000000000006,92.74525272846222L295.62,91.16704362630844L306.99,89.30793482065201L318.36,87.36861723661423L329.73,83.65045595169067L341.1,83.44987767934799L352.4700000000001,81.18955600261688L363.84000000000003,80.14633494615555L375.21000000000004,79.22348338365555L386.58000000000004,76.81603717803955L397.95000000000005,75.89318561553955L409.32,75.96004503965378L420.69000000000005,73.5124944448471L432.06,71.88077527284622L443.43000000000006,69.0988712310791L454.8,69.566943526268L466.17,68.483618080616L477.54,68.56388318538666L488.91,67.76140111684799L500.28,65.34054923057556L511.65000000000003,64.64508730173111L523.0200000000001,65.353954911232L534.39,65.11321592330933L545.7600000000001,62.14402663707733L557.13,63.33437222242355L568.5000000000001,60.59257256984711L579.87,60.95368105173111L591.24,59.84360057115555L602.61,58.492724776268005L613.98,58.88058829307556" style="fill: none;" fill="none"></path></g><g><path stroke="rgb(238, 51, 119)" stroke-width="2px" d="M68.22000000000001,379.7921930551529L79.59,333.9171089529991L90.96000000000001,307.18116867542267L102.33,289.08524590730667L113.7,277.5027941465378L125.07,265.38535434007645L136.44000000000003,256.384228348732L147.81,247.89127904176712L159.18,241.76572787761688L170.55,234.82428896427155L181.92000000000002,228.9126654267311L193.29000000000002,223.95064848661423L204.66,218.61417371034622L216.03,214.26740992069244L227.4,211.64597976207733L238.77,206.37636440992355L250.14,203.66131979227066L261.51000000000005,199.689013838768L272.88000000000005,196.4523868560791L284.25000000000006,193.04182398319244L295.62,190.17965483665466L306.99,188.26709228754044L318.36,185.36476242542267L329.73,182.0478703379631L341.1,180.64348447322845L352.4700000000001,179.39968514442444L363.84000000000003,175.76178896427155L375.21000000000004,175.44078487157822L386.58000000000004,171.90985250473022L397.95000000000005,167.87068712711334L409.32,168.05797237157822L420.69000000000005,165.182397544384L432.06,163.4838189482689L443.43000000000006,163.14946550130844L454.8,161.21014791727066L466.17,158.85621178150177L477.54,158.49504697322845L488.91,156.154516518116L500.28,155.72649228572845L511.65000000000003,153.84068477153778L523.0200000000001,153.0783634185791L534.39,150.93841123580933L545.7600000000001,148.08959144353867L557.13,147.7017279267311L568.5000000000001,146.23053896427155L579.87,146.15027385950089L591.24,143.47533363103867L602.61,143.4485785961151L613.98,141.26852202415466" style="fill: none;" fill="none"></path></g></g></g></g></g></g><g transform="translate(50, 378)" clip-path="url(#clip_1)"><clipPath id="clip_1"><rect width="682" height="22"></rect></clipPath><g><g><line x1="0" y1="0" x2="0" y2="5" style="visibility: inherit;" fill="rgb(0, 0, 0)" stroke="rgb(204, 204, 204)" stroke-width="1px"></line><line x1="56.85" y1="0" x2="56.85" y2="5" style="visibility: inherit;" fill="rgb(0, 0, 0)" stroke="rgb(204, 204, 204)" stroke-width="1px"></line><line x1="113.7" y1="0" x2="113.7" y2="5" style="visibility: inherit;" fill="rgb(0, 0, 0)" stroke="rgb(204, 204, 204)" stroke-width="1px"></line><line x1="170.55" y1="0" x2="170.55" y2="5" style="visibility: inherit;" fill="rgb(0, 0, 0)" stroke="rgb(204, 204, 204)" stroke-width="1px"></line><line x1="227.4" y1="0" x2="227.4" y2="5" style="visibility: inherit;" fill="rgb(0, 0, 0)" stroke="rgb(204, 204, 204)" stroke-width="1px"></line><line x1="284.25000000000006" y1="0" x2="284.25000000000006" y2="5" style="visibility: inherit;" fill="rgb(0, 0, 0)" stroke="rgb(204, 204, 204)" stroke-width="1px"></line><line x1="341.1" y1="0" x2="341.1" y2="5" style="visibility: inherit;" fill="rgb(0, 0, 0)" stroke="rgb(204, 204, 204)" stroke-width="1px"></line><line x1="397.95000000000005" y1="0" x2="397.95000000000005" y2="5" style="visibility: inherit;" fill="rgb(0, 0, 0)" stroke="rgb(204, 204, 204)" stroke-width="1px"></line><line x1="454.8" y1="0" x2="454.8" y2="5" style="visibility: inherit;" fill="rgb(0, 0, 0)" stroke="rgb(204, 204, 204)" stroke-width="1px"></line><line x1="511.65000000000003" y1="0" x2="511.65000000000003" y2="5" style="visibility: inherit;" fill="rgb(0, 0, 0)" stroke="rgb(204, 204, 204)" stroke-width="1px"></line><line x1="568.5000000000001" y1="0" x2="568.5000000000001" y2="5" style="visibility: inherit;" fill="rgb(0, 0, 0)" stroke="rgb(204, 204, 204)" stroke-width="1px"></line><line x1="625.35" y1="0" x2="625.35" y2="5" style="visibility: inherit;" fill="rgb(0, 0, 0)" stroke="rgb(204, 204, 204)" stroke-width="1px"></line><line x1="682.2" y1="0" x2="682.2" y2="5" style="visibility: inherit;" fill="rgb(0, 0, 0)" stroke="rgb(204, 204, 204)" stroke-width="1px"></line></g><g transform="translate(0, 8)"><text x="0" y="0" dx="0em" dy="0.95em" style="text-anchor: middle; visibility: hidden; font-family: Roboto, sans-serif; font-size: 12px; font-weight: 200;" fill="rgb(50, 49, 63)" stroke="none" stroke-width="1px">-5</text><text x="56.85" y="0" dx="0em" dy="0.95em" style="text-anchor: middle; visibility: inherit; font-family: Roboto, sans-serif; font-size: 12px; font-weight: 200;" fill="rgb(50, 49, 63)" stroke="none" stroke-width="1px">0</text><text x="113.7" y="0" dx="0em" dy="0.95em" style="text-anchor: middle; visibility: inherit; font-family: Roboto, sans-serif; font-size: 12px; font-weight: 200;" fill="rgb(50, 49, 63)" stroke="none" stroke-width="1px">5</text><text x="170.55" y="0" dx="0em" dy="0.95em" style="text-anchor: middle; visibility: inherit; font-family: Roboto, sans-serif; font-size: 12px; font-weight: 200;" fill="rgb(50, 49, 63)" stroke="none" stroke-width="1px">10</text><text x="227.4" y="0" dx="0em" dy="0.95em" style="text-anchor: middle; visibility: inherit; font-family: Roboto, sans-serif; font-size: 12px; font-weight: 200;" fill="rgb(50, 49, 63)" stroke="none" stroke-width="1px">15</text><text x="284.25000000000006" y="0" dx="0em" dy="0.95em" style="text-anchor: middle; visibility: inherit; font-family: Roboto, sans-serif; font-size: 12px; font-weight: 200;" fill="rgb(50, 49, 63)" stroke="none" stroke-width="1px">20</text><text x="341.1" y="0" dx="0em" dy="0.95em" style="text-anchor: middle; visibility: inherit; font-family: Roboto, sans-serif; font-size: 12px; font-weight: 200;" fill="rgb(50, 49, 63)" stroke="none" stroke-width="1px">25</text><text x="397.95000000000005" y="0" dx="0em" dy="0.95em" style="text-anchor: middle; visibility: inherit; font-family: Roboto, sans-serif; font-size: 12px; font-weight: 200;" fill="rgb(50, 49, 63)" stroke="none" stroke-width="1px">30</text><text x="454.8" y="0" dx="0em" dy="0.95em" style="text-anchor: middle; visibility: inherit; font-family: Roboto, sans-serif; font-size: 12px; font-weight: 200;" fill="rgb(50, 49, 63)" stroke="none" stroke-width="1px">35</text><text x="511.65000000000003" y="0" dx="0em" dy="0.95em" style="text-anchor: middle; visibility: inherit; font-family: Roboto, sans-serif; font-size: 12px; font-weight: 200;" fill="rgb(50, 49, 63)" stroke="none" stroke-width="1px">40</text><text x="568.5000000000001" y="0" dx="0em" dy="0.95em" style="text-anchor: middle; visibility: inherit; font-family: Roboto, sans-serif; font-size: 12px; font-weight: 200;" fill="rgb(50, 49, 63)" stroke="none" stroke-width="1px">45</text><text x="625.35" y="0" dx="0em" dy="0.95em" style="text-anchor: middle; visibility: inherit; font-family: Roboto, sans-serif; font-size: 12px; font-weight: 200;" fill="rgb(50, 49, 63)" stroke="none" stroke-width="1px">50</text><text x="682.2" y="0" dx="0em" dy="0.95em" style="text-anchor: middle; visibility: hidden; font-family: Roboto, sans-serif; font-size: 12px; font-weight: 200;" fill="rgb(50, 49, 63)" stroke="none" stroke-width="1px">55</text></g><line x1="0" y1="0" x2="682.2" y2="0" fill="rgb(0, 0, 0)" stroke="rgb(204, 204, 204)" stroke-width="1px"></line></g></g></g></g></svg>