<svg viewBox="0 0 330 200" xmlns="http://www.w3.org/2000/svg"><g><g><g><g><g><line x1="50" y1="178" x2="45" y2="178" style="visibility: inherit;" fill="rgb(0, 0, 0)" stroke="rgb(204, 204, 204)" stroke-width="1px"></line><line x1="50" y1="160.20000000000002" x2="45" y2="160.20000000000002" style="visibility: inherit;" fill="rgb(0, 0, 0)" stroke="rgb(204, 204, 204)" stroke-width="1px"></line><line x1="50" y1="142.4" x2="45" y2="142.4" style="visibility: inherit;" fill="rgb(0, 0, 0)" stroke="rgb(204, 204, 204)" stroke-width="1px"></line><line x1="50" y1="124.6" x2="45" y2="124.6" style="visibility: inherit;" fill="rgb(0, 0, 0)" stroke="rgb(204, 204, 204)" stroke-width="1px"></line><line x1="50" y1="106.8" x2="45" y2="106.8" style="visibility: inherit;" fill="rgb(0, 0, 0)" stroke="rgb(204, 204, 204)" stroke-width="1px"></line><line x1="50" y1="89" x2="45" y2="89" style="visibility: inherit;" fill="rgb(0, 0, 0)" stroke="rgb(204, 204, 204)" stroke-width="1px"></line><line x1="50" y1="71.2" x2="45" y2="71.2" style="visibility: inherit;" fill="rgb(0, 0, 0)" stroke="rgb(204, 204, 204)" stroke-width="1px"></line><line x1="50" y1="53.400000000000006" x2="45" y2="53.400000000000006" style="visibility: inherit;" fill="rgb(0, 0, 0)" stroke="rgb(204, 204, 204)" stroke-width="1px"></line><line x1="50" y1="35.599999999999994" x2="45" y2="35.599999999999994" style="visibility: inherit;" fill="rgb(0, 0, 0)" stroke="rgb(204, 204, 204)" stroke-width="1px"></line><line x1="50" y1="17.799999999999997" x2="45" y2="17.799999999999997" style="visibility: inherit;" fill="rgb(0, 0, 0)" stroke="rgb(204, 204, 204)" stroke-width="1px"></line><line x1="50" y1="0" x2="45" y2="0" style="visibility: inherit;" fill="rgb(0, 0, 0)" stroke="rgb(204, 204, 204)" stroke-width="1px"></line></g><g transform="translate(40, 0)"><text x="0" y="178" dx="0em" dy="0.3em" style="text-anchor: end; visibility: hidden; font-family: Roboto, sans-serif; font-size: 12px; font-weight: 200;" fill="rgb(50, 49, 63)" stroke="none" stroke-width="1px">-0.5</text><text x="0" y="160.20000000000002" dx="0em" dy="0.3em" style="text-anchor: end; visibility: inherit; font-family: Roboto, sans-serif; font-size: 12px; font-weight: 200;" fill="rgb(50, 49, 63)" stroke="none" stroke-width="1px">0</text><text x="0" y="142.4" dx="0em" dy="0.3em" style="text-anchor: end; visibility: hidden; font-family: Roboto, sans-serif; font-size: 12px; font-weight: 200;" fill="rgb(50, 49, 63)" stroke="none" stroke-width="1px">0.5</text><text x="0" y="124.6" dx="0em" dy="0.3em" style="text-anchor: end; visibility: inherit; font-family: Roboto, sans-serif; font-size: 12px; font-weight: 200;" fill="rgb(50, 49, 63)" stroke="none" stroke-width="1px">1</text><text x="0" y="106.8" dx="0em" dy="0.3em" style="text-anchor: end; visibility: hidden; font-family: Roboto, sans-serif; font-size: 12px; font-weight: 200;" fill="rgb(50, 49, 63)" stroke="none" stroke-width="1px">1.5</text><text x="0" y="89" dx="0em" dy="0.3em" style="text-anchor: end; visibility: inherit; font-family: Roboto, sans-serif; font-size: 12px; font-weight: 200;" fill="rgb(50, 49, 63)" stroke="none" stroke-width="1px">2</text><text x="0" y="71.2" dx="0em" dy="0.3em" style="text-anchor: end; visibility: hidden; font-family: Roboto, sans-serif; font-size: 12px; font-weight: 200;" fill="rgb(50, 49, 63)" stroke="none" stroke-width="1px">2.5</text><text x="0" y="53.400000000000006" dx="0em" dy="0.3em" style="text-anchor: end; visibility: inherit; font-family: Roboto, sans-serif; font-size: 12px; font-weight: 200;" fill="rgb(50, 49, 63)" stroke="none" stroke-width="1px">3</text><text x="0" y="35.599999999999994" dx="0em" dy="0.3em" style="text-anchor: end; visibility: hidden; font-family: Roboto, sans-serif; font-size: 12px; font-weight: 200;" fill="rgb(50, 49, 63)" stroke="none" stroke-width="1px">3.5</text><text x="0" y="17.799999999999997" dx="0em" dy="0.3em" style="text-anchor: end; visibility: inherit; font-family: Roboto, sans-serif; font-size: 12px; font-weight: 200;" fill="rgb(50, 49, 63)" stroke="none" stroke-width="1px">4</text><text x="0" y="0" dx="0em" dy="0.3em" style="text-anchor: end; visibility: hidden; font-family: Roboto, sans-serif; font-size: 12px; font-weight: 200;" fill="rgb(50, 49, 63)" stroke="none" stroke-width="1px">4.5</text></g><line x1="50" y1="0" x2="50" y2="178" fill="rgb(0, 0, 0)" stroke="rgb(204, 204, 204)" stroke-width="1px"></line></g></g><g transform="translate(50, 0)" clip-path="url(#clip_0)"><clipPath id="clip_0"><rect width="280" height="178"></rect></clipPath><g><g><g><line x1="0" y1="0" x2="0" y2="178" fill="rgb(0, 0, 0)" stroke="rgb(60, 60, 60)" stroke-width="1px" opacity="0.25"></line><line x1="23.333333333333332" y1="0" x2="23.333333333333332" y2="178" fill="rgb(0, 0, 0)" stroke="rgb(60, 60, 60)" stroke-width="1px" opacity="0.25"></line><line x1="46.666666666666664" y1="0" x2="46.666666666666664" y2="178" fill="rgb(0, 0, 0)" stroke="rgb(60, 60, 60)" stroke-width="1px" opacity="0.25"></line><line x1="70" y1="0" x2="70" y2="178" fill="rgb(0, 0, 0)" stroke="rgb(60, 60, 60)" stroke-width="1px" opacity="0.25"></line><line x1="93.33333333333333" y1="0" x2="93.33333333333333" y2="178" fill="rgb(0, 0, 0)" stroke="rgb(60, 60, 60)" stroke-width="1px" opacity="0.25"></line><line x1="116.66666666666667" y1="0" x2="116.66666666666667" y2="178" fill="rgb(0, 0, 0)" stroke="rgb(60, 60, 60)" stroke-width="1px" opacity="0.25"></line><line x1="140" y1="0" x2="140" y2="178" fill="rgb(0, 0, 0)" stroke="rgb(60, 60, 60)" stroke-width="1px" opacity="0.25"></line><line x1="163.33333333333334" y1="0" x2="163.33333333333334" y2="178" fill="rgb(0, 0, 0)" stroke="rgb(60, 60, 60)" stroke-width="1px" opacity="0.25"></line><line x1="186.66666666666666" y1="0" x2="186.66666666666666" y2="178" fill="rgb(0, 0, 0)" stroke="rgb(60, 60, 60)" stroke-width="1px" opacity="0.25"></line><line x1="210" y1="0" x2="210" y2="178" fill="rgb(0, 0, 0)" stroke="rgb(60, 60, 60)" stroke-width="1px" opacity="0.25"></line><line x1="233.33333333333334" y1="0" x2="233.33333333333334" y2="178" fill="rgb(0, 0, 0)" stroke="rgb(60, 60, 60)" stroke-width="1px" opacity="0.25"></line><line x1="256.66666666666663" y1="0" x2="256.66666666666663" y2="178" fill="rgb(0, 0, 0)" stroke="rgb(60, 60, 60)" stroke-width="1px" opacity="0.25"></line><line x1="280" y1="0" x2="280" y2="178" fill="rgb(0, 0, 0)" stroke="rgb(60, 60, 60)" stroke-width="1px" opacity="0.25"></line></g><g><line x1="0" y1="178" x2="280" y2="178" fill="rgb(0, 0, 0)" stroke="rgb(60, 60, 60)" stroke-width="1px" opacity="0.25"></line><line x1="0" y1="160.20000000000002" x2="280" y2="160.20000000000002" fill="rgb(0, 0, 0)" stroke="rgb(60, 60, 60)" stroke-width="1px" opacity="0.25"></line><line x1="0" y1="142.4" x2="280" y2="142.4" fill="rgb(0, 0, 0)" stroke="rgb(60, 60, 60)" stroke-width="1px" opacity="0.25"></line><line x1="0" y1="124.6" x2="280" y2="124.6" fill="rgb(0, 0, 0)" stroke="rgb(60, 60, 60)" stroke-width="1px" opacity="0.25"></line><line x1="0" y1="106.8" x2="280" y2="106.8" fill="rgb(0, 0, 0)" stroke="rgb(60, 60, 60)" stroke-width="1px" opacity="0.25"></line><line x1="0" y1="89" x2="280" y2="89" fill="rgb(0, 0, 0)" stroke="rgb(60, 60, 60)" stroke-width="1px" opacity="0.25"></line><line x1="0" y1="71.2" x2="280" y2="71.2" fill="rgb(0, 0, 0)" stroke="rgb(60, 60, 60)" stroke-width="1px" opacity="0.25"></line><line x1="0" y1="53.400000000000006" x2="280" y2="53.400000000000006" fill="rgb(0, 0, 0)" stroke="rgb(60, 60, 60)" stroke-width="1px" opacity="0.25"></line><line x1="0" y1="35.599999999999994" x2="280" y2="35.599999999999994" fill="rgb(0, 0, 0)" stroke="rgb(60, 60, 60)" stroke-width="1px" opacity="0.25"></line><line x1="0" y1="17.799999999999997" x2="280" y2="17.799999999999997" fill="rgb(0, 0, 0)" stroke="rgb(60, 60, 60)" stroke-width="1px" opacity="0.25"></line><line x1="0" y1="0" x2="280" y2="0" fill="rgb(0, 0, 0)" stroke="rgb(60, 60, 60)" stroke-width="1px" opacity="0.25"></line></g></g></g><g><g><line x1="0" y1="160.20000000000002" x2="280" y2="160.20000000000002" fill="rgb(0, 0, 0)" stroke="rgb(153, 153, 153)" stroke-width="1.5px"></line></g></g><g><g><line x1="23.333333333333332" y1="0" x2="23.333333333333332" y2="178" fill="rgb(0, 0, 0)" stroke="rgb(153, 153, 153)" stroke-width="1.5px"></line></g></g><g><g><g><g><g><path stroke="rgb(0, 153, 136)" stroke-width="2px" d="M23.333333333333332,95.92410554885865L28,91.0956856250763L32.666666666666664,87.78125095367432L37.333333333333336,83.32775402069092L42,78.632315158844L46.666666666666664,74.26337270736694L51.33333333333333,73.4511251449585L56,69.52707405090332L60.66666666666667,67.76905889511109L65.33333333333333,64.85413608551025L70,60.782679080963135L74.66666666666667,59.086946678161624L79.33333333333333,56.181708335876465L84,51.85083322525024L88.66666666666666,53.304029560089106L93.33333333333333,49.80805568695068L98,48.01875486373902L102.66666666666666,46.316376590728765L107.33333333333334,44.68796863555909L112,39.83314771652222L116.66666666666667,40.81306982040405L121.33333333333334,39.33967275619507L126,37.4564130783081L130.66666666666666,34.96668167114258L135.33333333333334,36.702747631072995L140,30.90648784637452L144.66666666666669,30.961038303375247L149.33333333333334,28.00232744216919L154,28.908389568328857L158.66666666666666,28.838018035888663L163.33333333333334,25.64833984374999L168,25.511696338653564L172.66666666666669,22.898740482330325L177.33333333333331,22.460155487060547L182,21.80942888259888L186.66666666666666,19.508234786987302L191.33333333333334,17.005279541015625L196,15.61728572845459L200.66666666666666,17.88444414138795L205.33333333333331,15.089180946350098L210,14.206375122070312L214.66666666666669,13.294728088378902L219.33333333333334,10.293256187438972L224,10.099023628234859L228.66666666666666,9.769666862487798L233.33333333333334,6.6159255981445275L238,6.058945655822754L242.66666666666669,7.178575325012203L247.33333333333331,5.102568435668942L252,3.509630584716805" style="fill: none;" fill="none"></path></g><g><path stroke="rgb(51, 187, 238)" stroke-width="2px" d="M23.333333333333332,107.60421395301819L28,112.13757166862487L32.666666666666664,113.95624418258667L37.333333333333336,114.98595089912415L42,115.46525988578796L46.666666666666664,115.76951427459717L51.33333333333333,115.89993205070496L56,115.90379819869995L60.66666666666667,115.88717503547669L65.33333333333333,115.68348293304443L70,115.60315532684326L74.66666666666667,115.44158344268799L79.33333333333333,115.26859560012818L84,115.06063418388366L88.66666666666666,114.87656989097596L93.33333333333333,114.57586760520935L98,114.37510800361633L102.66666666666666,114.16929397583007L107.33333333333334,113.85298280715942L112,113.69024386405945L116.66666666666667,113.4752631187439L121.33333333333334,113.04876885414123L126,112.87743186950684L130.66666666666666,112.57969603538513L135.33333333333334,112.39834356307983L140,112.06490421295166L144.66666666666669,111.74224848747254L149.33333333333334,111.66740393638611L154,111.37360639572144L158.66666666666666,111.03327503204346L163.33333333333334,110.87376990318299L168,110.70637121200562L172.66666666666669,110.35955100059509L177.33333333333331,110.23181958198548L182,109.8452726840973L186.66666666666666,109.62892966270446L191.33333333333334,109.44586691856384L196,109.24778943061828L200.66666666666666,109.03176469802857L205.33333333333331,108.82662544250488L210,108.54097609519958L214.66666666666669,108.26641168594361L219.33333333333334,108.07680492401123L224,107.99188547134399L228.66666666666666,107.66148471832275L233.33333333333334,107.46339025497437L238,107.03023738861084L242.66666666666669,106.99537839889527L247.33333333333331,106.66722264289857L252,106.55958161354064" style="fill: none;" fill="none"></path></g><g><path stroke="rgb(0, 119, 187)" stroke-width="2px" d="M23.333333333333332,66.62553634643555L28,86.07494287490844L32.666666666666664,94.38099474906922L37.333333333333336,99.02563471794129L42,102.06407055854797L46.666666666666664,104.21219744682313L51.33333333333333,105.84516754150391L56,107.13838768005371L60.66666666666667,108.18833332061767L65.33333333333333,109.07231893539429L70,109.81212821006775L74.66666666666667,110.45714259147644L79.33333333333333,111.02258052825928L84,111.51130661964416L88.66666666666666,111.96593337059021L93.33333333333333,112.34680624008179L98,112.70606517791748L102.66666666666666,113.0238914012909L107.33333333333334,113.31758284568787L112,113.58456349372864L116.66666666666667,113.83211579322816L121.33333333333334,114.06796779632569L126,114.26719536781312L130.66666666666666,114.46966099739075L135.33333333333334,114.6429374217987L140,114.79960341453553L144.66666666666669,114.95967721939087L149.33333333333334,115.10268225669861L154,115.22480754852295L158.66666666666666,115.35614624023438L163.33333333333334,115.46698713302612L168,115.5784858226776L172.66666666666669,115.69312071800232L177.33333333333331,115.78566212654114L182,115.86887979507446L186.66666666666666,115.95062909126281L191.33333333333334,116.03046016693115L196,116.10122213363647L200.66666666666666,116.18323030471802L205.33333333333331,116.23712720870972L210,116.29784822463989L214.66666666666669,116.36106886863709L219.33333333333334,116.4130136013031L224,116.46554398536682L228.66666666666666,116.51011714935302L233.33333333333334,116.56282577514648L238,116.60541706085205L242.66666666666669,116.64466419219971L247.33333333333331,116.68810000419617L252,116.72364649772643" style="fill: none;" fill="none"></path></g><g><path stroke="rgb(238, 51, 119)" stroke-width="2px" d="M23.333333333333332,88.93639316558838L28,103.89883999824524L32.666666666666664,108.29319887161255L37.333333333333336,111.21874828338623L42,112.850381565094L46.666666666666664,113.58404998779297L51.33333333333333,114.87390899658203L56,116.03148293495178L60.66666666666667,116.67619600296021L65.33333333333333,117.300861120224L70,117.7611406803131L74.66666666666667,117.61980347633362L79.33333333333333,118.25013413429261L84,119.11691093444824L88.66666666666666,119.22693700790406L93.33333333333333,119.33807072639465L98,119.67236309051513L102.66666666666666,119.86099801063537L107.33333333333334,119.98064489364624L112,120.05650372505188L116.66666666666667,120.33782434463501L121.33333333333334,121.10995903015137L126,120.27179851531983L130.66666666666666,120.18848323822021L135.33333333333334,121.15856385231018L140,120.89748640060425L144.66666666666669,120.82202224731445L149.33333333333334,121.12302160263062L154,120.86122269630432L158.66666666666666,121.48806915283203L163.33333333333334,121.28071885108947L168,121.67490468025207L172.66666666666669,121.5897475719452L177.33333333333331,121.28006105422973L182,121.60291199684143L186.66666666666666,122.05414366722107L191.33333333333334,120.8401137828827L196,121.78792266845703L200.66666666666666,121.09104418754578L205.33333333333331,121.91196618080139L210,121.91702909469605L214.66666666666669,121.9785352230072L219.33333333333334,122.03376469612121L224,121.86764340400696L228.66666666666666,122.00628576278686L233.33333333333334,121.46308560371399L238,122.14206776618957L242.66666666666669,120.99925394058228L247.33333333333331,121.74719018936158L252,121.46089153289795" style="fill: none;" fill="none"></path></g><g><path stroke="rgb(204, 51, 17)" stroke-width="2px" d="M23.333333333333332,90.66089463233948L28,111.7893382549286L32.666666666666664,116.98778376579284L37.333333333333336,120.15479130744934L42,122.56824798583985L46.666666666666664,124.49402256011963L51.33333333333333,125.96812834739686L56,127.2820372581482L60.66666666666667,128.36205906867983L65.33333333333333,129.33569178581237L70,130.19790644645693L74.66666666666667,130.99919850826265L79.33333333333333,131.66567616462706L84,132.2413969516754L88.66666666666666,132.9404228210449L93.33333333333333,133.34697310924528L98,133.84958720207214L102.66666666666666,134.23093750476838L107.33333333333334,134.76497943401338L112,135.02748069763183L116.66666666666667,135.45600140094757L121.33333333333334,135.90230808258056L126,136.02259154319765L130.66666666666666,136.42998211383818L135.33333333333334,136.70896224975584L140,136.92195687294006L144.66666666666669,137.1472225904465L149.33333333333334,137.502872133255L154,137.55345458984377L158.66666666666666,137.8781028032303L163.33333333333334,137.94304008483888L168,138.13414916992187L172.66666666666669,138.4498067855835L177.33333333333331,138.577045917511L182,138.71635031700134L186.66666666666666,138.93626878261566L191.33333333333334,139.07584478855134L196,139.32303423881532L200.66666666666666,139.45479094982147L205.33333333333331,139.5834538936615L210,139.6499868631363L214.66666666666669,139.733380651474L219.33333333333334,139.88212974071504L224,139.95457227230074L228.66666666666666,140.138999414444L233.33333333333334,140.23488709926605L238,140.4067757844925L242.66666666666669,140.50763089656832L247.33333333333331,140.6799736738205L252,140.81321361064911" style="fill: none;" fill="none"></path></g><g><path stroke="rgb(255, 112, 67)" stroke-width="2px" d="M23.333333333333332,38.45369253158569L28,77.21586208343506L32.666666666666664,90.46090316772461L37.333333333333336,97.07019138336182L42,101.23283176422119L46.666666666666664,104.19251022338867L51.33333333333333,106.40038628578186L56,108.18778586387634L60.66666666666667,109.62364182472228L65.33333333333333,110.8403877735138L70,112.02437543869019L74.66666666666667,112.97575340270996L79.33333333333333,113.9190595626831L84,114.6747875213623L88.66666666666666,115.49326930046081L93.33333333333333,116.17376227378845L98,116.7765121459961L102.66666666666666,117.22198915481567L107.33333333333334,117.86062927246094L112,118.34235725402831L116.66666666666667,118.8510591506958L121.33333333333334,119.3057156085968L126,119.77804770469666L130.66666666666666,120.14239077568054L135.33333333333334,120.57144408226013L140,120.89473638534545L144.66666666666669,121.26508874893189L149.33333333333334,121.64915299415588L154,121.95825810432434L158.66666666666666,122.22622756958008L163.33333333333334,122.56448793411255L168,122.86772804260254L172.66666666666669,123.18396282196045L177.33333333333331,123.485276222229L182,123.76373648643494L186.66666666666666,123.94615416526794L191.33333333333334,124.25029397010803L196,124.41343607902527L200.66666666666666,124.63698091506959L205.33333333333331,124.88789434432984L210,125.0865341424942L214.66666666666669,125.45302035808564L219.33333333333334,125.54384725093841L224,125.75626895427703L228.66666666666666,125.99714779853821L233.33333333333334,126.18959369659424L238,126.44086997509002L242.66666666666669,126.54655246734619L247.33333333333331,126.66907455921174L252,126.93148245811463" style="fill: none;" fill="none"></path></g></g></g></g></g></g><g transform="translate(50, 178)" clip-path="url(#clip_1)"><clipPath id="clip_1"><rect width="280" height="22"></rect></clipPath><g><g><line x1="0" y1="0" x2="0" y2="5" style="visibility: inherit;" fill="rgb(0, 0, 0)" stroke="rgb(204, 204, 204)" stroke-width="1px"></line><line x1="23.333333333333332" y1="0" x2="23.333333333333332" y2="5" style="visibility: inherit;" fill="rgb(0, 0, 0)" stroke="rgb(204, 204, 204)" stroke-width="1px"></line><line x1="46.666666666666664" y1="0" x2="46.666666666666664" y2="5" style="visibility: inherit;" fill="rgb(0, 0, 0)" stroke="rgb(204, 204, 204)" stroke-width="1px"></line><line x1="70" y1="0" x2="70" y2="5" style="visibility: inherit;" fill="rgb(0, 0, 0)" stroke="rgb(204, 204, 204)" stroke-width="1px"></line><line x1="93.33333333333333" y1="0" x2="93.33333333333333" y2="5" style="visibility: inherit;" fill="rgb(0, 0, 0)" stroke="rgb(204, 204, 204)" stroke-width="1px"></line><line x1="116.66666666666667" y1="0" x2="116.66666666666667" y2="5" style="visibility: inherit;" fill="rgb(0, 0, 0)" stroke="rgb(204, 204, 204)" stroke-width="1px"></line><line x1="140" y1="0" x2="140" y2="5" style="visibility: inherit;" fill="rgb(0, 0, 0)" stroke="rgb(204, 204, 204)" stroke-width="1px"></line><line x1="163.33333333333334" y1="0" x2="163.33333333333334" y2="5" style="visibility: inherit;" fill="rgb(0, 0, 0)" stroke="rgb(204, 204, 204)" stroke-width="1px"></line><line x1="186.66666666666666" y1="0" x2="186.66666666666666" y2="5" style="visibility: inherit;" fill="rgb(0, 0, 0)" stroke="rgb(204, 204, 204)" stroke-width="1px"></line><line x1="210" y1="0" x2="210" y2="5" style="visibility: inherit;" fill="rgb(0, 0, 0)" stroke="rgb(204, 204, 204)" stroke-width="1px"></line><line x1="233.33333333333334" y1="0" x2="233.33333333333334" y2="5" style="visibility: inherit;" fill="rgb(0, 0, 0)" stroke="rgb(204, 204, 204)" stroke-width="1px"></line><line x1="256.66666666666663" y1="0" x2="256.66666666666663" y2="5" style="visibility: inherit;" fill="rgb(0, 0, 0)" stroke="rgb(204, 204, 204)" stroke-width="1px"></line><line x1="280" y1="0" x2="280" y2="5" style="visibility: inherit;" fill="rgb(0, 0, 0)" stroke="rgb(204, 204, 204)" stroke-width="1px"></line></g><g transform="translate(0, 8)"><text x="0" y="0" dx="0em" dy="0.95em" style="text-anchor: middle; visibility: hidden; font-family: Roboto, sans-serif; font-size: 12px; font-weight: 200;" fill="rgb(50, 49, 63)" stroke="none" stroke-width="1px">-5</text><text x="23.333333333333332" y="0" dx="0em" dy="0.95em" style="text-anchor: middle; visibility: inherit; font-family: Roboto, sans-serif; font-size: 12px; font-weight: 200;" fill="rgb(50, 49, 63)" stroke="none" stroke-width="1px">0</text><text x="46.666666666666664" y="0" dx="0em" dy="0.95em" style="text-anchor: middle; visibility: inherit; font-family: Roboto, sans-serif; font-size: 12px; font-weight: 200;" fill="rgb(50, 49, 63)" stroke="none" stroke-width="1px">5</text><text x="70" y="0" dx="0em" dy="0.95em" style="text-anchor: middle; visibility: inherit; font-family: Roboto, sans-serif; font-size: 12px; font-weight: 200;" fill="rgb(50, 49, 63)" stroke="none" stroke-width="1px">10</text><text x="93.33333333333333" y="0" dx="0em" dy="0.95em" style="text-anchor: middle; visibility: inherit; font-family: Roboto, sans-serif; font-size: 12px; font-weight: 200;" fill="rgb(50, 49, 63)" stroke="none" stroke-width="1px">15</text><text x="116.66666666666667" y="0" dx="0em" dy="0.95em" style="text-anchor: middle; visibility: inherit; font-family: Roboto, sans-serif; font-size: 12px; font-weight: 200;" fill="rgb(50, 49, 63)" stroke="none" stroke-width="1px">20</text><text x="140" y="0" dx="0em" dy="0.95em" style="text-anchor: middle; visibility: inherit; font-family: Roboto, sans-serif; font-size: 12px; font-weight: 200;" fill="rgb(50, 49, 63)" stroke="none" stroke-width="1px">25</text><text x="163.33333333333334" y="0" dx="0em" dy="0.95em" style="text-anchor: middle; visibility: inherit; font-family: Roboto, sans-serif; font-size: 12px; font-weight: 200;" fill="rgb(50, 49, 63)" stroke="none" stroke-width="1px">30</text><text x="186.66666666666666" y="0" dx="0em" dy="0.95em" style="text-anchor: middle; visibility: inherit; font-family: Roboto, sans-serif; font-size: 12px; font-weight: 200;" fill="rgb(50, 49, 63)" stroke="none" stroke-width="1px">35</text><text x="210" y="0" dx="0em" dy="0.95em" style="text-anchor: middle; visibility: inherit; font-family: Roboto, sans-serif; font-size: 12px; font-weight: 200;" fill="rgb(50, 49, 63)" stroke="none" stroke-width="1px">40</text><text x="233.33333333333334" y="0" dx="0em" dy="0.95em" style="text-anchor: middle; visibility: inherit; font-family: Roboto, sans-serif; font-size: 12px; font-weight: 200;" fill="rgb(50, 49, 63)" stroke="none" stroke-width="1px">45</text><text x="256.66666666666663" y="0" dx="0em" dy="0.95em" style="text-anchor: middle; visibility: inherit; font-family: Roboto, sans-serif; font-size: 12px; font-weight: 200;" fill="rgb(50, 49, 63)" stroke="none" stroke-width="1px">50</text><text x="280" y="0" dx="0em" dy="0.95em" style="text-anchor: middle; visibility: hidden; font-family: Roboto, sans-serif; font-size: 12px; font-weight: 200;" fill="rgb(50, 49, 63)" stroke="none" stroke-width="1px">55</text></g><line x1="0" y1="0" x2="280" y2="0" fill="rgb(0, 0, 0)" stroke="rgb(204, 204, 204)" stroke-width="1px"></line></g></g></g></g></svg>