<svg viewBox="0 0 330 200" xmlns="http://www.w3.org/2000/svg"><g><g><g><g><g><line x1="50" y1="178" x2="45" y2="178" style="visibility: inherit;" fill="rgb(0, 0, 0)" stroke="rgb(204, 204, 204)" stroke-width="1px"></line><line x1="50" y1="155.74999999999997" x2="45" y2="155.74999999999997" style="visibility: inherit;" fill="rgb(0, 0, 0)" stroke="rgb(204, 204, 204)" stroke-width="1px"></line><line x1="50" y1="133.5" x2="45" y2="133.5" style="visibility: inherit;" fill="rgb(0, 0, 0)" stroke="rgb(204, 204, 204)" stroke-width="1px"></line><line x1="50" y1="111.25" x2="45" y2="111.25" style="visibility: inherit;" fill="rgb(0, 0, 0)" stroke="rgb(204, 204, 204)" stroke-width="1px"></line><line x1="50" y1="89.00000000000001" x2="45" y2="89.00000000000001" style="visibility: inherit;" fill="rgb(0, 0, 0)" stroke="rgb(204, 204, 204)" stroke-width="1px"></line><line x1="50" y1="66.75" x2="45" y2="66.75" style="visibility: inherit;" fill="rgb(0, 0, 0)" stroke="rgb(204, 204, 204)" stroke-width="1px"></line><line x1="50" y1="44.49999999999998" x2="45" y2="44.49999999999998" style="visibility: inherit;" fill="rgb(0, 0, 0)" stroke="rgb(204, 204, 204)" stroke-width="1px"></line><line x1="50" y1="22.25000000000002" x2="45" y2="22.25000000000002" style="visibility: inherit;" fill="rgb(0, 0, 0)" stroke="rgb(204, 204, 204)" stroke-width="1px"></line><line x1="50" y1="0" x2="45" y2="0" style="visibility: inherit;" fill="rgb(0, 0, 0)" stroke="rgb(204, 204, 204)" stroke-width="1px"></line></g><g transform="translate(40, 0)"><text x="0" y="178" dx="0em" dy="0.3em" style="text-anchor: end; visibility: hidden; font-family: Roboto, sans-serif; font-size: 12px; font-weight: 200;" fill="rgb(50, 49, 63)" stroke="none" stroke-width="1px">0.5</text><text x="0" y="155.74999999999997" dx="0em" dy="0.3em" style="text-anchor: end; visibility: inherit; font-family: Roboto, sans-serif; font-size: 12px; font-weight: 200;" fill="rgb(50, 49, 63)" stroke="none" stroke-width="1px">0.55</text><text x="0" y="133.5" dx="0em" dy="0.3em" style="text-anchor: end; visibility: hidden; font-family: Roboto, sans-serif; font-size: 12px; font-weight: 200;" fill="rgb(50, 49, 63)" stroke="none" stroke-width="1px">0.6</text><text x="0" y="111.25" dx="0em" dy="0.3em" style="text-anchor: end; visibility: inherit; font-family: Roboto, sans-serif; font-size: 12px; font-weight: 200;" fill="rgb(50, 49, 63)" stroke="none" stroke-width="1px">0.65</text><text x="0" y="89.00000000000001" dx="0em" dy="0.3em" style="text-anchor: end; visibility: hidden; font-family: Roboto, sans-serif; font-size: 12px; font-weight: 200;" fill="rgb(50, 49, 63)" stroke="none" stroke-width="1px">0.7</text><text x="0" y="66.75" dx="0em" dy="0.3em" style="text-anchor: end; visibility: inherit; font-family: Roboto, sans-serif; font-size: 12px; font-weight: 200;" fill="rgb(50, 49, 63)" stroke="none" stroke-width="1px">0.75</text><text x="0" y="44.49999999999998" dx="0em" dy="0.3em" style="text-anchor: end; visibility: hidden; font-family: Roboto, sans-serif; font-size: 12px; font-weight: 200;" fill="rgb(50, 49, 63)" stroke="none" stroke-width="1px">0.8</text><text x="0" y="22.25000000000002" dx="0em" dy="0.3em" style="text-anchor: end; visibility: inherit; font-family: Roboto, sans-serif; font-size: 12px; font-weight: 200;" fill="rgb(50, 49, 63)" stroke="none" stroke-width="1px">0.85</text><text x="0" y="0" dx="0em" dy="0.3em" style="text-anchor: end; visibility: hidden; font-family: Roboto, sans-serif; font-size: 12px; font-weight: 200;" fill="rgb(50, 49, 63)" stroke="none" stroke-width="1px">0.9</text></g><line x1="50" y1="0" x2="50" y2="178" fill="rgb(0, 0, 0)" stroke="rgb(204, 204, 204)" stroke-width="1px"></line></g></g><g transform="translate(50, 0)" clip-path="url(#clip_0)"><clipPath id="clip_0"><rect width="280" height="178"></rect></clipPath><g><g><g><line x1="0" y1="0" x2="0" y2="178" fill="rgb(0, 0, 0)" stroke="rgb(60, 60, 60)" stroke-width="1px" opacity="0.25"></line><line x1="23.333333333333332" y1="0" x2="23.333333333333332" y2="178" fill="rgb(0, 0, 0)" stroke="rgb(60, 60, 60)" stroke-width="1px" opacity="0.25"></line><line x1="46.666666666666664" y1="0" x2="46.666666666666664" y2="178" fill="rgb(0, 0, 0)" stroke="rgb(60, 60, 60)" stroke-width="1px" opacity="0.25"></line><line x1="70" y1="0" x2="70" y2="178" fill="rgb(0, 0, 0)" stroke="rgb(60, 60, 60)" stroke-width="1px" opacity="0.25"></line><line x1="93.33333333333333" y1="0" x2="93.33333333333333" y2="178" fill="rgb(0, 0, 0)" stroke="rgb(60, 60, 60)" stroke-width="1px" opacity="0.25"></line><line x1="116.66666666666667" y1="0" x2="116.66666666666667" y2="178" fill="rgb(0, 0, 0)" stroke="rgb(60, 60, 60)" stroke-width="1px" opacity="0.25"></line><line x1="140" y1="0" x2="140" y2="178" fill="rgb(0, 0, 0)" stroke="rgb(60, 60, 60)" stroke-width="1px" opacity="0.25"></line><line x1="163.33333333333334" y1="0" x2="163.33333333333334" y2="178" fill="rgb(0, 0, 0)" stroke="rgb(60, 60, 60)" stroke-width="1px" opacity="0.25"></line><line x1="186.66666666666666" y1="0" x2="186.66666666666666" y2="178" fill="rgb(0, 0, 0)" stroke="rgb(60, 60, 60)" stroke-width="1px" opacity="0.25"></line><line x1="210" y1="0" x2="210" y2="178" fill="rgb(0, 0, 0)" stroke="rgb(60, 60, 60)" stroke-width="1px" opacity="0.25"></line><line x1="233.33333333333334" y1="0" x2="233.33333333333334" y2="178" fill="rgb(0, 0, 0)" stroke="rgb(60, 60, 60)" stroke-width="1px" opacity="0.25"></line><line x1="256.66666666666663" y1="0" x2="256.66666666666663" y2="178" fill="rgb(0, 0, 0)" stroke="rgb(60, 60, 60)" stroke-width="1px" opacity="0.25"></line><line x1="280" y1="0" x2="280" y2="178" fill="rgb(0, 0, 0)" stroke="rgb(60, 60, 60)" stroke-width="1px" opacity="0.25"></line></g><g><line x1="0" y1="178" x2="280" y2="178" fill="rgb(0, 0, 0)" stroke="rgb(60, 60, 60)" stroke-width="1px" opacity="0.25"></line><line x1="0" y1="155.74999999999997" x2="280" y2="155.74999999999997" fill="rgb(0, 0, 0)" stroke="rgb(60, 60, 60)" stroke-width="1px" opacity="0.25"></line><line x1="0" y1="133.5" x2="280" y2="133.5" fill="rgb(0, 0, 0)" stroke="rgb(60, 60, 60)" stroke-width="1px" opacity="0.25"></line><line x1="0" y1="111.25" x2="280" y2="111.25" fill="rgb(0, 0, 0)" stroke="rgb(60, 60, 60)" stroke-width="1px" opacity="0.25"></line><line x1="0" y1="89.00000000000001" x2="280" y2="89.00000000000001" fill="rgb(0, 0, 0)" stroke="rgb(60, 60, 60)" stroke-width="1px" opacity="0.25"></line><line x1="0" y1="66.75" x2="280" y2="66.75" fill="rgb(0, 0, 0)" stroke="rgb(60, 60, 60)" stroke-width="1px" opacity="0.25"></line><line x1="0" y1="44.49999999999998" x2="280" y2="44.49999999999998" fill="rgb(0, 0, 0)" stroke="rgb(60, 60, 60)" stroke-width="1px" opacity="0.25"></line><line x1="0" y1="22.25000000000002" x2="280" y2="22.25000000000002" fill="rgb(0, 0, 0)" stroke="rgb(60, 60, 60)" stroke-width="1px" opacity="0.25"></line><line x1="0" y1="0" x2="280" y2="0" fill="rgb(0, 0, 0)" stroke="rgb(60, 60, 60)" stroke-width="1px" opacity="0.25"></line></g></g></g><g><g><line x1="0" y1="400.5" x2="280" y2="400.5" fill="rgb(0, 0, 0)" stroke="rgb(153, 153, 153)" stroke-width="1.5px"></line></g></g><g><g><line x1="23.333333333333332" y1="0" x2="23.333333333333332" y2="178" fill="rgb(0, 0, 0)" stroke="rgb(153, 153, 153)" stroke-width="1.5px"></line></g></g><g><g><g><g><g><path stroke="rgb(0, 153, 136)" stroke-width="2px" d="M23.333333333333332,133.8431577682495L28,133.24188369512558L32.666666666666664,132.31799739599228L37.333333333333336,132.59663271903992L42,133.54985463619232L46.666666666666664,136.54155719280243L51.33333333333333,132.5086258649826L56,133.02191960811615L60.66666666666667,131.77536803483963L65.33333333333333,133.56452244520187L70,135.03103810548782L74.66666666666667,133.56452244520187L79.33333333333333,134.88438653945923L84,136.84952813386917L88.66666666666666,133.6671705842018L93.33333333333333,134.97239339351654L98,134.0191449522972L102.66666666666666,135.1337127685547L107.33333333333334,134.5471065044403L112,136.87886375188828L116.66666666666667,136.04293125867844L121.33333333333334,135.04570591449738L126,134.4297640323639L130.66666666666666,136.58556061983109L135.33333333333334,134.62041902542114L140,136.76152127981186L144.66666666666669,135.8523027896881L149.33333333333334,137.14283126592636L154,135.17768967151642L158.66666666666666,134.94305777549744L163.33333333333334,135.86697059869766L168,134.9870612025261L172.66666666666669,136.30692529678345L177.33333333333331,134.957725584507L182,135.33900904655457L186.66666666666666,136.45357686281204L191.33333333333334,136.60022842884064L196,137.02551531791687L200.66666666666666,135.1337127685547L205.33333333333331,137.01084750890732L210,136.46821814775467L214.66666666666669,134.97239339351654L219.33333333333334,136.46821814775467L224,136.13093811273575L228.66666666666666,136.2335862517357L233.33333333333334,136.55622500181198L238,137.3334862589836L242.66666666666669,136.24825406074524L247.33333333333331,137.83208566904068L252,136.02826344966888" style="fill: none;" fill="none"></path></g><g><path stroke="rgb(51, 187, 238)" stroke-width="2px" d="M23.333333333333332,127.75713104009628L28,115.21840888261795L32.666666666666664,110.02693283557892L37.333333333333336,107.41651374101639L42,105.62738585472107L46.666666666666664,104.5714892745018L51.33333333333333,103.95554739236832L56,103.48625707626343L60.66666666666667,103.36894112825394L65.33333333333333,103.53026050329208L70,103.67691206932068L74.66666666666667,103.72088897228241L79.33333333333333,103.76489239931107L84,103.94087958335876L88.66666666666666,104.0435277223587L93.33333333333333,104.30749523639679L98,105.07008868455887L102.66666666666666,105.37805962562561L107.33333333333334,105.15809553861618L112,106.14065307378769L116.66666666666667,106.14065307378769L121.33333333333334,107.0058946609497L126,106.65394681692123L130.66666666666666,107.02056246995926L135.33333333333334,107.38720464706421L140,107.72448468208313L144.66666666666669,108.06179124116898L149.33333333333334,108.03245562314987L154,108.4577425122261L158.66666666666666,108.64839750528336L163.33333333333334,108.7803812623024L168,109.14702343940735L172.66666666666669,109.55764251947403L177.33333333333331,109.73362970352173L182,110.0855775475502L186.66666666666666,110.37888067960739L191.33333333333334,111.14147412776947L196,111.25879007577896L200.66666666666666,111.00949037075043L205.33333333333331,111.11213850975037L210,112.00671571493149L214.66666666666669,111.64010006189346L219.33333333333334,111.75741600990295L224,110.92151004076004L228.66666666666666,112.37335789203644L233.33333333333334,112.03605133295059L238,112.62265759706497L242.66666666666669,112.54934507608414L247.33333333333331,113.00396758317947L252,113.3705832362175" style="fill: none;" fill="none"></path></g><g><path stroke="rgb(0, 119, 187)" stroke-width="2px" d="M23.333333333333332,193.2371083199978L28,163.92142313718796L32.666666666666664,150.70811438560486L37.333333333333336,143.1408776640892L42,136.76152127981186L46.666666666666664,132.27399396896362L51.33333333333333,128.68101733922958L56,125.90930539369583L60.66666666666667,123.29891282320023L65.33333333333333,120.65918463468552L70,118.82602679729462L74.66666666666667,117.2861720919609L79.33333333333333,115.71700829267502L84,114.55846357345581L88.66666666666666,113.88387697935104L93.33333333333333,112.84264820814133L98,112.02138352394104L102.66666666666666,110.95081913471222L107.33333333333334,110.6135390996933L112,109.83627784252167L116.66666666666667,109.17633253335953L121.33333333333334,108.51641374826431L126,107.94447529315948L130.66666666666666,107.63650435209274L135.33333333333334,107.07923370599747L140,106.75659495592117L144.66666666666669,106.24330121278763L149.33333333333334,106.15532088279724L154,105.74470180273056L158.66666666666666,105.36339181661606L163.33333333333334,104.80612117052078L168,104.5714892745018L172.66666666666669,104.08753114938736L177.33333333333331,103.83823144435883L182,103.60357302427292L186.66666666666666,103.04630237817764L191.33333333333334,103.13428270816803L196,102.92898643016815L200.66666666666666,102.54767644405365L205.33333333333331,102.47436392307281L210,102.21039640903473L214.66666666666669,102.07841265201569L219.33333333333334,101.81441861391068L224,101.75577390193939L228.66666666666666,101.34515482187271L233.33333333333334,101.4331351518631L238,101.2571479678154L242.66666666666669,101.4331351518631L247.33333333333331,101.16916763782501L252,101.24248015880585" style="fill: none;" fill="none"></path></g><g><path stroke="rgb(238, 51, 119)" stroke-width="2px" d="M23.333333333333332,161.11472594738007L28,120.1895495057106L32.666666666666664,108.65768092870712L37.333333333333336,100.78504610061646L42,95.33716189861298L46.666666666666664,92.20071750879288L51.33333333333333,88.21399110555649L56,85.23499357700348L60.66666666666667,82.55829083919525L65.33333333333333,80.95225858688354L70,78.0362291932106L74.66666666666667,77.12929177284241L79.33333333333333,76.01453828811646L84,74.30145490169525L88.66666666666666,72.28605020046234L93.33333333333333,71.88296395540237L98,70.91934460401535L102.66666666666666,69.94315284490585L107.33333333333334,68.80317497253418L112,68.41271418333054L116.66666666666667,66.17058175802231L121.33333333333334,65.62264758348465L126,66.15798282623291L130.66666666666666,66.4476786851883L135.33333333333334,64.75350695848465L140,64.31262391805649L144.66666666666669,63.83397060632706L149.33333333333334,62.17756915092468L154,62.51766073703766L158.66666666666666,61.125783801078796L163.33333333333334,61.68631690740585L168,60.527453899383545L172.66666666666669,60.036201655864716L177.33333333333331,59.777989864349365L182,59.67719841003418L186.66666666666666,58.197155475616455L191.33333333333334,59.41270041465759L196,57.56734150648117L200.66666666666666,58.675808787345886L205.33333333333331,58.18455654382706L210,57.13277119398117L214.66666666666669,56.616321086883545L219.33333333333334,56.817850947380066L224,56.238432705402374L228.66666666666666,55.514140009880066L233.33333333333334,56.62263381481171L238,55.079569697380066L242.66666666666669,56.358109295368195L247.33333333333331,55.76606559753418L252,55.526738941669464" style="fill: none;" fill="none"></path></g><g><path stroke="rgb(204, 51, 17)" stroke-width="2px" d="M23.333333333333332,165.95799404382706L28,115.18883454799652L32.666666666666664,99.3553723692894L37.333333333333336,89.92078828811646L42,83.03694415092468L46.666666666666664,75.64293611049652L51.33333333333333,72.24825340509415L56,68.75280576944351L60.66666666666667,64.89835488796234L65.33333333333333,62.13348615169525L70,59.08518123626709L74.66666666666667,56.95641267299652L79.33333333333333,55.19296008348465L84,53.56172996759415L88.66666666666666,51.514841198921204L93.33333333333333,49.940319538116455L98,48.27760535478592L102.66666666666666,47.565938115119934L107.33333333333334,46.00398886203766L112,44.79475665092468L116.66666666666667,43.00607967376709L121.33333333333334,41.60160380601883L126,41.9920911192894L130.66666666666666,40.62538552284241L135.33333333333334,40.07116514444351L140,39.09494686126709L144.66666666666669,38.59109568595886L149.33333333333334,37.57710713148117L154,37.54562306404114L158.66666666666666,36.525321781635284L163.33333333333334,36.05295467376709L168,35.61209815740585L172.66666666666669,34.37135535478592L177.33333333333331,33.77933818101883L182,33.703771114349365L186.66666666666666,33.51481366157532L191.33333333333334,32.88499969244003L196,32.26778465509415L200.66666666666666,31.32936316728592L205.33333333333331,30.89479285478592L210,30.554701268672943L214.66666666666669,30.309061884880066L219.33333333333334,29.59739464521408L224,30.264978885650635L228.66666666666666,29.370666921138763L233.33333333333334,29.42103612422943L238,28.690457224845886L242.66666666666669,28.155121982097626L247.33333333333331,27.73943680524826L252,27.531594216823578" style="fill: none;" fill="none"></path></g><g><path stroke="rgb(255, 112, 67)" stroke-width="2px" d="M23.333333333333332,264.1268016695976L28,177.29461896419525L32.666666666666664,155.50942140817642L37.333333333333336,143.76342403888702L42,135.78999775648117L46.666666666666664,130.17838048934937L51.33333333333333,125.27843046188354L56,120.92012840509415L60.66666666666667,117.21683818101883L65.33333333333333,114.45196944475174L70,110.69199728965759L74.66666666666667,108.02789348363876L79.33333333333333,105.53383547067642L84,103.37986904382706L88.66666666666666,101.42114627361298L93.33333333333333,98.4988306760788L98,96.93688142299652L102.66666666666666,95.84732580184937L107.33333333333334,94.53101593255997L112,92.45892930030823L116.66666666666667,91.24969708919525L121.33333333333334,90.00895428657532L126,88.73672741651535L130.66666666666666,88.0439453125L135.33333333333334,86.22378426790237L140,85.02083826065063L144.66666666666669,84.30285829305649L149.33333333333334,83.47780066728592L154,82.23077166080475L158.66666666666666,81.84659707546234L163.33333333333334,80.30355948209763L168,79.10689967870712L172.66666666666669,78.32595157623291L177.33333333333331,77.28045243024826L182,76.25386494398117L186.66666666666666,75.8885754942894L191.33333333333334,75.63033717870712L196,75.08240300416946L200.66666666666666,73.67164093255997L205.33333333333331,72.99774396419525L210,72.60094392299652L214.66666666666669,72.14748847484589L219.33333333333334,71.26574891805649L224,70.49737322330475L228.66666666666666,69.69751346111298L233.33333333333334,69.30702614784241L238,69.15589201450348L242.66666666666669,67.48057889938354L247.33333333333331,67.72621828317642L252,66.84447872638702" style="fill: none;" fill="none"></path></g></g></g></g></g><g><g opacity="0.883406"><span fill="rgb(0, 0, 0)" stroke="none" stroke-width="1px">Alt + Scroll to Zoom</span></g></g></g><g transform="translate(50, 178)" clip-path="url(#clip_1)"><clipPath id="clip_1"><rect width="280" height="22"></rect></clipPath><g><g><line x1="0" y1="0" x2="0" y2="5" style="visibility: inherit;" fill="rgb(0, 0, 0)" stroke="rgb(204, 204, 204)" stroke-width="1px"></line><line x1="23.333333333333332" y1="0" x2="23.333333333333332" y2="5" style="visibility: inherit;" fill="rgb(0, 0, 0)" stroke="rgb(204, 204, 204)" stroke-width="1px"></line><line x1="46.666666666666664" y1="0" x2="46.666666666666664" y2="5" style="visibility: inherit;" fill="rgb(0, 0, 0)" stroke="rgb(204, 204, 204)" stroke-width="1px"></line><line x1="70" y1="0" x2="70" y2="5" style="visibility: inherit;" fill="rgb(0, 0, 0)" stroke="rgb(204, 204, 204)" stroke-width="1px"></line><line x1="93.33333333333333" y1="0" x2="93.33333333333333" y2="5" style="visibility: inherit;" fill="rgb(0, 0, 0)" stroke="rgb(204, 204, 204)" stroke-width="1px"></line><line x1="116.66666666666667" y1="0" x2="116.66666666666667" y2="5" style="visibility: inherit;" fill="rgb(0, 0, 0)" stroke="rgb(204, 204, 204)" stroke-width="1px"></line><line x1="140" y1="0" x2="140" y2="5" style="visibility: inherit;" fill="rgb(0, 0, 0)" stroke="rgb(204, 204, 204)" stroke-width="1px"></line><line x1="163.33333333333334" y1="0" x2="163.33333333333334" y2="5" style="visibility: inherit;" fill="rgb(0, 0, 0)" stroke="rgb(204, 204, 204)" stroke-width="1px"></line><line x1="186.66666666666666" y1="0" x2="186.66666666666666" y2="5" style="visibility: inherit;" fill="rgb(0, 0, 0)" stroke="rgb(204, 204, 204)" stroke-width="1px"></line><line x1="210" y1="0" x2="210" y2="5" style="visibility: inherit;" fill="rgb(0, 0, 0)" stroke="rgb(204, 204, 204)" stroke-width="1px"></line><line x1="233.33333333333334" y1="0" x2="233.33333333333334" y2="5" style="visibility: inherit;" fill="rgb(0, 0, 0)" stroke="rgb(204, 204, 204)" stroke-width="1px"></line><line x1="256.66666666666663" y1="0" x2="256.66666666666663" y2="5" style="visibility: inherit;" fill="rgb(0, 0, 0)" stroke="rgb(204, 204, 204)" stroke-width="1px"></line><line x1="280" y1="0" x2="280" y2="5" style="visibility: inherit;" fill="rgb(0, 0, 0)" stroke="rgb(204, 204, 204)" stroke-width="1px"></line></g><g transform="translate(0, 8)"><text x="0" y="0" dx="0em" dy="0.95em" style="text-anchor: middle; visibility: hidden; font-family: Roboto, sans-serif; font-size: 12px; font-weight: 200;" fill="rgb(50, 49, 63)" stroke="none" stroke-width="1px">-5</text><text x="23.333333333333332" y="0" dx="0em" dy="0.95em" style="text-anchor: middle; visibility: inherit; font-family: Roboto, sans-serif; font-size: 12px; font-weight: 200;" fill="rgb(50, 49, 63)" stroke="none" stroke-width="1px">0</text><text x="46.666666666666664" y="0" dx="0em" dy="0.95em" style="text-anchor: middle; visibility: inherit; font-family: Roboto, sans-serif; font-size: 12px; font-weight: 200;" fill="rgb(50, 49, 63)" stroke="none" stroke-width="1px">5</text><text x="70" y="0" dx="0em" dy="0.95em" style="text-anchor: middle; visibility: inherit; font-family: Roboto, sans-serif; font-size: 12px; font-weight: 200;" fill="rgb(50, 49, 63)" stroke="none" stroke-width="1px">10</text><text x="93.33333333333333" y="0" dx="0em" dy="0.95em" style="text-anchor: middle; visibility: inherit; font-family: Roboto, sans-serif; font-size: 12px; font-weight: 200;" fill="rgb(50, 49, 63)" stroke="none" stroke-width="1px">15</text><text x="116.66666666666667" y="0" dx="0em" dy="0.95em" style="text-anchor: middle; visibility: inherit; font-family: Roboto, sans-serif; font-size: 12px; font-weight: 200;" fill="rgb(50, 49, 63)" stroke="none" stroke-width="1px">20</text><text x="140" y="0" dx="0em" dy="0.95em" style="text-anchor: middle; visibility: inherit; font-family: Roboto, sans-serif; font-size: 12px; font-weight: 200;" fill="rgb(50, 49, 63)" stroke="none" stroke-width="1px">25</text><text x="163.33333333333334" y="0" dx="0em" dy="0.95em" style="text-anchor: middle; visibility: inherit; font-family: Roboto, sans-serif; font-size: 12px; font-weight: 200;" fill="rgb(50, 49, 63)" stroke="none" stroke-width="1px">30</text><text x="186.66666666666666" y="0" dx="0em" dy="0.95em" style="text-anchor: middle; visibility: inherit; font-family: Roboto, sans-serif; font-size: 12px; font-weight: 200;" fill="rgb(50, 49, 63)" stroke="none" stroke-width="1px">35</text><text x="210" y="0" dx="0em" dy="0.95em" style="text-anchor: middle; visibility: inherit; font-family: Roboto, sans-serif; font-size: 12px; font-weight: 200;" fill="rgb(50, 49, 63)" stroke="none" stroke-width="1px">40</text><text x="233.33333333333334" y="0" dx="0em" dy="0.95em" style="text-anchor: middle; visibility: inherit; font-family: Roboto, sans-serif; font-size: 12px; font-weight: 200;" fill="rgb(50, 49, 63)" stroke="none" stroke-width="1px">45</text><text x="256.66666666666663" y="0" dx="0em" dy="0.95em" style="text-anchor: middle; visibility: inherit; font-family: Roboto, sans-serif; font-size: 12px; font-weight: 200;" fill="rgb(50, 49, 63)" stroke="none" stroke-width="1px">50</text><text x="280" y="0" dx="0em" dy="0.95em" style="text-anchor: middle; visibility: hidden; font-family: Roboto, sans-serif; font-size: 12px; font-weight: 200;" fill="rgb(50, 49, 63)" stroke="none" stroke-width="1px">55</text></g><line x1="0" y1="0" x2="280" y2="0" fill="rgb(0, 0, 0)" stroke="rgb(204, 204, 204)" stroke-width="1px"></line></g></g></g></g></svg>