<svg viewBox="0 0 330 200" xmlns="http://www.w3.org/2000/svg"><g><g><g><g><g><line x1="50" y1="178" x2="45" y2="178" style="visibility: inherit;" fill="rgb(0, 0, 0)" stroke="rgb(204, 204, 204)" stroke-width="1px"></line><line x1="50" y1="155.74999999999997" x2="45" y2="155.74999999999997" style="visibility: inherit;" fill="rgb(0, 0, 0)" stroke="rgb(204, 204, 204)" stroke-width="1px"></line><line x1="50" y1="133.5" x2="45" y2="133.5" style="visibility: inherit;" fill="rgb(0, 0, 0)" stroke="rgb(204, 204, 204)" stroke-width="1px"></line><line x1="50" y1="111.25" x2="45" y2="111.25" style="visibility: inherit;" fill="rgb(0, 0, 0)" stroke="rgb(204, 204, 204)" stroke-width="1px"></line><line x1="50" y1="89.00000000000001" x2="45" y2="89.00000000000001" style="visibility: inherit;" fill="rgb(0, 0, 0)" stroke="rgb(204, 204, 204)" stroke-width="1px"></line><line x1="50" y1="66.75" x2="45" y2="66.75" style="visibility: inherit;" fill="rgb(0, 0, 0)" stroke="rgb(204, 204, 204)" stroke-width="1px"></line><line x1="50" y1="44.49999999999998" x2="45" y2="44.49999999999998" style="visibility: inherit;" fill="rgb(0, 0, 0)" stroke="rgb(204, 204, 204)" stroke-width="1px"></line><line x1="50" y1="22.25000000000002" x2="45" y2="22.25000000000002" style="visibility: inherit;" fill="rgb(0, 0, 0)" stroke="rgb(204, 204, 204)" stroke-width="1px"></line><line x1="50" y1="0" x2="45" y2="0" style="visibility: inherit;" fill="rgb(0, 0, 0)" stroke="rgb(204, 204, 204)" stroke-width="1px"></line></g><g transform="translate(40, 0)"><text x="0" y="178" dx="0em" dy="0.3em" style="text-anchor: end; visibility: hidden; font-family: Roboto, sans-serif; font-size: 12px; font-weight: 200;" fill="rgb(50, 49, 63)" stroke="none" stroke-width="1px">0.5</text><text x="0" y="155.74999999999997" dx="0em" dy="0.3em" style="text-anchor: end; visibility: inherit; font-family: Roboto, sans-serif; font-size: 12px; font-weight: 200;" fill="rgb(50, 49, 63)" stroke="none" stroke-width="1px">0.55</text><text x="0" y="133.5" dx="0em" dy="0.3em" style="text-anchor: end; visibility: hidden; font-family: Roboto, sans-serif; font-size: 12px; font-weight: 200;" fill="rgb(50, 49, 63)" stroke="none" stroke-width="1px">0.6</text><text x="0" y="111.25" dx="0em" dy="0.3em" style="text-anchor: end; visibility: inherit; font-family: Roboto, sans-serif; font-size: 12px; font-weight: 200;" fill="rgb(50, 49, 63)" stroke="none" stroke-width="1px">0.65</text><text x="0" y="89.00000000000001" dx="0em" dy="0.3em" style="text-anchor: end; visibility: hidden; font-family: Roboto, sans-serif; font-size: 12px; font-weight: 200;" fill="rgb(50, 49, 63)" stroke="none" stroke-width="1px">0.7</text><text x="0" y="66.75" dx="0em" dy="0.3em" style="text-anchor: end; visibility: inherit; font-family: Roboto, sans-serif; font-size: 12px; font-weight: 200;" fill="rgb(50, 49, 63)" stroke="none" stroke-width="1px">0.75</text><text x="0" y="44.49999999999998" dx="0em" dy="0.3em" style="text-anchor: end; visibility: hidden; font-family: Roboto, sans-serif; font-size: 12px; font-weight: 200;" fill="rgb(50, 49, 63)" stroke="none" stroke-width="1px">0.8</text><text x="0" y="22.25000000000002" dx="0em" dy="0.3em" style="text-anchor: end; visibility: inherit; font-family: Roboto, sans-serif; font-size: 12px; font-weight: 200;" fill="rgb(50, 49, 63)" stroke="none" stroke-width="1px">0.85</text><text x="0" y="0" dx="0em" dy="0.3em" style="text-anchor: end; visibility: hidden; font-family: Roboto, sans-serif; font-size: 12px; font-weight: 200;" fill="rgb(50, 49, 63)" stroke="none" stroke-width="1px">0.9</text></g><line x1="50" y1="0" x2="50" y2="178" fill="rgb(0, 0, 0)" stroke="rgb(204, 204, 204)" stroke-width="1px"></line></g></g><g transform="translate(50, 0)" clip-path="url(#clip_0)"><clipPath id="clip_0"><rect width="280" height="178"></rect></clipPath><g><g><g><line x1="0" y1="0" x2="0" y2="178" fill="rgb(0, 0, 0)" stroke="rgb(60, 60, 60)" stroke-width="1px" opacity="0.25"></line><line x1="23.333333333333332" y1="0" x2="23.333333333333332" y2="178" fill="rgb(0, 0, 0)" stroke="rgb(60, 60, 60)" stroke-width="1px" opacity="0.25"></line><line x1="46.666666666666664" y1="0" x2="46.666666666666664" y2="178" fill="rgb(0, 0, 0)" stroke="rgb(60, 60, 60)" stroke-width="1px" opacity="0.25"></line><line x1="70" y1="0" x2="70" y2="178" fill="rgb(0, 0, 0)" stroke="rgb(60, 60, 60)" stroke-width="1px" opacity="0.25"></line><line x1="93.33333333333333" y1="0" x2="93.33333333333333" y2="178" fill="rgb(0, 0, 0)" stroke="rgb(60, 60, 60)" stroke-width="1px" opacity="0.25"></line><line x1="116.66666666666667" y1="0" x2="116.66666666666667" y2="178" fill="rgb(0, 0, 0)" stroke="rgb(60, 60, 60)" stroke-width="1px" opacity="0.25"></line><line x1="140" y1="0" x2="140" y2="178" fill="rgb(0, 0, 0)" stroke="rgb(60, 60, 60)" stroke-width="1px" opacity="0.25"></line><line x1="163.33333333333334" y1="0" x2="163.33333333333334" y2="178" fill="rgb(0, 0, 0)" stroke="rgb(60, 60, 60)" stroke-width="1px" opacity="0.25"></line><line x1="186.66666666666666" y1="0" x2="186.66666666666666" y2="178" fill="rgb(0, 0, 0)" stroke="rgb(60, 60, 60)" stroke-width="1px" opacity="0.25"></line><line x1="210" y1="0" x2="210" y2="178" fill="rgb(0, 0, 0)" stroke="rgb(60, 60, 60)" stroke-width="1px" opacity="0.25"></line><line x1="233.33333333333334" y1="0" x2="233.33333333333334" y2="178" fill="rgb(0, 0, 0)" stroke="rgb(60, 60, 60)" stroke-width="1px" opacity="0.25"></line><line x1="256.66666666666663" y1="0" x2="256.66666666666663" y2="178" fill="rgb(0, 0, 0)" stroke="rgb(60, 60, 60)" stroke-width="1px" opacity="0.25"></line><line x1="280" y1="0" x2="280" y2="178" fill="rgb(0, 0, 0)" stroke="rgb(60, 60, 60)" stroke-width="1px" opacity="0.25"></line></g><g><line x1="0" y1="178" x2="280" y2="178" fill="rgb(0, 0, 0)" stroke="rgb(60, 60, 60)" stroke-width="1px" opacity="0.25"></line><line x1="0" y1="155.74999999999997" x2="280" y2="155.74999999999997" fill="rgb(0, 0, 0)" stroke="rgb(60, 60, 60)" stroke-width="1px" opacity="0.25"></line><line x1="0" y1="133.5" x2="280" y2="133.5" fill="rgb(0, 0, 0)" stroke="rgb(60, 60, 60)" stroke-width="1px" opacity="0.25"></line><line x1="0" y1="111.25" x2="280" y2="111.25" fill="rgb(0, 0, 0)" stroke="rgb(60, 60, 60)" stroke-width="1px" opacity="0.25"></line><line x1="0" y1="89.00000000000001" x2="280" y2="89.00000000000001" fill="rgb(0, 0, 0)" stroke="rgb(60, 60, 60)" stroke-width="1px" opacity="0.25"></line><line x1="0" y1="66.75" x2="280" y2="66.75" fill="rgb(0, 0, 0)" stroke="rgb(60, 60, 60)" stroke-width="1px" opacity="0.25"></line><line x1="0" y1="44.49999999999998" x2="280" y2="44.49999999999998" fill="rgb(0, 0, 0)" stroke="rgb(60, 60, 60)" stroke-width="1px" opacity="0.25"></line><line x1="0" y1="22.25000000000002" x2="280" y2="22.25000000000002" fill="rgb(0, 0, 0)" stroke="rgb(60, 60, 60)" stroke-width="1px" opacity="0.25"></line><line x1="0" y1="0" x2="280" y2="0" fill="rgb(0, 0, 0)" stroke="rgb(60, 60, 60)" stroke-width="1px" opacity="0.25"></line></g></g></g><g><g><line x1="0" y1="400.5" x2="280" y2="400.5" fill="rgb(0, 0, 0)" stroke="rgb(153, 153, 153)" stroke-width="1.5px"></line></g></g><g><g><line x1="23.333333333333332" y1="0" x2="23.333333333333332" y2="178" fill="rgb(0, 0, 0)" stroke="rgb(153, 153, 153)" stroke-width="1.5px"></line></g></g><g><g><g><g><g><path stroke="rgb(0, 153, 136)" stroke-width="2px" d="M23.333333333333332,134.29778027534485L28,133.359226167202L32.666666666666664,132.9192714691162L37.333333333333336,131.48206490278244L42,131.5260683298111L46.666666666666664,132.6846130490303L51.33333333333333,132.61130052804947L56,132.12734240293503L60.66666666666667,134.2537768483162L65.33333333333333,135.55899965763092L70,132.58196491003036L74.66666666666667,133.71117401123047L79.33333333333333,133.79918086528778L84,134.9870612025261L88.66666666666666,135.66164779663086L93.33333333333333,135.00170248746872L98,132.5086258649826L102.66666666666666,135.92561531066895L107.33333333333334,136.61486971378326L112,134.35645151138306L116.66666666666667,136.83486032485962L121.33333333333334,137.11349564790726L126,134.8110740184784L130.66666666666666,135.28036433458328L135.33333333333334,134.64975464344025L140,135.45632499456406L144.66666666666669,136.36557000875473L149.33333333333334,135.9989543557167L154,137.01084750890732L158.66666666666666,137.64145720005035L163.33333333333334,135.06037372350693L168,137.02551531791687L172.66666666666669,135.30967342853546L177.33333333333331,135.52966403961182L182,135.33900904655457L186.66666666666666,136.24825406074524L191.33333333333334,134.85505092144012L196,136.46821814775467L200.66666666666666,136.96684408187866L205.33333333333331,136.13093811273575L210,137.84675347805023L214.66666666666669,135.80829936265945L219.33333333333334,137.7734409570694L224,136.71754437685013L228.66666666666666,135.7642959356308L233.33333333333334,136.16027373075485L238,135.92561531066895L242.66666666666669,136.73221218585968L247.33333333333331,136.54155719280243L252,135.77896374464035" style="fill: none;" fill="none"></path></g><g><path stroke="rgb(51, 187, 238)" stroke-width="2px" d="M23.333333333333332,126.70123445987701L28,114.95441484451294L32.666666666666664,109.58697813749313L37.333333333333336,106.68325591087341L42,105.05542087554932L46.666666666666664,104.86479240655899L51.33333333333333,104.46881461143494L56,103.97021520137787L60.66666666666667,104.0435277223587L65.33333333333333,103.89687615633011L70,103.2369573712349L74.66666666666667,104.32216304540634L79.33333333333333,104.17551147937775L84,104.0435277223587L88.66666666666666,104.65946960449219L93.33333333333333,105.40739524364471L98,104.77678555250168L102.66666666666666,104.92343711853027L107.33333333333334,105.39272743463516L112,106.25796902179718L116.66666666666667,106.03800493478775L121.33333333333334,106.46329182386398L126,106.38995277881622L130.66666666666666,106.63927900791168L135.33333333333334,106.85924309492111L140,107.62183654308319L144.66666666666669,107.4751849770546L149.33333333333334,107.88580405712128L154,108.56041717529297L158.66666666666666,108.14977157115936L163.33333333333334,109.24967157840729L168,108.97103625535965L172.66666666666669,108.9857040643692L177.33333333333331,109.39632314443588L182,109.76293879747391L186.66666666666666,110.77485847473145L191.33333333333334,110.20289349555969L196,110.83350318670273L200.66666666666666,110.73085504770279L205.33333333333331,110.6428747177124L210,111.7427482008934L214.66666666666669,111.37613254785538L219.33333333333334,111.7427482008934L224,112.2413741350174L228.66666666666666,111.90406757593155L233.33333333333334,112.68132883310318L238,112.30001884698868L242.66666666666669,112.59332197904587L247.33333333333331,112.82798039913177L252,112.81331259012222" style="fill: none;" fill="none"></path></g><g><path stroke="rgb(0, 119, 187)" stroke-width="2px" d="M23.333333333333332,196.1554850935936L28,164.91867500543594L32.666666666666664,151.104065656662L37.333333333333336,142.56893920898438L42,136.96684408187866L46.666666666666664,132.46464896202087L51.33333333333333,128.8863401412964L56,126.11462819576263L60.66666666666667,123.7095319032669L65.33333333333333,121.67107778787613L70,119.2953171133995L74.66666666666667,117.59414303302765L79.33333333333333,116.06898266077042L84,114.61713480949402L88.66666666666666,113.79587012529373L93.33333333333333,112.84264820814133L98,112.35869008302689L102.66666666666666,111.27345788478851L107.33333333333334,110.62820690870285L112,109.74829751253128L116.66666666666667,109.26433938741684L121.33333333333334,109.05901658535004L126,108.23777842521667L130.66666666666666,107.59250092506409L135.33333333333334,107.38720464706421L140,107.04989808797836L144.66666666666669,106.75659495592117L149.33333333333334,106.1699886918068L154,105.86201775074005L158.66666666666666,105.42206305265427L163.33333333333334,105.15809553861618L168,104.77678555250168L172.66666666666669,104.52748584747314L177.33333333333331,104.35149866342545L182,103.867540538311L186.66666666666666,103.73555678129196L191.33333333333334,103.2369573712349L196,103.32493770122528L200.66666666666666,103.0903058052063L205.33333333333331,102.44502830505371L210,102.50369954109192L214.66666666666669,102.21039640903473L219.33333333333334,101.84375423192978L224,101.74110609292984L228.66666666666666,101.47713857889175L233.33333333333334,101.35979610681534L238,101.4918063879013L242.66666666666669,100.96384483575821L247.33333333333331,101.00784826278687L252,101.0811607837677" style="fill: none;" fill="none"></path></g><g><path stroke="rgb(238, 51, 119)" stroke-width="2px" d="M23.333333333333332,161.20291846990585L28,120.40367829799652L32.666666666666664,108.68919152021408L37.333333333333336,100.66536951065063L42,95.65208214521408L46.666666666666664,90.81512677669525L51.33333333333333,88.16362190246582L56,84.45401895046234L60.66666666666667,83.15659421682358L65.33333333333333,81.26086610555649L70,78.00474512577057L74.66666666666667,76.92147570848465L79.33333333333333,75.63033717870712L84,73.89836865663528L88.66666666666666,71.22166591882706L93.33333333333333,71.71920436620712L98,70.45960295200348L102.66666666666666,69.59046232700348L107.33333333333334,68.13559073209763L112,68.64572811126709L116.66666666666667,66.97044152021408L121.33333333333334,66.91375958919525L126,66.42250734567642L130.66666666666666,65.55965292453766L135.33333333333334,65.01800495386124L140,63.39940029382706L144.66666666666669,63.569446086883545L149.33333333333334,61.75559777021408L154,61.629634976387024L158.66666666666666,60.65972942113876L163.33333333333334,61.9823254942894L168,61.22026252746582L172.66666666666669,59.16077482700348L177.33333333333331,59.29302382469177L182,60.39520490169525L186.66666666666666,59.63942813873291L191.33333333333334,59.456783413887024L196,58.01451075077057L200.66666666666666,58.253837406635284L205.33333333333331,57.265020191669464L210,57.271332919597626L214.66666666666669,57.328014850616455L219.33333333333334,56.64780515432358L224,57.164255261421204L228.66666666666666,57.18316692113876L233.33333333333334,55.72198259830475L238,55.78497725725174L242.66666666666669,56.20694863796234L247.33333333333331,55.91722625494003L252,55.77866452932358" style="fill: none;" fill="none"></path></g><g><path stroke="rgb(204, 51, 17)" stroke-width="2px" d="M23.333333333333332,165.53602266311646L28,115.00618982315063L32.666666666666664,100.11743533611298L37.333333333333336,90.01526701450348L42,82.33784931898117L46.666666666666664,77.51977908611298L51.33333333333333,72.56317365169525L56,68.0411120057106L60.66666666666667,64.95503681898117L65.33333333333333,62.84515339136124L70,59.65202707052231L74.66666666666667,57.428779780864716L79.33333333333333,54.42458438873291L84,52.28321689367294L88.66666666666666,51.68488699197769L93.33333333333333,50.211130261421204L98,48.62400966882706L102.66666666666666,46.90461355447769L107.33333333333334,44.99000030755997L112,44.36647254228592L116.66666666666667,43.258005261421204L121.33333333333334,42.8360338807106L126,41.784248530864716L130.66666666666666,40.23492473363876L135.33333333333334,39.47283524274826L140,38.61000734567642L144.66666666666669,38.13764023780823L149.33333333333334,37.76603806018829L154,36.44975471496582L158.66666666666666,35.989986538887024L163.33333333333334,35.423140704631805L168,34.950800120830536L172.66666666666669,34.176111698150635L177.33333333333331,33.94309777021408L182,34.08794569969177L186.66666666666666,33.206206142902374L191.33333333333334,32.066254794597626L196,31.94029200077057L200.66666666666666,31.619085550308228L205.33333333333331,30.718460857868195L210,30.812913060188293L214.66666666666669,30.84442365169525L219.33333333333334,30.170526683330536L224,30.220895886421204L228.66666666666666,29.93120002746582L233.33333333333334,28.879414677619934L238,29.137626469135284L242.66666666666669,28.545609295368195L247.33333333333331,28.205491185188293L252,27.68275487422943" style="fill: none;" fill="none"></path></g><g><path stroke="rgb(255, 112, 67)" stroke-width="2px" d="M23.333333333333332,267.7608110308647L28,177.5150339603424L32.666666666666664,156.0195587873459L37.333333333333336,144.03423476219177L42,136.3316457271576L46.666666666666664,129.74381017684937L51.33333333333333,124.93833887577057L56,120.85716027021408L60.66666666666667,116.81375193595886L65.33333333333333,113.17345637083054L70,110.78644949197769L74.66666666666667,107.54292744398117L79.33333333333333,105.39527374505997L84,103.58139890432358L88.66666666666666,100.58351624011993L93.33333333333333,98.96488505601883L98,97.65488791465759L102.66666666666666,95.14823096990585L107.33333333333334,94.49953186511993L112,92.65417295694351L116.66666666666667,91.33786308765411L121.33333333333334,89.7570286989212L126,87.92426872253418L130.66666666666666,87.50229734182358L135.33333333333334,85.99077033996582L140,84.6996318101883L144.66666666666669,84.30285829305649L149.33333333333334,83.33295273780823L154,83.15659421682358L158.66666666666666,80.54288613796234L163.33333333333334,80.30984568595886L168,78.74792295694351L172.66666666666669,77.99843239784241L177.33333333333331,77.29936408996582L182,76.58767032623291L186.66666666666666,76.32943201065063L191.33333333333334,74.54078155755997L196,74.09361231327057L200.66666666666666,73.61495900154114L205.33333333333331,73.12999296188354L210,72.0970927476883L214.66666666666669,71.5050755739212L219.33333333333334,71.40431064367294L224,70.22027629613876L228.66666666666666,69.02992922067642L233.33333333333334,69.07401221990585L238,68.05999714136124L242.66666666666669,67.78290021419525L247.33333333333331,67.49317783117294L252,66.8822489976883" style="fill: none;" fill="none"></path></g></g></g></g></g></g><g transform="translate(50, 178)" clip-path="url(#clip_1)"><clipPath id="clip_1"><rect width="280" height="22"></rect></clipPath><g><g><line x1="0" y1="0" x2="0" y2="5" style="visibility: inherit;" fill="rgb(0, 0, 0)" stroke="rgb(204, 204, 204)" stroke-width="1px"></line><line x1="23.333333333333332" y1="0" x2="23.333333333333332" y2="5" style="visibility: inherit;" fill="rgb(0, 0, 0)" stroke="rgb(204, 204, 204)" stroke-width="1px"></line><line x1="46.666666666666664" y1="0" x2="46.666666666666664" y2="5" style="visibility: inherit;" fill="rgb(0, 0, 0)" stroke="rgb(204, 204, 204)" stroke-width="1px"></line><line x1="70" y1="0" x2="70" y2="5" style="visibility: inherit;" fill="rgb(0, 0, 0)" stroke="rgb(204, 204, 204)" stroke-width="1px"></line><line x1="93.33333333333333" y1="0" x2="93.33333333333333" y2="5" style="visibility: inherit;" fill="rgb(0, 0, 0)" stroke="rgb(204, 204, 204)" stroke-width="1px"></line><line x1="116.66666666666667" y1="0" x2="116.66666666666667" y2="5" style="visibility: inherit;" fill="rgb(0, 0, 0)" stroke="rgb(204, 204, 204)" stroke-width="1px"></line><line x1="140" y1="0" x2="140" y2="5" style="visibility: inherit;" fill="rgb(0, 0, 0)" stroke="rgb(204, 204, 204)" stroke-width="1px"></line><line x1="163.33333333333334" y1="0" x2="163.33333333333334" y2="5" style="visibility: inherit;" fill="rgb(0, 0, 0)" stroke="rgb(204, 204, 204)" stroke-width="1px"></line><line x1="186.66666666666666" y1="0" x2="186.66666666666666" y2="5" style="visibility: inherit;" fill="rgb(0, 0, 0)" stroke="rgb(204, 204, 204)" stroke-width="1px"></line><line x1="210" y1="0" x2="210" y2="5" style="visibility: inherit;" fill="rgb(0, 0, 0)" stroke="rgb(204, 204, 204)" stroke-width="1px"></line><line x1="233.33333333333334" y1="0" x2="233.33333333333334" y2="5" style="visibility: inherit;" fill="rgb(0, 0, 0)" stroke="rgb(204, 204, 204)" stroke-width="1px"></line><line x1="256.66666666666663" y1="0" x2="256.66666666666663" y2="5" style="visibility: inherit;" fill="rgb(0, 0, 0)" stroke="rgb(204, 204, 204)" stroke-width="1px"></line><line x1="280" y1="0" x2="280" y2="5" style="visibility: inherit;" fill="rgb(0, 0, 0)" stroke="rgb(204, 204, 204)" stroke-width="1px"></line></g><g transform="translate(0, 8)"><text x="0" y="0" dx="0em" dy="0.95em" style="text-anchor: middle; visibility: hidden; font-family: Roboto, sans-serif; font-size: 12px; font-weight: 200;" fill="rgb(50, 49, 63)" stroke="none" stroke-width="1px">-5</text><text x="23.333333333333332" y="0" dx="0em" dy="0.95em" style="text-anchor: middle; visibility: inherit; font-family: Roboto, sans-serif; font-size: 12px; font-weight: 200;" fill="rgb(50, 49, 63)" stroke="none" stroke-width="1px">0</text><text x="46.666666666666664" y="0" dx="0em" dy="0.95em" style="text-anchor: middle; visibility: inherit; font-family: Roboto, sans-serif; font-size: 12px; font-weight: 200;" fill="rgb(50, 49, 63)" stroke="none" stroke-width="1px">5</text><text x="70" y="0" dx="0em" dy="0.95em" style="text-anchor: middle; visibility: inherit; font-family: Roboto, sans-serif; font-size: 12px; font-weight: 200;" fill="rgb(50, 49, 63)" stroke="none" stroke-width="1px">10</text><text x="93.33333333333333" y="0" dx="0em" dy="0.95em" style="text-anchor: middle; visibility: inherit; font-family: Roboto, sans-serif; font-size: 12px; font-weight: 200;" fill="rgb(50, 49, 63)" stroke="none" stroke-width="1px">15</text><text x="116.66666666666667" y="0" dx="0em" dy="0.95em" style="text-anchor: middle; visibility: inherit; font-family: Roboto, sans-serif; font-size: 12px; font-weight: 200;" fill="rgb(50, 49, 63)" stroke="none" stroke-width="1px">20</text><text x="140" y="0" dx="0em" dy="0.95em" style="text-anchor: middle; visibility: inherit; font-family: Roboto, sans-serif; font-size: 12px; font-weight: 200;" fill="rgb(50, 49, 63)" stroke="none" stroke-width="1px">25</text><text x="163.33333333333334" y="0" dx="0em" dy="0.95em" style="text-anchor: middle; visibility: inherit; font-family: Roboto, sans-serif; font-size: 12px; font-weight: 200;" fill="rgb(50, 49, 63)" stroke="none" stroke-width="1px">30</text><text x="186.66666666666666" y="0" dx="0em" dy="0.95em" style="text-anchor: middle; visibility: inherit; font-family: Roboto, sans-serif; font-size: 12px; font-weight: 200;" fill="rgb(50, 49, 63)" stroke="none" stroke-width="1px">35</text><text x="210" y="0" dx="0em" dy="0.95em" style="text-anchor: middle; visibility: inherit; font-family: Roboto, sans-serif; font-size: 12px; font-weight: 200;" fill="rgb(50, 49, 63)" stroke="none" stroke-width="1px">40</text><text x="233.33333333333334" y="0" dx="0em" dy="0.95em" style="text-anchor: middle; visibility: inherit; font-family: Roboto, sans-serif; font-size: 12px; font-weight: 200;" fill="rgb(50, 49, 63)" stroke="none" stroke-width="1px">45</text><text x="256.66666666666663" y="0" dx="0em" dy="0.95em" style="text-anchor: middle; visibility: inherit; font-family: Roboto, sans-serif; font-size: 12px; font-weight: 200;" fill="rgb(50, 49, 63)" stroke="none" stroke-width="1px">50</text><text x="280" y="0" dx="0em" dy="0.95em" style="text-anchor: middle; visibility: hidden; font-family: Roboto, sans-serif; font-size: 12px; font-weight: 200;" fill="rgb(50, 49, 63)" stroke="none" stroke-width="1px">55</text></g><line x1="0" y1="0" x2="280" y2="0" fill="rgb(0, 0, 0)" stroke="rgb(204, 204, 204)" stroke-width="1px"></line></g></g></g></g></svg>