<svg viewBox="0 0 732.2000122070312 400" xmlns="http://www.w3.org/2000/svg"><g><g><g><g><g><line x1="50" y1="378" x2="45" y2="378" style="visibility: inherit;" fill="rgb(0, 0, 0)" stroke="rgb(204, 204, 204)" stroke-width="1px"></line><line x1="50" y1="343.6363636363636" x2="45" y2="343.6363636363636" style="visibility: inherit;" fill="rgb(0, 0, 0)" stroke="rgb(204, 204, 204)" stroke-width="1px"></line><line x1="50" y1="309.27272727272725" x2="45" y2="309.27272727272725" style="visibility: inherit;" fill="rgb(0, 0, 0)" stroke="rgb(204, 204, 204)" stroke-width="1px"></line><line x1="50" y1="274.90909090909093" x2="45" y2="274.90909090909093" style="visibility: inherit;" fill="rgb(0, 0, 0)" stroke="rgb(204, 204, 204)" stroke-width="1px"></line><line x1="50" y1="240.54545454545453" x2="45" y2="240.54545454545453" style="visibility: inherit;" fill="rgb(0, 0, 0)" stroke="rgb(204, 204, 204)" stroke-width="1px"></line><line x1="50" y1="206.18181818181816" x2="45" y2="206.18181818181816" style="visibility: inherit;" fill="rgb(0, 0, 0)" stroke="rgb(204, 204, 204)" stroke-width="1px"></line><line x1="50" y1="171.81818181818184" x2="45" y2="171.81818181818184" style="visibility: inherit;" fill="rgb(0, 0, 0)" stroke="rgb(204, 204, 204)" stroke-width="1px"></line><line x1="50" y1="137.45454545454547" x2="45" y2="137.45454545454547" style="visibility: inherit;" fill="rgb(0, 0, 0)" stroke="rgb(204, 204, 204)" stroke-width="1px"></line><line x1="50" y1="103.09090909090908" x2="45" y2="103.09090909090908" style="visibility: inherit;" fill="rgb(0, 0, 0)" stroke="rgb(204, 204, 204)" stroke-width="1px"></line><line x1="50" y1="68.7272727272727" x2="45" y2="68.7272727272727" style="visibility: inherit;" fill="rgb(0, 0, 0)" stroke="rgb(204, 204, 204)" stroke-width="1px"></line><line x1="50" y1="34.363636363636374" x2="45" y2="34.363636363636374" style="visibility: inherit;" fill="rgb(0, 0, 0)" stroke="rgb(204, 204, 204)" stroke-width="1px"></line><line x1="50" y1="0" x2="45" y2="0" style="visibility: inherit;" fill="rgb(0, 0, 0)" stroke="rgb(204, 204, 204)" stroke-width="1px"></line></g><g transform="translate(40, 0)"><text x="0" y="378" dx="0em" dy="0.3em" style="text-anchor: end; visibility: hidden; font-family: Roboto, sans-serif; font-size: 12px; font-weight: 200;" fill="rgb(50, 49, 63)" stroke="none" stroke-width="1px">-0.5</text><text x="0" y="343.6363636363636" dx="0em" dy="0.3em" style="text-anchor: end; visibility: inherit; font-family: Roboto, sans-serif; font-size: 12px; font-weight: 200;" fill="rgb(50, 49, 63)" stroke="none" stroke-width="1px">0</text><text x="0" y="309.27272727272725" dx="0em" dy="0.3em" style="text-anchor: end; visibility: inherit; font-family: Roboto, sans-serif; font-size: 12px; font-weight: 200;" fill="rgb(50, 49, 63)" stroke="none" stroke-width="1px">0.5</text><text x="0" y="274.90909090909093" dx="0em" dy="0.3em" style="text-anchor: end; visibility: inherit; font-family: Roboto, sans-serif; font-size: 12px; font-weight: 200;" fill="rgb(50, 49, 63)" stroke="none" stroke-width="1px">1</text><text x="0" y="240.54545454545453" dx="0em" dy="0.3em" style="text-anchor: end; visibility: inherit; font-family: Roboto, sans-serif; font-size: 12px; font-weight: 200;" fill="rgb(50, 49, 63)" stroke="none" stroke-width="1px">1.5</text><text x="0" y="206.18181818181816" dx="0em" dy="0.3em" style="text-anchor: end; visibility: inherit; font-family: Roboto, sans-serif; font-size: 12px; font-weight: 200;" fill="rgb(50, 49, 63)" stroke="none" stroke-width="1px">2</text><text x="0" y="171.81818181818184" dx="0em" dy="0.3em" style="text-anchor: end; visibility: inherit; font-family: Roboto, sans-serif; font-size: 12px; font-weight: 200;" fill="rgb(50, 49, 63)" stroke="none" stroke-width="1px">2.5</text><text x="0" y="137.45454545454547" dx="0em" dy="0.3em" style="text-anchor: end; visibility: inherit; font-family: Roboto, sans-serif; font-size: 12px; font-weight: 200;" fill="rgb(50, 49, 63)" stroke="none" stroke-width="1px">3</text><text x="0" y="103.09090909090908" dx="0em" dy="0.3em" style="text-anchor: end; visibility: inherit; font-family: Roboto, sans-serif; font-size: 12px; font-weight: 200;" fill="rgb(50, 49, 63)" stroke="none" stroke-width="1px">3.5</text><text x="0" y="68.7272727272727" dx="0em" dy="0.3em" style="text-anchor: end; visibility: inherit; font-family: Roboto, sans-serif; font-size: 12px; font-weight: 200;" fill="rgb(50, 49, 63)" stroke="none" stroke-width="1px">4</text><text x="0" y="34.363636363636374" dx="0em" dy="0.3em" style="text-anchor: end; visibility: inherit; font-family: Roboto, sans-serif; font-size: 12px; font-weight: 200;" fill="rgb(50, 49, 63)" stroke="none" stroke-width="1px">4.5</text><text x="0" y="0" dx="0em" dy="0.3em" style="text-anchor: end; visibility: hidden; font-family: Roboto, sans-serif; font-size: 12px; font-weight: 200;" fill="rgb(50, 49, 63)" stroke="none" stroke-width="1px">5</text></g><line x1="50" y1="0" x2="50" y2="378" fill="rgb(0, 0, 0)" stroke="rgb(204, 204, 204)" stroke-width="1px"></line></g></g><g transform="translate(50, 0)" clip-path="url(#clip_0)"><clipPath id="clip_0"><rect width="682" height="378"></rect></clipPath><g><g><g><line x1="0" y1="0" x2="0" y2="378" fill="rgb(0, 0, 0)" stroke="rgb(60, 60, 60)" stroke-width="1px" opacity="0.25"></line><line x1="56.85" y1="0" x2="56.85" y2="378" fill="rgb(0, 0, 0)" stroke="rgb(60, 60, 60)" stroke-width="1px" opacity="0.25"></line><line x1="113.7" y1="0" x2="113.7" y2="378" fill="rgb(0, 0, 0)" stroke="rgb(60, 60, 60)" stroke-width="1px" opacity="0.25"></line><line x1="170.55" y1="0" x2="170.55" y2="378" fill="rgb(0, 0, 0)" stroke="rgb(60, 60, 60)" stroke-width="1px" opacity="0.25"></line><line x1="227.4" y1="0" x2="227.4" y2="378" fill="rgb(0, 0, 0)" stroke="rgb(60, 60, 60)" stroke-width="1px" opacity="0.25"></line><line x1="284.25000000000006" y1="0" x2="284.25000000000006" y2="378" fill="rgb(0, 0, 0)" stroke="rgb(60, 60, 60)" stroke-width="1px" opacity="0.25"></line><line x1="341.1" y1="0" x2="341.1" y2="378" fill="rgb(0, 0, 0)" stroke="rgb(60, 60, 60)" stroke-width="1px" opacity="0.25"></line><line x1="397.95000000000005" y1="0" x2="397.95000000000005" y2="378" fill="rgb(0, 0, 0)" stroke="rgb(60, 60, 60)" stroke-width="1px" opacity="0.25"></line><line x1="454.8" y1="0" x2="454.8" y2="378" fill="rgb(0, 0, 0)" stroke="rgb(60, 60, 60)" stroke-width="1px" opacity="0.25"></line><line x1="511.65000000000003" y1="0" x2="511.65000000000003" y2="378" fill="rgb(0, 0, 0)" stroke="rgb(60, 60, 60)" stroke-width="1px" opacity="0.25"></line><line x1="568.5000000000001" y1="0" x2="568.5000000000001" y2="378" fill="rgb(0, 0, 0)" stroke="rgb(60, 60, 60)" stroke-width="1px" opacity="0.25"></line><line x1="625.35" y1="0" x2="625.35" y2="378" fill="rgb(0, 0, 0)" stroke="rgb(60, 60, 60)" stroke-width="1px" opacity="0.25"></line><line x1="682.2" y1="0" x2="682.2" y2="378" fill="rgb(0, 0, 0)" stroke="rgb(60, 60, 60)" stroke-width="1px" opacity="0.25"></line></g><g><line x1="0" y1="378" x2="682.2" y2="378" fill="rgb(0, 0, 0)" stroke="rgb(60, 60, 60)" stroke-width="1px" opacity="0.25"></line><line x1="0" y1="343.6363636363636" x2="682.2" y2="343.6363636363636" fill="rgb(0, 0, 0)" stroke="rgb(60, 60, 60)" stroke-width="1px" opacity="0.25"></line><line x1="0" y1="309.27272727272725" x2="682.2" y2="309.27272727272725" fill="rgb(0, 0, 0)" stroke="rgb(60, 60, 60)" stroke-width="1px" opacity="0.25"></line><line x1="0" y1="274.90909090909093" x2="682.2" y2="274.90909090909093" fill="rgb(0, 0, 0)" stroke="rgb(60, 60, 60)" stroke-width="1px" opacity="0.25"></line><line x1="0" y1="240.54545454545453" x2="682.2" y2="240.54545454545453" fill="rgb(0, 0, 0)" stroke="rgb(60, 60, 60)" stroke-width="1px" opacity="0.25"></line><line x1="0" y1="206.18181818181816" x2="682.2" y2="206.18181818181816" fill="rgb(0, 0, 0)" stroke="rgb(60, 60, 60)" stroke-width="1px" opacity="0.25"></line><line x1="0" y1="171.81818181818184" x2="682.2" y2="171.81818181818184" fill="rgb(0, 0, 0)" stroke="rgb(60, 60, 60)" stroke-width="1px" opacity="0.25"></line><line x1="0" y1="137.45454545454547" x2="682.2" y2="137.45454545454547" fill="rgb(0, 0, 0)" stroke="rgb(60, 60, 60)" stroke-width="1px" opacity="0.25"></line><line x1="0" y1="103.09090909090908" x2="682.2" y2="103.09090909090908" fill="rgb(0, 0, 0)" stroke="rgb(60, 60, 60)" stroke-width="1px" opacity="0.25"></line><line x1="0" y1="68.7272727272727" x2="682.2" y2="68.7272727272727" fill="rgb(0, 0, 0)" stroke="rgb(60, 60, 60)" stroke-width="1px" opacity="0.25"></line><line x1="0" y1="34.363636363636374" x2="682.2" y2="34.363636363636374" fill="rgb(0, 0, 0)" stroke="rgb(60, 60, 60)" stroke-width="1px" opacity="0.25"></line><line x1="0" y1="0" x2="682.2" y2="0" fill="rgb(0, 0, 0)" stroke="rgb(60, 60, 60)" stroke-width="1px" opacity="0.25"></line></g></g></g><g><g><line x1="0" y1="343.6363636363636" x2="682.2" y2="343.6363636363636" fill="rgb(0, 0, 0)" stroke="rgb(153, 153, 153)" stroke-width="1.5px"></line></g></g><g><g><line x1="56.85" y1="0" x2="56.85" y2="378" fill="rgb(0, 0, 0)" stroke="rgb(153, 153, 153)" stroke-width="1.5px"></line></g></g><g><g><g><g><g><path stroke="rgb(51, 187, 238)" stroke-width="2px" d="M56.85,218.73613058437L68.22000000000001,211.0611254518682L79.59,201.58281560377642L90.96000000000001,196.92357860911974L102.33,185.79849815368652L113.7,180.9557886990634L125.07,177.2035745273937L136.44000000000003,169.17045645280317L147.81,162.9986736124212L159.18,155.25443822687325L170.55,151.8793282075362L181.92000000000002,147.31855383786288L193.29000000000002,142.16434920917857L204.66,139.09421279213646L216.03,137.11632494492963L227.4,131.18887164376L238.77,126.91929036920722L250.14,124.86979631944136L261.51000000000005,120.88867170160468L272.88000000000005,117.21940274672075L284.25000000000006,115.18599961020728L295.62,108.7569915598089L306.99,107.3106445832686L318.36,102.09984319860284L329.73,102.82513046264648L341.1,97.44050788879395L352.4700000000001,98.75498147444291L363.84000000000003,90.81994915008545L375.21000000000004,86.52228251370518L386.58000000000004,87.73863757740367L397.95000000000005,80.6980109648271L409.32,82.65318801186304L420.69000000000005,77.98713449998336L432.06,74.3220767107877L443.43000000000006,75.02942145954478L454.8,72.53195441852915L466.17,73.38572320071133L477.54,70.23265795274214L488.91,65.87282336841929L500.28,62.82426712729712L511.65000000000003,61.50999017195269L523.0200000000001,58.27545443448154L534.39,55.467082110318266L545.7600000000001,52.135378230701804L557.13,51.16359849409624L568.5000000000001,52.165528210726656L579.87,44.37798500061035L591.24,42.50026390769263L602.61,44.82518785650078L613.98,45.11144880814985" style="fill: none;" fill="none"></path></g><g><path stroke="rgb(0, 119, 187)" stroke-width="2px" d="M56.85,242.2740970958363L68.22000000000001,251.10088881579313L79.59,254.6621503829956L90.96000000000001,256.4154700365934L102.33,257.3868483196605L113.7,257.90699282559484L125.07,258.14709481326014L136.44000000000003,258.20431423187256L147.81,258.1973502419212L159.18,257.9264182610945L170.55,257.6693814884532L181.92000000000002,257.1862608302724L193.29000000000002,256.8431491418318L204.66,256.6512215787714L216.03,256.1835036277771L227.4,255.4912748336792L238.77,254.9942589673129L250.14,254.78687953948975L261.51000000000005,254.2107363614169L272.88000000000005,253.70934547077528L284.25000000000006,253.01458506150678L295.62,252.46753497557208L306.99,252.21649542721835L318.36,251.69400774348864L329.73,251.27543098276314L341.1,250.74306262623182L352.4700000000001,250.37302077900281L363.84000000000003,249.81663075360385L375.21000000000004,249.30721898512408L386.58000000000004,248.8244997804815L397.95000000000005,248.37306118011475L409.32,247.70749217813668L420.69000000000005,247.46867648037997L432.06,246.98166418075562L443.43000000000006,246.4121736613187L454.8,246.1045619357716L466.17,245.5963627208363L477.54,245.0017444870689L488.91,244.3601971539584L500.28,244.24697087027812L511.65000000000003,243.9510832266374L523.0200000000001,243.23363659598613L534.39,242.8815618428317L545.7600000000001,242.5612346909263L557.13,242.05508370832965L568.5000000000001,241.60732373324308L579.87,241.21870851516724L591.24,240.39443427866158L602.61,240.36230160973287L613.98,239.74922470612958" style="fill: none;" fill="none"></path></g><g><path stroke="rgb(0, 153, 136)" stroke-width="2px" d="M56.85,161.09455490112305L68.22000000000001,199.64817003770307L79.59,216.05263488942924L90.96000000000001,225.18421177430585L102.33,231.09973617033526L113.7,235.30900109897962L125.07,238.48839022896505L136.44000000000003,240.99318994175306L147.81,243.04895158247515L159.18,244.7514013377103L170.55,246.18876886367798L181.92000000000002,247.450053951957L193.29000000000002,248.54022151773628L204.66,249.50550426136365L216.03,250.36430350216952L227.4,251.13229231400922L238.77,251.81173194538465L250.14,252.43440276926216L261.51000000000005,253.01488000696358L272.88000000000005,253.54238176345825L284.25000000000006,254.01620344682172L295.62,254.4527800733393L306.99,254.8519887490706L318.36,255.22026911648837L329.73,255.57507211511788L341.1,255.8855104012923L352.4700000000001,256.18947627327657L363.84000000000003,256.46956794912165L375.21000000000004,256.7495367310264L386.58000000000004,256.9869104732167L397.95000000000005,257.2215395840731L409.32,257.4103210622614L420.69000000000005,257.59702972932297L432.06,257.7751522064209L443.43000000000006,257.9534795067527L454.8,258.1306188323281L466.17,258.2966485456987L477.54,258.42216422341085L488.91,258.5665973750028L500.28,258.67922557484025L511.65000000000003,258.8022178303111L523.0200000000001,258.9344762888822L534.39,259.0396571159363L545.7600000000001,259.1561114137823L557.13,259.2336329113353L568.5000000000001,259.32482021505183L579.87,259.43271290172225L591.24,259.50044384869665L602.61,259.5844295675104L613.98,259.6175290021029" style="fill: none;" fill="none"></path></g><g><path stroke="rgb(204, 51, 17)" stroke-width="2px" d="M56.85,206.08619031039152L68.22000000000001,234.88847442106768L79.59,243.2271805676547L90.96000000000001,248.76763265783134L102.33,251.36302978342232L113.7,254.5055589242415L125.07,257.03405258872294L136.44000000000003,258.77523851394653L147.81,259.10597068613225L159.18,260.123827457428L170.55,261.7018430016258L181.92000000000002,262.08528848127884L193.29000000000002,262.81444280797785L204.66,264.17779541015625L216.03,264.23281912370163L227.4,265.3544393452731L238.77,264.64010602777654L250.14,266.054500579834L261.51000000000005,266.06428293748337L272.88000000000005,266.4063541238958L284.25000000000006,267.03818464279175L295.62,267.1397687738592L306.99,266.77989435195923L318.36,267.0224378325722L329.73,267.3353421904824L341.1,268.0578848231923L352.4700000000001,266.9911326495084L363.84000000000003,266.9711419018832L375.21000000000004,268.03429737958044L386.58000000000004,268.1382820389488L397.95000000000005,268.47467552531845L409.32,268.55098446932703L420.69000000000005,268.3719525770708L432.06,268.3085720755837L443.43000000000006,268.0696990273216L454.8,269.64819795435125L466.17,268.75130978497594L477.54,268.7953549731862L488.91,268.40900919654155L500.28,268.68638081984085L511.65000000000003,269.05146594481033L523.0200000000001,268.2890892895785L534.39,269.9717695062811L545.7600000000001,269.4427602507851L557.13,269.6847793839195L568.5000000000001,269.2394035512751L579.87,268.834885857322L591.24,269.60575858029455L602.61,269.2510866685347L613.98,268.7410686232827" style="fill: none;" fill="none"></path></g><g><path stroke="rgb(255, 112, 67)" stroke-width="2px" d="M56.85,209.5806876962835L68.22000000000001,250.18245324221525L79.59,260.31985148516566L90.96000000000001,266.54918146133423L102.33,271.01874394850296L113.7,274.5389917113564L125.07,277.54396566477686L136.44000000000003,280.04781499775976L147.81,282.07007984681564L159.18,284.00960020585495L170.55,285.7210457975214L181.92000000000002,287.1322287212719L193.29000000000002,288.6057393550873L204.66,289.81403257630086L216.03,290.90196347236633L227.4,291.9559264833277L238.77,292.8283751444383L250.14,293.68768234686416L261.51000000000005,294.4027407386086L272.88000000000005,295.0554181662473L284.25000000000006,295.85995973240244L295.62,296.35746717453003L306.99,296.9528760259802L318.36,297.6580496484583L329.73,298.2147960662842L341.1,298.594804612073L352.4700000000001,299.2384042739868L363.84000000000003,299.4540790427815L375.21000000000004,299.88139765912837L386.58000000000004,300.68144540353256L397.95000000000005,300.83756986531347L409.32,301.13134373318064L420.69000000000005,301.59008223360235L432.06,301.9184466492046L443.43000000000006,302.3856033845381L454.8,302.70729875564575L466.17,302.93072813207453L477.54,303.2060883912173L488.91,303.6116916483099L500.28,303.8949416984211L511.65000000000003,304.2273247458718L523.0200000000001,304.2933474670757L534.39,304.40612723610616L545.7600000000001,304.8082566911524L557.13,304.7913137132471L568.5000000000001,305.45249540155584L579.87,305.5104071226987L591.24,305.58436879244715L602.61,305.72378787127406L613.98,306.0582437298515" style="fill: none;" fill="none"></path></g><g><path stroke="rgb(238, 51, 119)" stroke-width="2px" d="M56.85,105.7530703978105L68.22000000000001,182.1580027666959L79.59,208.26282223788175L90.96000000000001,221.27235018123278L102.33,229.53993350809273L113.7,235.15658803419635L125.07,239.57174127752128L136.44000000000003,243.09859254143453L147.81,245.93205980821088L159.18,248.36090287295255L170.55,250.68448318134656L181.92000000000002,252.47283580086446L193.29000000000002,254.10415454344317L204.66,255.87103349512276L216.03,257.2756538824602L227.4,258.42351605675435L238.77,259.722316568548L250.14,260.79441872510046L261.51000000000005,261.88334096561783L272.88000000000005,262.9032869338989L284.25000000000006,263.84077106822616L295.62,264.7784846045754L306.99,265.55185617100113L318.36,266.3227698586204L329.73,267.1998229460283L341.1,267.87772230668503L352.4700000000001,268.43598851290614L363.84000000000003,269.09859167445785L375.21000000000004,269.6127799207514L386.58000000000004,270.4317942966115L397.95000000000005,271.1358946453441L409.32,271.70888354561544L420.69000000000005,272.203802022067L432.06,272.72766611792827L443.43000000000006,273.1388118917292L454.8,273.6459542187777L466.17,274.21542835235596L477.54,274.70058904994613L488.91,275.07874189723617L500.28,275.55927358974105L511.65000000000003,275.984421079809L523.0200000000001,276.33337842334396L534.39,276.7878197323192L545.7600000000001,277.33479198542506L557.13,277.60384778542954L568.5000000000001,278.0436688119715L579.87,278.2948845083063L591.24,278.7024253931913L602.61,279.03565231236547L613.98,279.38295878063553" style="fill: none;" fill="none"></path></g></g></g></g></g></g><g transform="translate(50, 378)" clip-path="url(#clip_1)"><clipPath id="clip_1"><rect width="682" height="22"></rect></clipPath><g><g><line x1="0" y1="0" x2="0" y2="5" style="visibility: inherit;" fill="rgb(0, 0, 0)" stroke="rgb(204, 204, 204)" stroke-width="1px"></line><line x1="56.85" y1="0" x2="56.85" y2="5" style="visibility: inherit;" fill="rgb(0, 0, 0)" stroke="rgb(204, 204, 204)" stroke-width="1px"></line><line x1="113.7" y1="0" x2="113.7" y2="5" style="visibility: inherit;" fill="rgb(0, 0, 0)" stroke="rgb(204, 204, 204)" stroke-width="1px"></line><line x1="170.55" y1="0" x2="170.55" y2="5" style="visibility: inherit;" fill="rgb(0, 0, 0)" stroke="rgb(204, 204, 204)" stroke-width="1px"></line><line x1="227.4" y1="0" x2="227.4" y2="5" style="visibility: inherit;" fill="rgb(0, 0, 0)" stroke="rgb(204, 204, 204)" stroke-width="1px"></line><line x1="284.25000000000006" y1="0" x2="284.25000000000006" y2="5" style="visibility: inherit;" fill="rgb(0, 0, 0)" stroke="rgb(204, 204, 204)" stroke-width="1px"></line><line x1="341.1" y1="0" x2="341.1" y2="5" style="visibility: inherit;" fill="rgb(0, 0, 0)" stroke="rgb(204, 204, 204)" stroke-width="1px"></line><line x1="397.95000000000005" y1="0" x2="397.95000000000005" y2="5" style="visibility: inherit;" fill="rgb(0, 0, 0)" stroke="rgb(204, 204, 204)" stroke-width="1px"></line><line x1="454.8" y1="0" x2="454.8" y2="5" style="visibility: inherit;" fill="rgb(0, 0, 0)" stroke="rgb(204, 204, 204)" stroke-width="1px"></line><line x1="511.65000000000003" y1="0" x2="511.65000000000003" y2="5" style="visibility: inherit;" fill="rgb(0, 0, 0)" stroke="rgb(204, 204, 204)" stroke-width="1px"></line><line x1="568.5000000000001" y1="0" x2="568.5000000000001" y2="5" style="visibility: inherit;" fill="rgb(0, 0, 0)" stroke="rgb(204, 204, 204)" stroke-width="1px"></line><line x1="625.35" y1="0" x2="625.35" y2="5" style="visibility: inherit;" fill="rgb(0, 0, 0)" stroke="rgb(204, 204, 204)" stroke-width="1px"></line><line x1="682.2" y1="0" x2="682.2" y2="5" style="visibility: inherit;" fill="rgb(0, 0, 0)" stroke="rgb(204, 204, 204)" stroke-width="1px"></line></g><g transform="translate(0, 8)"><text x="0" y="0" dx="0em" dy="0.95em" style="text-anchor: middle; visibility: hidden; font-family: Roboto, sans-serif; font-size: 12px; font-weight: 200;" fill="rgb(50, 49, 63)" stroke="none" stroke-width="1px">-5</text><text x="56.85" y="0" dx="0em" dy="0.95em" style="text-anchor: middle; visibility: inherit; font-family: Roboto, sans-serif; font-size: 12px; font-weight: 200;" fill="rgb(50, 49, 63)" stroke="none" stroke-width="1px">0</text><text x="113.7" y="0" dx="0em" dy="0.95em" style="text-anchor: middle; visibility: inherit; font-family: Roboto, sans-serif; font-size: 12px; font-weight: 200;" fill="rgb(50, 49, 63)" stroke="none" stroke-width="1px">5</text><text x="170.55" y="0" dx="0em" dy="0.95em" style="text-anchor: middle; visibility: inherit; font-family: Roboto, sans-serif; font-size: 12px; font-weight: 200;" fill="rgb(50, 49, 63)" stroke="none" stroke-width="1px">10</text><text x="227.4" y="0" dx="0em" dy="0.95em" style="text-anchor: middle; visibility: inherit; font-family: Roboto, sans-serif; font-size: 12px; font-weight: 200;" fill="rgb(50, 49, 63)" stroke="none" stroke-width="1px">15</text><text x="284.25000000000006" y="0" dx="0em" dy="0.95em" style="text-anchor: middle; visibility: inherit; font-family: Roboto, sans-serif; font-size: 12px; font-weight: 200;" fill="rgb(50, 49, 63)" stroke="none" stroke-width="1px">20</text><text x="341.1" y="0" dx="0em" dy="0.95em" style="text-anchor: middle; visibility: inherit; font-family: Roboto, sans-serif; font-size: 12px; font-weight: 200;" fill="rgb(50, 49, 63)" stroke="none" stroke-width="1px">25</text><text x="397.95000000000005" y="0" dx="0em" dy="0.95em" style="text-anchor: middle; visibility: inherit; font-family: Roboto, sans-serif; font-size: 12px; font-weight: 200;" fill="rgb(50, 49, 63)" stroke="none" stroke-width="1px">30</text><text x="454.8" y="0" dx="0em" dy="0.95em" style="text-anchor: middle; visibility: inherit; font-family: Roboto, sans-serif; font-size: 12px; font-weight: 200;" fill="rgb(50, 49, 63)" stroke="none" stroke-width="1px">35</text><text x="511.65000000000003" y="0" dx="0em" dy="0.95em" style="text-anchor: middle; visibility: inherit; font-family: Roboto, sans-serif; font-size: 12px; font-weight: 200;" fill="rgb(50, 49, 63)" stroke="none" stroke-width="1px">40</text><text x="568.5000000000001" y="0" dx="0em" dy="0.95em" style="text-anchor: middle; visibility: inherit; font-family: Roboto, sans-serif; font-size: 12px; font-weight: 200;" fill="rgb(50, 49, 63)" stroke="none" stroke-width="1px">45</text><text x="625.35" y="0" dx="0em" dy="0.95em" style="text-anchor: middle; visibility: inherit; font-family: Roboto, sans-serif; font-size: 12px; font-weight: 200;" fill="rgb(50, 49, 63)" stroke="none" stroke-width="1px">50</text><text x="682.2" y="0" dx="0em" dy="0.95em" style="text-anchor: middle; visibility: hidden; font-family: Roboto, sans-serif; font-size: 12px; font-weight: 200;" fill="rgb(50, 49, 63)" stroke="none" stroke-width="1px">55</text></g><line x1="0" y1="0" x2="682.2" y2="0" fill="rgb(0, 0, 0)" stroke="rgb(204, 204, 204)" stroke-width="1px"></line></g></g></g></g></svg>