<svg viewBox="0 0 330 200" xmlns="http://www.w3.org/2000/svg"><g><g><g><g><g><line x1="50" y1="178" x2="45" y2="178" style="visibility: inherit;" fill="rgb(0, 0, 0)" stroke="rgb(204, 204, 204)" stroke-width="1px"></line><line x1="50" y1="161.8181818181818" x2="45" y2="161.8181818181818" style="visibility: inherit;" fill="rgb(0, 0, 0)" stroke="rgb(204, 204, 204)" stroke-width="1px"></line><line x1="50" y1="145.63636363636363" x2="45" y2="145.63636363636363" style="visibility: inherit;" fill="rgb(0, 0, 0)" stroke="rgb(204, 204, 204)" stroke-width="1px"></line><line x1="50" y1="129.45454545454547" x2="45" y2="129.45454545454547" style="visibility: inherit;" fill="rgb(0, 0, 0)" stroke="rgb(204, 204, 204)" stroke-width="1px"></line><line x1="50" y1="113.27272727272727" x2="45" y2="113.27272727272727" style="visibility: inherit;" fill="rgb(0, 0, 0)" stroke="rgb(204, 204, 204)" stroke-width="1px"></line><line x1="50" y1="97.09090909090908" x2="45" y2="97.09090909090908" style="visibility: inherit;" fill="rgb(0, 0, 0)" stroke="rgb(204, 204, 204)" stroke-width="1px"></line><line x1="50" y1="80.90909090909092" x2="45" y2="80.90909090909092" style="visibility: inherit;" fill="rgb(0, 0, 0)" stroke="rgb(204, 204, 204)" stroke-width="1px"></line><line x1="50" y1="64.72727272727273" x2="45" y2="64.72727272727273" style="visibility: inherit;" fill="rgb(0, 0, 0)" stroke="rgb(204, 204, 204)" stroke-width="1px"></line><line x1="50" y1="48.54545454545454" x2="45" y2="48.54545454545454" style="visibility: inherit;" fill="rgb(0, 0, 0)" stroke="rgb(204, 204, 204)" stroke-width="1px"></line><line x1="50" y1="32.36363636363635" x2="45" y2="32.36363636363635" style="visibility: inherit;" fill="rgb(0, 0, 0)" stroke="rgb(204, 204, 204)" stroke-width="1px"></line><line x1="50" y1="16.181818181818187" x2="45" y2="16.181818181818187" style="visibility: inherit;" fill="rgb(0, 0, 0)" stroke="rgb(204, 204, 204)" stroke-width="1px"></line><line x1="50" y1="0" x2="45" y2="0" style="visibility: inherit;" fill="rgb(0, 0, 0)" stroke="rgb(204, 204, 204)" stroke-width="1px"></line></g><g transform="translate(40, 0)"><text x="0" y="178" dx="0em" dy="0.3em" style="text-anchor: end; visibility: hidden; font-family: Roboto, sans-serif; font-size: 12px; font-weight: 200;" fill="rgb(50, 49, 63)" stroke="none" stroke-width="1px">-0.5</text><text x="0" y="161.8181818181818" dx="0em" dy="0.3em" style="text-anchor: end; visibility: inherit; font-family: Roboto, sans-serif; font-size: 12px; font-weight: 200;" fill="rgb(50, 49, 63)" stroke="none" stroke-width="1px">0</text><text x="0" y="145.63636363636363" dx="0em" dy="0.3em" style="text-anchor: end; visibility: hidden; font-family: Roboto, sans-serif; font-size: 12px; font-weight: 200;" fill="rgb(50, 49, 63)" stroke="none" stroke-width="1px">0.5</text><text x="0" y="129.45454545454547" dx="0em" dy="0.3em" style="text-anchor: end; visibility: inherit; font-family: Roboto, sans-serif; font-size: 12px; font-weight: 200;" fill="rgb(50, 49, 63)" stroke="none" stroke-width="1px">1</text><text x="0" y="113.27272727272727" dx="0em" dy="0.3em" style="text-anchor: end; visibility: hidden; font-family: Roboto, sans-serif; font-size: 12px; font-weight: 200;" fill="rgb(50, 49, 63)" stroke="none" stroke-width="1px">1.5</text><text x="0" y="97.09090909090908" dx="0em" dy="0.3em" style="text-anchor: end; visibility: inherit; font-family: Roboto, sans-serif; font-size: 12px; font-weight: 200;" fill="rgb(50, 49, 63)" stroke="none" stroke-width="1px">2</text><text x="0" y="80.90909090909092" dx="0em" dy="0.3em" style="text-anchor: end; visibility: hidden; font-family: Roboto, sans-serif; font-size: 12px; font-weight: 200;" fill="rgb(50, 49, 63)" stroke="none" stroke-width="1px">2.5</text><text x="0" y="64.72727272727273" dx="0em" dy="0.3em" style="text-anchor: end; visibility: inherit; font-family: Roboto, sans-serif; font-size: 12px; font-weight: 200;" fill="rgb(50, 49, 63)" stroke="none" stroke-width="1px">3</text><text x="0" y="48.54545454545454" dx="0em" dy="0.3em" style="text-anchor: end; visibility: hidden; font-family: Roboto, sans-serif; font-size: 12px; font-weight: 200;" fill="rgb(50, 49, 63)" stroke="none" stroke-width="1px">3.5</text><text x="0" y="32.36363636363635" dx="0em" dy="0.3em" style="text-anchor: end; visibility: inherit; font-family: Roboto, sans-serif; font-size: 12px; font-weight: 200;" fill="rgb(50, 49, 63)" stroke="none" stroke-width="1px">4</text><text x="0" y="16.181818181818187" dx="0em" dy="0.3em" style="text-anchor: end; visibility: hidden; font-family: Roboto, sans-serif; font-size: 12px; font-weight: 200;" fill="rgb(50, 49, 63)" stroke="none" stroke-width="1px">4.5</text><text x="0" y="0" dx="0em" dy="0.3em" style="text-anchor: end; visibility: hidden; font-family: Roboto, sans-serif; font-size: 12px; font-weight: 200;" fill="rgb(50, 49, 63)" stroke="none" stroke-width="1px">5</text></g><line x1="50" y1="0" x2="50" y2="178" fill="rgb(0, 0, 0)" stroke="rgb(204, 204, 204)" stroke-width="1px"></line></g></g><g transform="translate(50, 0)" clip-path="url(#clip_0)"><clipPath id="clip_0"><rect width="280" height="178"></rect></clipPath><g><g><g><line x1="0" y1="0" x2="0" y2="178" fill="rgb(0, 0, 0)" stroke="rgb(60, 60, 60)" stroke-width="1px" opacity="0.25"></line><line x1="23.333333333333332" y1="0" x2="23.333333333333332" y2="178" fill="rgb(0, 0, 0)" stroke="rgb(60, 60, 60)" stroke-width="1px" opacity="0.25"></line><line x1="46.666666666666664" y1="0" x2="46.666666666666664" y2="178" fill="rgb(0, 0, 0)" stroke="rgb(60, 60, 60)" stroke-width="1px" opacity="0.25"></line><line x1="70" y1="0" x2="70" y2="178" fill="rgb(0, 0, 0)" stroke="rgb(60, 60, 60)" stroke-width="1px" opacity="0.25"></line><line x1="93.33333333333333" y1="0" x2="93.33333333333333" y2="178" fill="rgb(0, 0, 0)" stroke="rgb(60, 60, 60)" stroke-width="1px" opacity="0.25"></line><line x1="116.66666666666667" y1="0" x2="116.66666666666667" y2="178" fill="rgb(0, 0, 0)" stroke="rgb(60, 60, 60)" stroke-width="1px" opacity="0.25"></line><line x1="140" y1="0" x2="140" y2="178" fill="rgb(0, 0, 0)" stroke="rgb(60, 60, 60)" stroke-width="1px" opacity="0.25"></line><line x1="163.33333333333334" y1="0" x2="163.33333333333334" y2="178" fill="rgb(0, 0, 0)" stroke="rgb(60, 60, 60)" stroke-width="1px" opacity="0.25"></line><line x1="186.66666666666666" y1="0" x2="186.66666666666666" y2="178" fill="rgb(0, 0, 0)" stroke="rgb(60, 60, 60)" stroke-width="1px" opacity="0.25"></line><line x1="210" y1="0" x2="210" y2="178" fill="rgb(0, 0, 0)" stroke="rgb(60, 60, 60)" stroke-width="1px" opacity="0.25"></line><line x1="233.33333333333334" y1="0" x2="233.33333333333334" y2="178" fill="rgb(0, 0, 0)" stroke="rgb(60, 60, 60)" stroke-width="1px" opacity="0.25"></line><line x1="256.66666666666663" y1="0" x2="256.66666666666663" y2="178" fill="rgb(0, 0, 0)" stroke="rgb(60, 60, 60)" stroke-width="1px" opacity="0.25"></line><line x1="280" y1="0" x2="280" y2="178" fill="rgb(0, 0, 0)" stroke="rgb(60, 60, 60)" stroke-width="1px" opacity="0.25"></line></g><g><line x1="0" y1="178" x2="280" y2="178" fill="rgb(0, 0, 0)" stroke="rgb(60, 60, 60)" stroke-width="1px" opacity="0.25"></line><line x1="0" y1="161.8181818181818" x2="280" y2="161.8181818181818" fill="rgb(0, 0, 0)" stroke="rgb(60, 60, 60)" stroke-width="1px" opacity="0.25"></line><line x1="0" y1="145.63636363636363" x2="280" y2="145.63636363636363" fill="rgb(0, 0, 0)" stroke="rgb(60, 60, 60)" stroke-width="1px" opacity="0.25"></line><line x1="0" y1="129.45454545454547" x2="280" y2="129.45454545454547" fill="rgb(0, 0, 0)" stroke="rgb(60, 60, 60)" stroke-width="1px" opacity="0.25"></line><line x1="0" y1="113.27272727272727" x2="280" y2="113.27272727272727" fill="rgb(0, 0, 0)" stroke="rgb(60, 60, 60)" stroke-width="1px" opacity="0.25"></line><line x1="0" y1="97.09090909090908" x2="280" y2="97.09090909090908" fill="rgb(0, 0, 0)" stroke="rgb(60, 60, 60)" stroke-width="1px" opacity="0.25"></line><line x1="0" y1="80.90909090909092" x2="280" y2="80.90909090909092" fill="rgb(0, 0, 0)" stroke="rgb(60, 60, 60)" stroke-width="1px" opacity="0.25"></line><line x1="0" y1="64.72727272727273" x2="280" y2="64.72727272727273" fill="rgb(0, 0, 0)" stroke="rgb(60, 60, 60)" stroke-width="1px" opacity="0.25"></line><line x1="0" y1="48.54545454545454" x2="280" y2="48.54545454545454" fill="rgb(0, 0, 0)" stroke="rgb(60, 60, 60)" stroke-width="1px" opacity="0.25"></line><line x1="0" y1="32.36363636363635" x2="280" y2="32.36363636363635" fill="rgb(0, 0, 0)" stroke="rgb(60, 60, 60)" stroke-width="1px" opacity="0.25"></line><line x1="0" y1="16.181818181818187" x2="280" y2="16.181818181818187" fill="rgb(0, 0, 0)" stroke="rgb(60, 60, 60)" stroke-width="1px" opacity="0.25"></line><line x1="0" y1="0" x2="280" y2="0" fill="rgb(0, 0, 0)" stroke="rgb(60, 60, 60)" stroke-width="1px" opacity="0.25"></line></g></g></g><g><g><line x1="0" y1="161.8181818181818" x2="280" y2="161.8181818181818" fill="rgb(0, 0, 0)" stroke="rgb(153, 153, 153)" stroke-width="1.5px"></line></g></g><g><g><line x1="23.333333333333332" y1="0" x2="23.333333333333332" y2="178" fill="rgb(0, 0, 0)" stroke="rgb(153, 153, 153)" stroke-width="1.5px"></line></g></g><g><g><g><g><g><path stroke="rgb(0, 153, 136)" stroke-width="2px" d="M23.333333333333332,103.4430623921481L28,99.59333424134688L32.666666666666664,95.93838726390493L37.333333333333336,91.88155919855292L42,89.13581093874843L46.666666666666664,85.2431041544134L51.33333333333333,83.02522147785534L56,80.81065672094172L60.66666666666667,77.19843760403721L65.33333333333333,73.20461143146862L70,72.35336442427202L74.66666666666667,70.71580132571133L79.33333333333333,68.82697911696L84,66.33700388128108L88.66666666666666,62.723110372369945L93.33333333333333,62.01295211098411L98,61.096349802884184L102.66666666666666,57.0946532162753L107.33333333333334,55.167782956903636L112,54.657965313304565L116.66666666666667,52.251509059559204L121.33333333333334,50.7175267826427L126,50.876208218661226L130.66666666666666,49.04500207034024L135.33333333333334,47.836206782947876L140,46.11617409099231L144.66666666666669,44.89577380093662L149.33333333333334,43.17567938024348L154,41.37805366516113L158.66666666666666,39.47143814780495L163.33333333333334,40.568735902959645L168,36.88027407906272L172.66666666666669,38.04930834336714L177.33333333333331,36.27022439783269L182,35.622936855662964L186.66666666666666,32.08238480307839L191.33333333333334,33.25919688831677L196,30.595956802368164L200.66666666666666,30.217112107710403L205.33333333333331,29.01497580788352L210,25.98807629671963L214.66666666666669,26.630163192749023L219.33333333333334,25.42097438465466L224,25.632086667147558L228.66666666666666,26.184296521273534L233.33333333333334,25.73346068642356L238,23.120406064120214L242.66666666666669,20.111238132823605L247.33333333333331,20.0247253071178L252,20.760161486538966" style="fill: none;" fill="none"></path></g><g><path stroke="rgb(51, 187, 238)" stroke-width="2px" d="M23.333333333333332,113.9952274235812L28,118.1681672443043L32.666666666666664,119.86374378204346L37.333333333333336,120.71284957365556L42,121.21422967043789L46.666666666666664,121.42923086339776L51.33333333333333,121.47349036823618L56,121.52752616188742L60.66666666666667,121.40842442079024L65.33333333333333,121.402128089558L70,121.2565871585499L74.66666666666667,121.0284493186257L79.33333333333333,120.98205631429498L84,120.82078612934458L88.66666666666666,120.56900232488458L93.33333333333333,120.30300933664496L98,120.09321264787154L102.66666666666666,119.97517186945136L107.33333333333334,119.75467681884766L112,119.4699723070318L116.66666666666667,119.27048045938666L121.33333333333334,119.01735405488448L126,118.75827082720669L130.66666666666666,118.58862868222324L135.33333333333334,118.43136314912276L140,118.00640322945334L144.66666666666669,117.95478643070567L149.33333333333334,117.68095775084062L154,117.36917361346157L158.66666666666666,117.24041518298061L163.33333333333334,116.98276329040527L168,116.77771585637872L172.66666666666669,116.5481235330755L177.33333333333331,116.26812969554555L182,116.14330647208475L186.66666666666666,115.82007551193237L191.33333333333334,115.68409096110952L196,115.38854533975775L200.66666666666666,115.16364054246382L205.33333333333331,115.11985557729547L210,114.80326431447808L214.66666666666669,114.53351358933882L219.33333333333334,114.40205452658914L224,114.14483859322287L228.66666666666666,113.94513841108842L233.33333333333334,113.6627140045166L238,113.57287168502808L242.66666666666669,113.31243428316982L247.33333333333331,113.18970212069424L252,113.03848986192183" style="fill: none;" fill="none"></path></g><g><path stroke="rgb(0, 119, 187)" stroke-width="2px" d="M23.333333333333332,76.07826935161243L28,94.04179495031183L32.666666666666664,101.7128830389543L37.333333333333336,106.02148333462803L42,108.81247875907205L46.666666666666664,110.80121278762817L51.33333333333333,112.29576583342119L56,113.48487736962058L60.66666666666667,114.45401854948564L65.33333333333333,115.25901530005716L70,115.94892267747359L74.66666666666667,116.5272746519609L79.33333333333333,117.05365102941339L84,117.50984954833984L88.66666666666666,117.90591656077993L93.33333333333333,118.27101117914374L98,118.5910515351729L102.66666666666666,118.89266200499101L107.33333333333334,119.15456932241266L112,119.40045417438853L116.66666666666667,119.62744231657548L121.33333333333334,119.83654841509731L126,120.02713589234786L130.66666666666666,120.19707510688089L135.33333333333334,120.35976119474931L140,120.50826896320689L144.66666666666669,120.64403746344827L149.33333333333334,120.77371410890059L154,120.89306662299417L158.66666666666666,121.00812898982656L163.33333333333334,121.1166519685225L168,121.21636702797629L172.66666666666669,121.31183437867598L177.33333333333331,121.3884744644165L182,121.47937774658203L186.66666666666666,121.55817833813755L191.33333333333334,121.62831375815652L196,121.6973573511297L200.66666666666666,121.765934120525L205.33333333333331,121.8237122188915L210,121.88232751326127L214.66666666666669,121.94107783924449L219.33333333333334,121.97733961452138L224,122.03490937839854L228.66666666666666,122.07568120956421L233.33333333333334,122.12329335646196L238,122.15445093675093L242.66666666666669,122.20022665370595L247.33333333333331,122.23425847833808L252,122.2631398114291" style="fill: none;" fill="none"></path></g><g><path stroke="rgb(238, 51, 119)" stroke-width="2px" d="M23.333333333333332,97.10097859122537L28,110.48478356274693L32.666666666666664,114.64152344790371L37.333333333333336,117.15158752961592L42,118.57172272422098L46.666666666666664,120.03691989725287L51.33333333333333,120.51834617961538L56,121.79110015522349L60.66666666666667,122.01016387072475L65.33333333333333,122.61844656684183L70,123.54550032182173L74.66666666666667,123.73975680091165L79.33333333333333,124.02492427825928L84,124.28173125873911L88.66666666666666,124.88320836153896L93.33333333333333,124.5124694217335L98,125.0020477555015L102.66666666666666,124.9766695282676L107.33333333333334,125.63256437128241L112,125.5895741636103L116.66666666666667,125.49246714331888L121.33333333333334,125.5848634893244L126,125.58108260414816L130.66666666666666,125.60010662945835L135.33333333333334,125.93445647846568L140,126.28154559568925L144.66666666666669,126.37396123192526L149.33333333333334,126.48613778027622L154,126.2586480920965L158.66666666666666,126.84335812655361L163.33333333333334,125.83088723095982L168,126.19868248159234L172.66666666666669,127.23540505495937L177.33333333333331,126.55934806303544L182,126.54589891433716L186.66666666666666,126.75998575037177L191.33333333333334,126.40640354156494L196,126.77857381647284L200.66666666666666,126.58854961395264L205.33333333333331,127.15744165940718L210,126.57482268593527L214.66666666666669,126.91117100282149L219.33333333333334,126.86903342333706L224,126.4978893886913L228.66666666666666,126.66183705763383L233.33333333333334,127.51588500629771L238,126.95700459046797L242.66666666666669,126.59281661293723L247.33333333333331,126.75542939792979L252,126.39106009223245" style="fill: none;" fill="none"></path></g><g><path stroke="rgb(204, 51, 17)" stroke-width="2px" d="M23.333333333333332,98.56986405632712L28,117.83856665004384L32.666666666666664,122.48530153794722L37.333333333333336,125.455537926067L42,127.75423123619773L46.666666666666664,129.27678983861747L51.33333333333333,130.66423580863258L56,131.90697997266594L60.66666666666667,132.9088315963745L65.33333333333333,133.75464840368792L70,134.53448104858398L74.66666666666667,135.19874785163185L79.33333333333333,135.97497708147222L84,136.53128996762362L88.66666666666666,136.93025437268344L93.33333333333333,137.37555198235944L98,137.8612934892828L102.66666666666666,138.25792570547625L107.33333333333334,138.68619775772095L112,138.9882846962322L116.66666666666667,139.3262128829956L121.33333333333334,139.57040598175743L126,139.88490618358958L130.66666666666666,140.18673849105835L135.33333333333334,140.4374034621499L140,140.64723101529208L144.66666666666669,140.93900346755981L149.33333333333334,141.10752292112872L154,141.34888807210055L158.66666666666666,141.55324491587552L163.33333333333334,141.7105856808749L168,141.8543789170005L172.66666666666669,142.0412472378124L177.33333333333331,142.22285704179242L182,142.29761247201398L186.66666666666666,142.44113757393578L191.33333333333334,142.6946324218403L196,142.7539228742773L200.66666666666666,142.9476565881209L205.33333333333331,143.1291043541648L210,143.22469130429354L214.66666666666669,143.2866688858379L219.33333333333334,143.32014129378578L224,143.36202038418162L228.66666666666666,143.55772748860446L233.33333333333334,143.7073926708915L238,143.772047736428L242.66666666666669,143.82577681541443L247.33333333333331,143.9903668490323L252,144.03389139608905" style="fill: none;" fill="none"></path></g><g><path stroke="rgb(255, 112, 67)" stroke-width="2px" d="M23.333333333333332,50.59434708681973L28,86.0472444187511L32.666666666666664,98.15411715074019L37.333333333333336,104.31236505508423L42,108.12798807837747L46.666666666666664,110.85241677544333L51.33333333333333,112.89211945100264L56,114.44352852214467L60.66666666666667,115.8044774315574L65.33333333333333,117.0636819492687L70,117.93292674151333L74.66666666666667,118.92053638805044L79.33333333333333,119.67631218650125L84,120.45720772309737L88.66666666666666,121.14385890960693L93.33333333333333,121.69643913615835L98,122.31080211292613L102.66666666666666,122.89467109333384L107.33333333333334,123.34140582518144L112,123.76364582235162L116.66666666666667,124.18370216543023L121.33333333333334,124.64515920118852L126,125.03123773228037L130.66666666666666,125.33621241829611L135.33333333333334,125.77895021438599L140,126.06125116348267L144.66666666666669,126.41595606370406L149.33333333333334,126.75827277790415L154,126.92194266752763L158.66666666666666,127.32095722718672L163.33333333333334,127.6503340547735L168,127.90253067016602L172.66666666666669,128.20672603086993L177.33333333333331,128.44039630889893L182,128.7101624662226L186.66666666666666,128.91175694899127L191.33333333333334,129.16568968512794L196,129.37272015484896L200.66666666666666,129.55090980096296L205.33333333333331,129.78870433027092L210,129.97300897945058L214.66666666666669,130.1851204958829L219.33333333333334,130.3626697063446L224,130.53719613768837L228.66666666666666,130.71465661308983L233.33333333333334,130.89769968119535L238,131.14140473712575L242.66666666666669,131.26810682903636L247.33333333333331,131.38967193256724L252,131.53652845729482" style="fill: none;" fill="none"></path></g></g></g></g></g></g><g transform="translate(50, 178)" clip-path="url(#clip_1)"><clipPath id="clip_1"><rect width="280" height="22"></rect></clipPath><g><g><line x1="0" y1="0" x2="0" y2="5" style="visibility: inherit;" fill="rgb(0, 0, 0)" stroke="rgb(204, 204, 204)" stroke-width="1px"></line><line x1="23.333333333333332" y1="0" x2="23.333333333333332" y2="5" style="visibility: inherit;" fill="rgb(0, 0, 0)" stroke="rgb(204, 204, 204)" stroke-width="1px"></line><line x1="46.666666666666664" y1="0" x2="46.666666666666664" y2="5" style="visibility: inherit;" fill="rgb(0, 0, 0)" stroke="rgb(204, 204, 204)" stroke-width="1px"></line><line x1="70" y1="0" x2="70" y2="5" style="visibility: inherit;" fill="rgb(0, 0, 0)" stroke="rgb(204, 204, 204)" stroke-width="1px"></line><line x1="93.33333333333333" y1="0" x2="93.33333333333333" y2="5" style="visibility: inherit;" fill="rgb(0, 0, 0)" stroke="rgb(204, 204, 204)" stroke-width="1px"></line><line x1="116.66666666666667" y1="0" x2="116.66666666666667" y2="5" style="visibility: inherit;" fill="rgb(0, 0, 0)" stroke="rgb(204, 204, 204)" stroke-width="1px"></line><line x1="140" y1="0" x2="140" y2="5" style="visibility: inherit;" fill="rgb(0, 0, 0)" stroke="rgb(204, 204, 204)" stroke-width="1px"></line><line x1="163.33333333333334" y1="0" x2="163.33333333333334" y2="5" style="visibility: inherit;" fill="rgb(0, 0, 0)" stroke="rgb(204, 204, 204)" stroke-width="1px"></line><line x1="186.66666666666666" y1="0" x2="186.66666666666666" y2="5" style="visibility: inherit;" fill="rgb(0, 0, 0)" stroke="rgb(204, 204, 204)" stroke-width="1px"></line><line x1="210" y1="0" x2="210" y2="5" style="visibility: inherit;" fill="rgb(0, 0, 0)" stroke="rgb(204, 204, 204)" stroke-width="1px"></line><line x1="233.33333333333334" y1="0" x2="233.33333333333334" y2="5" style="visibility: inherit;" fill="rgb(0, 0, 0)" stroke="rgb(204, 204, 204)" stroke-width="1px"></line><line x1="256.66666666666663" y1="0" x2="256.66666666666663" y2="5" style="visibility: inherit;" fill="rgb(0, 0, 0)" stroke="rgb(204, 204, 204)" stroke-width="1px"></line><line x1="280" y1="0" x2="280" y2="5" style="visibility: inherit;" fill="rgb(0, 0, 0)" stroke="rgb(204, 204, 204)" stroke-width="1px"></line></g><g transform="translate(0, 8)"><text x="0" y="0" dx="0em" dy="0.95em" style="text-anchor: middle; visibility: hidden; font-family: Roboto, sans-serif; font-size: 12px; font-weight: 200;" fill="rgb(50, 49, 63)" stroke="none" stroke-width="1px">-5</text><text x="23.333333333333332" y="0" dx="0em" dy="0.95em" style="text-anchor: middle; visibility: inherit; font-family: Roboto, sans-serif; font-size: 12px; font-weight: 200;" fill="rgb(50, 49, 63)" stroke="none" stroke-width="1px">0</text><text x="46.666666666666664" y="0" dx="0em" dy="0.95em" style="text-anchor: middle; visibility: inherit; font-family: Roboto, sans-serif; font-size: 12px; font-weight: 200;" fill="rgb(50, 49, 63)" stroke="none" stroke-width="1px">5</text><text x="70" y="0" dx="0em" dy="0.95em" style="text-anchor: middle; visibility: inherit; font-family: Roboto, sans-serif; font-size: 12px; font-weight: 200;" fill="rgb(50, 49, 63)" stroke="none" stroke-width="1px">10</text><text x="93.33333333333333" y="0" dx="0em" dy="0.95em" style="text-anchor: middle; visibility: inherit; font-family: Roboto, sans-serif; font-size: 12px; font-weight: 200;" fill="rgb(50, 49, 63)" stroke="none" stroke-width="1px">15</text><text x="116.66666666666667" y="0" dx="0em" dy="0.95em" style="text-anchor: middle; visibility: inherit; font-family: Roboto, sans-serif; font-size: 12px; font-weight: 200;" fill="rgb(50, 49, 63)" stroke="none" stroke-width="1px">20</text><text x="140" y="0" dx="0em" dy="0.95em" style="text-anchor: middle; visibility: inherit; font-family: Roboto, sans-serif; font-size: 12px; font-weight: 200;" fill="rgb(50, 49, 63)" stroke="none" stroke-width="1px">25</text><text x="163.33333333333334" y="0" dx="0em" dy="0.95em" style="text-anchor: middle; visibility: inherit; font-family: Roboto, sans-serif; font-size: 12px; font-weight: 200;" fill="rgb(50, 49, 63)" stroke="none" stroke-width="1px">30</text><text x="186.66666666666666" y="0" dx="0em" dy="0.95em" style="text-anchor: middle; visibility: inherit; font-family: Roboto, sans-serif; font-size: 12px; font-weight: 200;" fill="rgb(50, 49, 63)" stroke="none" stroke-width="1px">35</text><text x="210" y="0" dx="0em" dy="0.95em" style="text-anchor: middle; visibility: inherit; font-family: Roboto, sans-serif; font-size: 12px; font-weight: 200;" fill="rgb(50, 49, 63)" stroke="none" stroke-width="1px">40</text><text x="233.33333333333334" y="0" dx="0em" dy="0.95em" style="text-anchor: middle; visibility: inherit; font-family: Roboto, sans-serif; font-size: 12px; font-weight: 200;" fill="rgb(50, 49, 63)" stroke="none" stroke-width="1px">45</text><text x="256.66666666666663" y="0" dx="0em" dy="0.95em" style="text-anchor: middle; visibility: inherit; font-family: Roboto, sans-serif; font-size: 12px; font-weight: 200;" fill="rgb(50, 49, 63)" stroke="none" stroke-width="1px">50</text><text x="280" y="0" dx="0em" dy="0.95em" style="text-anchor: middle; visibility: hidden; font-family: Roboto, sans-serif; font-size: 12px; font-weight: 200;" fill="rgb(50, 49, 63)" stroke="none" stroke-width="1px">55</text></g><line x1="0" y1="0" x2="280" y2="0" fill="rgb(0, 0, 0)" stroke="rgb(204, 204, 204)" stroke-width="1px"></line></g></g></g></g></svg>