<svg viewBox="0 0 732.2000122070312 400" xmlns="http://www.w3.org/2000/svg"><g><g><g><g><g><line x1="60" y1="378" x2="55" y2="378" style="visibility: inherit;" fill="rgb(0, 0, 0)" stroke="rgb(204, 204, 204)" stroke-width="1px"></line><line x1="60" y1="348.92307692307696" x2="55" y2="348.92307692307696" style="visibility: inherit;" fill="rgb(0, 0, 0)" stroke="rgb(204, 204, 204)" stroke-width="1px"></line><line x1="60" y1="319.84615384615387" x2="55" y2="319.84615384615387" style="visibility: inherit;" fill="rgb(0, 0, 0)" stroke="rgb(204, 204, 204)" stroke-width="1px"></line><line x1="60" y1="290.7692307692307" x2="55" y2="290.7692307692307" style="visibility: inherit;" fill="rgb(0, 0, 0)" stroke="rgb(204, 204, 204)" stroke-width="1px"></line><line x1="60" y1="261.6923076923077" x2="55" y2="261.6923076923077" style="visibility: inherit;" fill="rgb(0, 0, 0)" stroke="rgb(204, 204, 204)" stroke-width="1px"></line><line x1="60" y1="232.61538461538464" x2="55" y2="232.61538461538464" style="visibility: inherit;" fill="rgb(0, 0, 0)" stroke="rgb(204, 204, 204)" stroke-width="1px"></line><line x1="60" y1="203.53846153846152" x2="55" y2="203.53846153846152" style="visibility: inherit;" fill="rgb(0, 0, 0)" stroke="rgb(204, 204, 204)" stroke-width="1px"></line><line x1="60" y1="174.46153846153848" x2="55" y2="174.46153846153848" style="visibility: inherit;" fill="rgb(0, 0, 0)" stroke="rgb(204, 204, 204)" stroke-width="1px"></line><line x1="60" y1="145.38461538461536" x2="55" y2="145.38461538461536" style="visibility: inherit;" fill="rgb(0, 0, 0)" stroke="rgb(204, 204, 204)" stroke-width="1px"></line><line x1="60" y1="116.30769230769232" x2="55" y2="116.30769230769232" style="visibility: inherit;" fill="rgb(0, 0, 0)" stroke="rgb(204, 204, 204)" stroke-width="1px"></line><line x1="60" y1="87.23076923076921" x2="55" y2="87.23076923076921" style="visibility: inherit;" fill="rgb(0, 0, 0)" stroke="rgb(204, 204, 204)" stroke-width="1px"></line><line x1="60" y1="58.15384615384616" x2="55" y2="58.15384615384616" style="visibility: inherit;" fill="rgb(0, 0, 0)" stroke="rgb(204, 204, 204)" stroke-width="1px"></line><line x1="60" y1="29.07692307692306" x2="55" y2="29.07692307692306" style="visibility: inherit;" fill="rgb(0, 0, 0)" stroke="rgb(204, 204, 204)" stroke-width="1px"></line><line x1="60" y1="0" x2="55" y2="0" style="visibility: inherit;" fill="rgb(0, 0, 0)" stroke="rgb(204, 204, 204)" stroke-width="1px"></line></g><g transform="translate(50, 0)"><text x="0" y="378" dx="0em" dy="0.3em" style="text-anchor: end; visibility: hidden; font-family: Roboto, sans-serif; font-size: 12px; font-weight: 200;" fill="rgb(50, 49, 63)" stroke="none" stroke-width="1px">0.62</text><text x="0" y="348.92307692307696" dx="0em" dy="0.3em" style="text-anchor: end; visibility: inherit; font-family: Roboto, sans-serif; font-size: 12px; font-weight: 200;" fill="rgb(50, 49, 63)" stroke="none" stroke-width="1px">0.625</text><text x="0" y="319.84615384615387" dx="0em" dy="0.3em" style="text-anchor: end; visibility: inherit; font-family: Roboto, sans-serif; font-size: 12px; font-weight: 200;" fill="rgb(50, 49, 63)" stroke="none" stroke-width="1px">0.63</text><text x="0" y="290.7692307692307" dx="0em" dy="0.3em" style="text-anchor: end; visibility: inherit; font-family: Roboto, sans-serif; font-size: 12px; font-weight: 200;" fill="rgb(50, 49, 63)" stroke="none" stroke-width="1px">0.635</text><text x="0" y="261.6923076923077" dx="0em" dy="0.3em" style="text-anchor: end; visibility: inherit; font-family: Roboto, sans-serif; font-size: 12px; font-weight: 200;" fill="rgb(50, 49, 63)" stroke="none" stroke-width="1px">0.64</text><text x="0" y="232.61538461538464" dx="0em" dy="0.3em" style="text-anchor: end; visibility: inherit; font-family: Roboto, sans-serif; font-size: 12px; font-weight: 200;" fill="rgb(50, 49, 63)" stroke="none" stroke-width="1px">0.645</text><text x="0" y="203.53846153846152" dx="0em" dy="0.3em" style="text-anchor: end; visibility: inherit; font-family: Roboto, sans-serif; font-size: 12px; font-weight: 200;" fill="rgb(50, 49, 63)" stroke="none" stroke-width="1px">0.65</text><text x="0" y="174.46153846153848" dx="0em" dy="0.3em" style="text-anchor: end; visibility: inherit; font-family: Roboto, sans-serif; font-size: 12px; font-weight: 200;" fill="rgb(50, 49, 63)" stroke="none" stroke-width="1px">0.655</text><text x="0" y="145.38461538461536" dx="0em" dy="0.3em" style="text-anchor: end; visibility: inherit; font-family: Roboto, sans-serif; font-size: 12px; font-weight: 200;" fill="rgb(50, 49, 63)" stroke="none" stroke-width="1px">0.66</text><text x="0" y="116.30769230769232" dx="0em" dy="0.3em" style="text-anchor: end; visibility: inherit; font-family: Roboto, sans-serif; font-size: 12px; font-weight: 200;" fill="rgb(50, 49, 63)" stroke="none" stroke-width="1px">0.665</text><text x="0" y="87.23076923076921" dx="0em" dy="0.3em" style="text-anchor: end; visibility: inherit; font-family: Roboto, sans-serif; font-size: 12px; font-weight: 200;" fill="rgb(50, 49, 63)" stroke="none" stroke-width="1px">0.67</text><text x="0" y="58.15384615384616" dx="0em" dy="0.3em" style="text-anchor: end; visibility: inherit; font-family: Roboto, sans-serif; font-size: 12px; font-weight: 200;" fill="rgb(50, 49, 63)" stroke="none" stroke-width="1px">0.675</text><text x="0" y="29.07692307692306" dx="0em" dy="0.3em" style="text-anchor: end; visibility: inherit; font-family: Roboto, sans-serif; font-size: 12px; font-weight: 200;" fill="rgb(50, 49, 63)" stroke="none" stroke-width="1px">0.68</text><text x="0" y="0" dx="0em" dy="0.3em" style="text-anchor: end; visibility: hidden; font-family: Roboto, sans-serif; font-size: 12px; font-weight: 200;" fill="rgb(50, 49, 63)" stroke="none" stroke-width="1px">0.685</text></g><line x1="60" y1="0" x2="60" y2="378" fill="rgb(0, 0, 0)" stroke="rgb(204, 204, 204)" stroke-width="1px"></line></g></g><g transform="translate(60, 0)" clip-path="url(#clip_0)"><clipPath id="clip_0"><rect width="672" height="378"></rect></clipPath><g><g><g><line x1="0" y1="0" x2="0" y2="378" fill="rgb(0, 0, 0)" stroke="rgb(60, 60, 60)" stroke-width="1px" opacity="0.25"></line><line x1="56.016666666666666" y1="0" x2="56.016666666666666" y2="378" fill="rgb(0, 0, 0)" stroke="rgb(60, 60, 60)" stroke-width="1px" opacity="0.25"></line><line x1="112.03333333333333" y1="0" x2="112.03333333333333" y2="378" fill="rgb(0, 0, 0)" stroke="rgb(60, 60, 60)" stroke-width="1px" opacity="0.25"></line><line x1="168.05" y1="0" x2="168.05" y2="378" fill="rgb(0, 0, 0)" stroke="rgb(60, 60, 60)" stroke-width="1px" opacity="0.25"></line><line x1="224.06666666666666" y1="0" x2="224.06666666666666" y2="378" fill="rgb(0, 0, 0)" stroke="rgb(60, 60, 60)" stroke-width="1px" opacity="0.25"></line><line x1="280.08333333333337" y1="0" x2="280.08333333333337" y2="378" fill="rgb(0, 0, 0)" stroke="rgb(60, 60, 60)" stroke-width="1px" opacity="0.25"></line><line x1="336.1" y1="0" x2="336.1" y2="378" fill="rgb(0, 0, 0)" stroke="rgb(60, 60, 60)" stroke-width="1px" opacity="0.25"></line><line x1="392.11666666666673" y1="0" x2="392.11666666666673" y2="378" fill="rgb(0, 0, 0)" stroke="rgb(60, 60, 60)" stroke-width="1px" opacity="0.25"></line><line x1="448.1333333333333" y1="0" x2="448.1333333333333" y2="378" fill="rgb(0, 0, 0)" stroke="rgb(60, 60, 60)" stroke-width="1px" opacity="0.25"></line><line x1="504.15000000000003" y1="0" x2="504.15000000000003" y2="378" fill="rgb(0, 0, 0)" stroke="rgb(60, 60, 60)" stroke-width="1px" opacity="0.25"></line><line x1="560.1666666666667" y1="0" x2="560.1666666666667" y2="378" fill="rgb(0, 0, 0)" stroke="rgb(60, 60, 60)" stroke-width="1px" opacity="0.25"></line><line x1="616.1833333333334" y1="0" x2="616.1833333333334" y2="378" fill="rgb(0, 0, 0)" stroke="rgb(60, 60, 60)" stroke-width="1px" opacity="0.25"></line><line x1="672.2" y1="0" x2="672.2" y2="378" fill="rgb(0, 0, 0)" stroke="rgb(60, 60, 60)" stroke-width="1px" opacity="0.25"></line></g><g><line x1="0" y1="378" x2="672.2" y2="378" fill="rgb(0, 0, 0)" stroke="rgb(60, 60, 60)" stroke-width="1px" opacity="0.25"></line><line x1="0" y1="348.92307692307696" x2="672.2" y2="348.92307692307696" fill="rgb(0, 0, 0)" stroke="rgb(60, 60, 60)" stroke-width="1px" opacity="0.25"></line><line x1="0" y1="319.84615384615387" x2="672.2" y2="319.84615384615387" fill="rgb(0, 0, 0)" stroke="rgb(60, 60, 60)" stroke-width="1px" opacity="0.25"></line><line x1="0" y1="290.7692307692307" x2="672.2" y2="290.7692307692307" fill="rgb(0, 0, 0)" stroke="rgb(60, 60, 60)" stroke-width="1px" opacity="0.25"></line><line x1="0" y1="261.6923076923077" x2="672.2" y2="261.6923076923077" fill="rgb(0, 0, 0)" stroke="rgb(60, 60, 60)" stroke-width="1px" opacity="0.25"></line><line x1="0" y1="232.61538461538464" x2="672.2" y2="232.61538461538464" fill="rgb(0, 0, 0)" stroke="rgb(60, 60, 60)" stroke-width="1px" opacity="0.25"></line><line x1="0" y1="203.53846153846152" x2="672.2" y2="203.53846153846152" fill="rgb(0, 0, 0)" stroke="rgb(60, 60, 60)" stroke-width="1px" opacity="0.25"></line><line x1="0" y1="174.46153846153848" x2="672.2" y2="174.46153846153848" fill="rgb(0, 0, 0)" stroke="rgb(60, 60, 60)" stroke-width="1px" opacity="0.25"></line><line x1="0" y1="145.38461538461536" x2="672.2" y2="145.38461538461536" fill="rgb(0, 0, 0)" stroke="rgb(60, 60, 60)" stroke-width="1px" opacity="0.25"></line><line x1="0" y1="116.30769230769232" x2="672.2" y2="116.30769230769232" fill="rgb(0, 0, 0)" stroke="rgb(60, 60, 60)" stroke-width="1px" opacity="0.25"></line><line x1="0" y1="87.23076923076921" x2="672.2" y2="87.23076923076921" fill="rgb(0, 0, 0)" stroke="rgb(60, 60, 60)" stroke-width="1px" opacity="0.25"></line><line x1="0" y1="58.15384615384616" x2="672.2" y2="58.15384615384616" fill="rgb(0, 0, 0)" stroke="rgb(60, 60, 60)" stroke-width="1px" opacity="0.25"></line><line x1="0" y1="29.07692307692306" x2="672.2" y2="29.07692307692306" fill="rgb(0, 0, 0)" stroke="rgb(60, 60, 60)" stroke-width="1px" opacity="0.25"></line><line x1="0" y1="0" x2="672.2" y2="0" fill="rgb(0, 0, 0)" stroke="rgb(60, 60, 60)" stroke-width="1px" opacity="0.25"></line></g></g></g><g><g><line x1="0" y1="3983.5384615384583" x2="672.2" y2="3983.5384615384583" fill="rgb(0, 0, 0)" stroke="rgb(153, 153, 153)" stroke-width="1.5px"></line></g></g><g><g><line x1="56.016666666666666" y1="0" x2="56.016666666666666" y2="378" fill="rgb(0, 0, 0)" stroke="rgb(153, 153, 153)" stroke-width="1.5px"></line></g></g><g><g><g><g><g><path stroke="rgb(0, 119, 187)" stroke-width="2px" d="M67.22000000000001,396.31038159590497L78.42333333333335,350.0742150086623L89.62666666666667,366.95722697331354L100.83,318.035071519705L112.03333333333333,279.2811291768001L123.23666666666666,258.17762418893676L134.44000000000003,240.3355037982648L145.64333333333335,229.39986529717092L156.8466666666667,256.0673776773307L168.05,244.5563434454112L179.25333333333333,239.75976144350506L190.45666666666668,218.0808607248161L201.66,212.13348726125872L212.86333333333334,200.81413606496972L224.06666666666666,202.73269954094533L235.27,194.67507956578197L246.47333333333333,197.93646416297338L257.6766666666667,196.97700911301848L268.88000000000005,205.61037144294164L280.08333333333337,196.59329641782332L291.2866666666667,196.59329641782332L302.49,196.0179006869978L313.6933333333334,189.11141879741976L324.8966666666667,185.46597488109896L336.1,184.50686645507824L347.3033333333334,185.08226218590383L358.50666666666666,180.09434377230147L369.71000000000004,172.9958322231588L380.91333333333336,172.420089868399L392.11666666666673,172.9958322231588L403.32,167.04845875960146L414.52333333333337,165.1298952836258L425.7266666666667,166.8564291000368L436.93000000000006,168.19959684518682L448.1333333333333,167.81588414999172L459.3366666666667,170.69355605198803L470.54,178.55949299152095L481.7433333333334,180.47805646749657L492.94666666666666,178.17578029632585L504.15000000000003,181.2454818578868L515.3533333333334,177.98375063676116L526.5566666666667,177.02464221074047L537.7600000000001,178.3674633319563L548.9633333333334,177.98375063676116L560.1666666666667,173.57122795398433L571.37,175.87350412515508L582.5733333333334,169.73444762596736L593.7766666666666,174.91439569913442L604.98,168.58330954038198" style="fill: none;" fill="none"></path></g><g><path stroke="rgb(204, 51, 17)" stroke-width="2px" d="M56.016666666666666,473.81791965778046L67.22000000000001,322.4475942024818L78.42333333333335,271.0314795420721L89.62666666666667,289.6410253231343L100.83,235.92298111548803L112.03333333333333,195.63418799180266L123.23666666666666,179.90231411273678L134.44000000000003,159.75791755089412L145.64333333333335,158.03138373448314L156.8466666666667,173.57122795398433L168.05,163.01964877201976L179.25333333333333,151.3165848805356L190.45666666666668,138.65441256303072L201.66,128.10283338106615L212.86333333333334,118.89372869638316L224.06666666666666,117.74259061079778L235.27,111.02779175685023L246.47333333333333,113.330067928021L257.6766666666667,115.05694836836614L268.88000000000005,126.75966563591608L280.08333333333337,127.33540799067592L291.2866666666667,123.11456834352954L302.49,122.7308556483344L313.6933333333334,117.16719487997224L324.8966666666667,117.35887791560268L336.1,107.38269446446365L347.3033333333334,106.42358603844298L358.50666666666666,100.28418291532098L369.71000000000004,101.62735066047101L380.91333333333336,103.73759717207712L392.11666666666673,100.09249987969054L403.32,102.58645908649174L414.52333333333337,98.36596606327957L425.7266666666667,94.14512641613324L436.93000000000006,95.67997719691371L448.1333333333333,96.06368989210885L459.3366666666667,103.54591413644668L470.54,105.2724479528576L481.7433333333334,109.30125794043927L492.94666666666666,109.68497063563441L504.15000000000003,107.19101142883322L515.3533333333334,102.97017178168683L526.5566666666667,103.73759717207712L537.7600000000001,104.50502256246736L548.9633333333334,98.94136179410516L560.1666666666667,102.58645908649174L571.37,103.73759717207712L582.5733333333334,103.54591413644668L593.7766666666666,102.2027463912966L604.98,105.08041829329294" style="fill: none;" fill="none"></path></g><g><path stroke="rgb(51, 187, 238)" stroke-width="2px" d="M56.016666666666666,439.66852965721705L67.22000000000001,295.013003055866L78.42333333333335,242.63777996943557L89.62666666666667,258.17762418893676L100.83,213.09259568727947L112.03333333333333,167.04845875960146L123.23666666666666,151.12490184490517L134.44000000000003,137.8869871726405L145.64333333333335,134.62560257544905L156.8466666666667,146.52034950256365L168.05,131.55590101388805L179.25333333333333,120.62060913672833L190.45666666666668,121.38803452711858L201.66,111.60353411161005L212.86333333333334,105.2724479528576L224.06666666666666,100.85992527008078L235.27,98.36596606327957L246.47333333333333,100.09249987969054L257.6766666666667,98.94136179410516L268.88000000000005,118.51001600118806L280.08333333333337,105.65616064805273L291.2866666666667,110.45239602602466L302.49,103.16220144125154L313.6933333333334,107.95843681922345L324.8966666666667,105.08041829329294L336.1,103.73759717207712L347.3033333333334,100.47621257488568L358.50666666666666,100.28418291532098L369.71000000000004,97.59854067288934L380.91333333333336,95.87166023254416L392.11666666666673,95.87166023254416L403.32,97.02279831812953L414.52333333333337,94.33680945176367L425.7266666666667,94.52883911132834L436.93000000000006,93.7614137209381L448.1333333333333,94.91255180652348L459.3366666666667,97.59854067288934L470.54,106.61526907407342L481.7433333333334,101.43532100090636L492.94666666666666,103.92962683164178L504.15000000000003,100.66789561051611L515.3533333333334,104.88873525766246L526.5566666666667,96.2553729277393L537.7600000000001,96.06368989210885L548.9633333333334,93.95309675656854L560.1666666666667,100.47621257488568L571.37,103.54591413644668L582.5733333333334,104.12130986727222L593.7766666666666,97.79022370851978L604.98,101.24363796527592" style="fill: none;" fill="none"></path></g><g><path stroke="rgb(238, 51, 119)" stroke-width="2px" d="M56.016666666666666,392.08954194875855L67.22000000000001,253.1893591514001L78.42333333333335,202.92438257657577L89.62666666666667,223.06877913841848L100.83,179.13488872234652L112.03333333333333,146.13663680736855L123.23666666666666,110.8361087212198L134.44000000000003,101.43532100090636L145.64333333333335,103.92962683164178L156.8466666666667,122.53917261270396L168.05,103.35388447688197L179.25333333333333,103.92962683164178L190.45666666666668,94.14512641613324L201.66,82.82577521984418L212.86333333333334,83.97691330542955L224.06666666666666,77.6458271466771L235.27,69.20449447631862L246.47333333333333,73.42533412346499L257.6766666666667,78.02953984187225L268.88000000000005,87.04661486699055L280.08333333333337,84.16894296499422L291.2866666666667,85.12805139101494L302.49,84.16894296499422L313.6933333333334,78.22156950143692L324.8966666666667,83.20948791503932L336.1,84.74433869581979L347.3033333333334,81.48295409862835L358.50666666666666,80.71552870823811L369.71000000000004,79.37270758702229L380.91333333333336,76.68671872065643L392.11666666666673,75.53558063507106L403.32,75.15186793987591L414.52333333333337,74.76815524468081L425.7266666666667,75.91929333026616L436.93000000000006,74.95983828031125L448.1333333333333,74.19241288992102L459.3366666666667,82.82577521984418L470.54,89.54057407379172L481.7433333333334,86.27918947660028L492.94666666666666,84.16894296499422L504.15000000000003,80.90721174386856L515.3533333333334,89.34889103816127L526.5566666666667,83.59320061023442L537.7600000000001,89.92428676898686L548.9633333333334,86.85458520742586L560.1666666666667,85.51176408621004L571.37,86.66290217179541L582.5733333333334,92.22656294015762L593.7766666666666,92.61027563535272L604.98,82.2503794890186" style="fill: none;" fill="none"></path></g><g><path stroke="rgb(255, 112, 67)" stroke-width="2px" d="M56.016666666666666,405.45952033996576L67.22000000000001,246.19934089367217L78.42333333333335,184.48849538656395L89.62666666666667,143.09258541694075L100.83,122.96933291508621L112.03333333333333,113.19523121760463L123.23666666666666,108.40419519864618L134.44000000000003,122.96933291508621L145.64333333333335,112.42884569901709L156.8466666666667,91.53886105464076L168.05,82.33980846405055L179.25333333333333,74.86555657020006L190.45666666666668,71.79932124798138L201.66,63.558337211609135L212.86333333333334,65.85818701524028L224.06666666666666,56.08408531775866L235.27,53.97591854975799L246.47333333333333,50.334634120648L257.6766666666667,48.60983342390821L268.88000000000005,71.03258910545962L280.08333333333337,63.366654175978695L291.2866666666667,66.24155308650116L302.49,70.84090606982919L313.6933333333334,69.69115447998072L324.8966666666667,67.96635378324093L336.1,67.96635378324093L347.3033333333334,67.19962164071914L358.50666666666666,72.37402373093848L369.71000000000004,72.7573898021994L380.91333333333336,73.7158049803516L392.11666666666673,70.45753999856827L403.32,67.39130467634958L414.52333333333337,65.47482094397935L425.7266666666667,68.92442233745892L436.93000000000006,67.19962164071914L448.1333333333333,68.92442233745892L459.3366666666667,65.09145487271847L470.54,63.750020247239576L481.7433333333334,63.17497114034826L492.94666666666666,71.79932124798138L504.15000000000003,72.94907283782985L515.3533333333334,76.59035726693985" style="fill: none;" fill="none"></path></g></g></g></g></g><g><g opacity="0.201213"><span fill="rgb(0, 0, 0)" stroke="none" stroke-width="1px">Alt + Scroll to Zoom</span></g></g></g><g transform="translate(60, 378)" clip-path="url(#clip_1)"><clipPath id="clip_1"><rect width="672" height="22"></rect></clipPath><g><g><line x1="0" y1="0" x2="0" y2="5" style="visibility: inherit;" fill="rgb(0, 0, 0)" stroke="rgb(204, 204, 204)" stroke-width="1px"></line><line x1="56.016666666666666" y1="0" x2="56.016666666666666" y2="5" style="visibility: inherit;" fill="rgb(0, 0, 0)" stroke="rgb(204, 204, 204)" stroke-width="1px"></line><line x1="112.03333333333333" y1="0" x2="112.03333333333333" y2="5" style="visibility: inherit;" fill="rgb(0, 0, 0)" stroke="rgb(204, 204, 204)" stroke-width="1px"></line><line x1="168.05" y1="0" x2="168.05" y2="5" style="visibility: inherit;" fill="rgb(0, 0, 0)" stroke="rgb(204, 204, 204)" stroke-width="1px"></line><line x1="224.06666666666666" y1="0" x2="224.06666666666666" y2="5" style="visibility: inherit;" fill="rgb(0, 0, 0)" stroke="rgb(204, 204, 204)" stroke-width="1px"></line><line x1="280.08333333333337" y1="0" x2="280.08333333333337" y2="5" style="visibility: inherit;" fill="rgb(0, 0, 0)" stroke="rgb(204, 204, 204)" stroke-width="1px"></line><line x1="336.1" y1="0" x2="336.1" y2="5" style="visibility: inherit;" fill="rgb(0, 0, 0)" stroke="rgb(204, 204, 204)" stroke-width="1px"></line><line x1="392.11666666666673" y1="0" x2="392.11666666666673" y2="5" style="visibility: inherit;" fill="rgb(0, 0, 0)" stroke="rgb(204, 204, 204)" stroke-width="1px"></line><line x1="448.1333333333333" y1="0" x2="448.1333333333333" y2="5" style="visibility: inherit;" fill="rgb(0, 0, 0)" stroke="rgb(204, 204, 204)" stroke-width="1px"></line><line x1="504.15000000000003" y1="0" x2="504.15000000000003" y2="5" style="visibility: inherit;" fill="rgb(0, 0, 0)" stroke="rgb(204, 204, 204)" stroke-width="1px"></line><line x1="560.1666666666667" y1="0" x2="560.1666666666667" y2="5" style="visibility: inherit;" fill="rgb(0, 0, 0)" stroke="rgb(204, 204, 204)" stroke-width="1px"></line><line x1="616.1833333333334" y1="0" x2="616.1833333333334" y2="5" style="visibility: inherit;" fill="rgb(0, 0, 0)" stroke="rgb(204, 204, 204)" stroke-width="1px"></line><line x1="672.2" y1="0" x2="672.2" y2="5" style="visibility: inherit;" fill="rgb(0, 0, 0)" stroke="rgb(204, 204, 204)" stroke-width="1px"></line></g><g transform="translate(0, 8)"><text x="0" y="0" dx="0em" dy="0.95em" style="text-anchor: middle; visibility: hidden; font-family: Roboto, sans-serif; font-size: 12px; font-weight: 200;" fill="rgb(50, 49, 63)" stroke="none" stroke-width="1px">-5</text><text x="56.016666666666666" y="0" dx="0em" dy="0.95em" style="text-anchor: middle; visibility: inherit; font-family: Roboto, sans-serif; font-size: 12px; font-weight: 200;" fill="rgb(50, 49, 63)" stroke="none" stroke-width="1px">0</text><text x="112.03333333333333" y="0" dx="0em" dy="0.95em" style="text-anchor: middle; visibility: inherit; font-family: Roboto, sans-serif; font-size: 12px; font-weight: 200;" fill="rgb(50, 49, 63)" stroke="none" stroke-width="1px">5</text><text x="168.05" y="0" dx="0em" dy="0.95em" style="text-anchor: middle; visibility: inherit; font-family: Roboto, sans-serif; font-size: 12px; font-weight: 200;" fill="rgb(50, 49, 63)" stroke="none" stroke-width="1px">10</text><text x="224.06666666666666" y="0" dx="0em" dy="0.95em" style="text-anchor: middle; visibility: inherit; font-family: Roboto, sans-serif; font-size: 12px; font-weight: 200;" fill="rgb(50, 49, 63)" stroke="none" stroke-width="1px">15</text><text x="280.08333333333337" y="0" dx="0em" dy="0.95em" style="text-anchor: middle; visibility: inherit; font-family: Roboto, sans-serif; font-size: 12px; font-weight: 200;" fill="rgb(50, 49, 63)" stroke="none" stroke-width="1px">20</text><text x="336.1" y="0" dx="0em" dy="0.95em" style="text-anchor: middle; visibility: inherit; font-family: Roboto, sans-serif; font-size: 12px; font-weight: 200;" fill="rgb(50, 49, 63)" stroke="none" stroke-width="1px">25</text><text x="392.11666666666673" y="0" dx="0em" dy="0.95em" style="text-anchor: middle; visibility: inherit; font-family: Roboto, sans-serif; font-size: 12px; font-weight: 200;" fill="rgb(50, 49, 63)" stroke="none" stroke-width="1px">30</text><text x="448.1333333333333" y="0" dx="0em" dy="0.95em" style="text-anchor: middle; visibility: inherit; font-family: Roboto, sans-serif; font-size: 12px; font-weight: 200;" fill="rgb(50, 49, 63)" stroke="none" stroke-width="1px">35</text><text x="504.15000000000003" y="0" dx="0em" dy="0.95em" style="text-anchor: middle; visibility: inherit; font-family: Roboto, sans-serif; font-size: 12px; font-weight: 200;" fill="rgb(50, 49, 63)" stroke="none" stroke-width="1px">40</text><text x="560.1666666666667" y="0" dx="0em" dy="0.95em" style="text-anchor: middle; visibility: inherit; font-family: Roboto, sans-serif; font-size: 12px; font-weight: 200;" fill="rgb(50, 49, 63)" stroke="none" stroke-width="1px">45</text><text x="616.1833333333334" y="0" dx="0em" dy="0.95em" style="text-anchor: middle; visibility: inherit; font-family: Roboto, sans-serif; font-size: 12px; font-weight: 200;" fill="rgb(50, 49, 63)" stroke="none" stroke-width="1px">50</text><text x="672.2" y="0" dx="0em" dy="0.95em" style="text-anchor: middle; visibility: hidden; font-family: Roboto, sans-serif; font-size: 12px; font-weight: 200;" fill="rgb(50, 49, 63)" stroke="none" stroke-width="1px">55</text></g><line x1="0" y1="0" x2="672.2" y2="0" fill="rgb(0, 0, 0)" stroke="rgb(204, 204, 204)" stroke-width="1px"></line></g></g></g></g></svg>