<svg viewBox="0 0 330 200" xmlns="http://www.w3.org/2000/svg"><g><g><g><g><g><line x1="50" y1="178" x2="45" y2="178" style="visibility: inherit;" fill="rgb(0, 0, 0)" stroke="rgb(204, 204, 204)" stroke-width="1px"></line><line x1="50" y1="161.81818181818178" x2="45" y2="161.81818181818178" style="visibility: inherit;" fill="rgb(0, 0, 0)" stroke="rgb(204, 204, 204)" stroke-width="1px"></line><line x1="50" y1="145.6363636363636" x2="45" y2="145.6363636363636" style="visibility: inherit;" fill="rgb(0, 0, 0)" stroke="rgb(204, 204, 204)" stroke-width="1px"></line><line x1="50" y1="129.4545454545454" x2="45" y2="129.4545454545454" style="visibility: inherit;" fill="rgb(0, 0, 0)" stroke="rgb(204, 204, 204)" stroke-width="1px"></line><line x1="50" y1="113.27272727272721" x2="45" y2="113.27272727272721" style="visibility: inherit;" fill="rgb(0, 0, 0)" stroke="rgb(204, 204, 204)" stroke-width="1px"></line><line x1="50" y1="97.09090909090901" x2="45" y2="97.09090909090901" style="visibility: inherit;" fill="rgb(0, 0, 0)" stroke="rgb(204, 204, 204)" stroke-width="1px"></line><line x1="50" y1="80.90909090909082" x2="45" y2="80.90909090909082" style="visibility: inherit;" fill="rgb(0, 0, 0)" stroke="rgb(204, 204, 204)" stroke-width="1px"></line><line x1="50" y1="64.7272727272726" x2="45" y2="64.7272727272726" style="visibility: inherit;" fill="rgb(0, 0, 0)" stroke="rgb(204, 204, 204)" stroke-width="1px"></line><line x1="50" y1="48.545454545454426" x2="45" y2="48.545454545454426" style="visibility: inherit;" fill="rgb(0, 0, 0)" stroke="rgb(204, 204, 204)" stroke-width="1px"></line><line x1="50" y1="32.36363636363622" x2="45" y2="32.36363636363622" style="visibility: inherit;" fill="rgb(0, 0, 0)" stroke="rgb(204, 204, 204)" stroke-width="1px"></line><line x1="50" y1="16.18181818181821" x2="45" y2="16.18181818181821" style="visibility: inherit;" fill="rgb(0, 0, 0)" stroke="rgb(204, 204, 204)" stroke-width="1px"></line><line x1="50" y1="0" x2="45" y2="0" style="visibility: inherit;" fill="rgb(0, 0, 0)" stroke="rgb(204, 204, 204)" stroke-width="1px"></line></g><g transform="translate(40, 0)"><text x="0" y="178" dx="0em" dy="0.3em" style="text-anchor: end; visibility: hidden; font-family: Roboto, sans-serif; font-size: 12px; font-weight: 200;" fill="rgb(50, 49, 63)" stroke="none" stroke-width="1px">0.59</text><text x="0" y="161.81818181818178" dx="0em" dy="0.3em" style="text-anchor: end; visibility: inherit; font-family: Roboto, sans-serif; font-size: 12px; font-weight: 200;" fill="rgb(50, 49, 63)" stroke="none" stroke-width="1px">0.6</text><text x="0" y="145.6363636363636" dx="0em" dy="0.3em" style="text-anchor: end; visibility: hidden; font-family: Roboto, sans-serif; font-size: 12px; font-weight: 200;" fill="rgb(50, 49, 63)" stroke="none" stroke-width="1px">0.61</text><text x="0" y="129.4545454545454" dx="0em" dy="0.3em" style="text-anchor: end; visibility: inherit; font-family: Roboto, sans-serif; font-size: 12px; font-weight: 200;" fill="rgb(50, 49, 63)" stroke="none" stroke-width="1px">0.62</text><text x="0" y="113.27272727272721" dx="0em" dy="0.3em" style="text-anchor: end; visibility: hidden; font-family: Roboto, sans-serif; font-size: 12px; font-weight: 200;" fill="rgb(50, 49, 63)" stroke="none" stroke-width="1px">0.63</text><text x="0" y="97.09090909090901" dx="0em" dy="0.3em" style="text-anchor: end; visibility: inherit; font-family: Roboto, sans-serif; font-size: 12px; font-weight: 200;" fill="rgb(50, 49, 63)" stroke="none" stroke-width="1px">0.64</text><text x="0" y="80.90909090909082" dx="0em" dy="0.3em" style="text-anchor: end; visibility: hidden; font-family: Roboto, sans-serif; font-size: 12px; font-weight: 200;" fill="rgb(50, 49, 63)" stroke="none" stroke-width="1px">0.65</text><text x="0" y="64.7272727272726" dx="0em" dy="0.3em" style="text-anchor: end; visibility: inherit; font-family: Roboto, sans-serif; font-size: 12px; font-weight: 200;" fill="rgb(50, 49, 63)" stroke="none" stroke-width="1px">0.66</text><text x="0" y="48.545454545454426" dx="0em" dy="0.3em" style="text-anchor: end; visibility: hidden; font-family: Roboto, sans-serif; font-size: 12px; font-weight: 200;" fill="rgb(50, 49, 63)" stroke="none" stroke-width="1px">0.67</text><text x="0" y="32.36363636363622" dx="0em" dy="0.3em" style="text-anchor: end; visibility: inherit; font-family: Roboto, sans-serif; font-size: 12px; font-weight: 200;" fill="rgb(50, 49, 63)" stroke="none" stroke-width="1px">0.68</text><text x="0" y="16.18181818181821" dx="0em" dy="0.3em" style="text-anchor: end; visibility: hidden; font-family: Roboto, sans-serif; font-size: 12px; font-weight: 200;" fill="rgb(50, 49, 63)" stroke="none" stroke-width="1px">0.69</text><text x="0" y="0" dx="0em" dy="0.3em" style="text-anchor: end; visibility: hidden; font-family: Roboto, sans-serif; font-size: 12px; font-weight: 200;" fill="rgb(50, 49, 63)" stroke="none" stroke-width="1px">0.7</text></g><line x1="50" y1="0" x2="50" y2="178" fill="rgb(0, 0, 0)" stroke="rgb(204, 204, 204)" stroke-width="1px"></line></g></g><g transform="translate(50, 0)" clip-path="url(#clip_0)"><clipPath id="clip_0"><rect width="280" height="178"></rect></clipPath><g><g><g><line x1="0" y1="0" x2="0" y2="178" fill="rgb(0, 0, 0)" stroke="rgb(60, 60, 60)" stroke-width="1px" opacity="0.25"></line><line x1="23.333333333333332" y1="0" x2="23.333333333333332" y2="178" fill="rgb(0, 0, 0)" stroke="rgb(60, 60, 60)" stroke-width="1px" opacity="0.25"></line><line x1="46.666666666666664" y1="0" x2="46.666666666666664" y2="178" fill="rgb(0, 0, 0)" stroke="rgb(60, 60, 60)" stroke-width="1px" opacity="0.25"></line><line x1="70" y1="0" x2="70" y2="178" fill="rgb(0, 0, 0)" stroke="rgb(60, 60, 60)" stroke-width="1px" opacity="0.25"></line><line x1="93.33333333333333" y1="0" x2="93.33333333333333" y2="178" fill="rgb(0, 0, 0)" stroke="rgb(60, 60, 60)" stroke-width="1px" opacity="0.25"></line><line x1="116.66666666666667" y1="0" x2="116.66666666666667" y2="178" fill="rgb(0, 0, 0)" stroke="rgb(60, 60, 60)" stroke-width="1px" opacity="0.25"></line><line x1="140" y1="0" x2="140" y2="178" fill="rgb(0, 0, 0)" stroke="rgb(60, 60, 60)" stroke-width="1px" opacity="0.25"></line><line x1="163.33333333333334" y1="0" x2="163.33333333333334" y2="178" fill="rgb(0, 0, 0)" stroke="rgb(60, 60, 60)" stroke-width="1px" opacity="0.25"></line><line x1="186.66666666666666" y1="0" x2="186.66666666666666" y2="178" fill="rgb(0, 0, 0)" stroke="rgb(60, 60, 60)" stroke-width="1px" opacity="0.25"></line><line x1="210" y1="0" x2="210" y2="178" fill="rgb(0, 0, 0)" stroke="rgb(60, 60, 60)" stroke-width="1px" opacity="0.25"></line><line x1="233.33333333333334" y1="0" x2="233.33333333333334" y2="178" fill="rgb(0, 0, 0)" stroke="rgb(60, 60, 60)" stroke-width="1px" opacity="0.25"></line><line x1="256.66666666666663" y1="0" x2="256.66666666666663" y2="178" fill="rgb(0, 0, 0)" stroke="rgb(60, 60, 60)" stroke-width="1px" opacity="0.25"></line><line x1="280" y1="0" x2="280" y2="178" fill="rgb(0, 0, 0)" stroke="rgb(60, 60, 60)" stroke-width="1px" opacity="0.25"></line></g><g><line x1="0" y1="178" x2="280" y2="178" fill="rgb(0, 0, 0)" stroke="rgb(60, 60, 60)" stroke-width="1px" opacity="0.25"></line><line x1="0" y1="161.81818181818178" x2="280" y2="161.81818181818178" fill="rgb(0, 0, 0)" stroke="rgb(60, 60, 60)" stroke-width="1px" opacity="0.25"></line><line x1="0" y1="145.6363636363636" x2="280" y2="145.6363636363636" fill="rgb(0, 0, 0)" stroke="rgb(60, 60, 60)" stroke-width="1px" opacity="0.25"></line><line x1="0" y1="129.4545454545454" x2="280" y2="129.4545454545454" fill="rgb(0, 0, 0)" stroke="rgb(60, 60, 60)" stroke-width="1px" opacity="0.25"></line><line x1="0" y1="113.27272727272721" x2="280" y2="113.27272727272721" fill="rgb(0, 0, 0)" stroke="rgb(60, 60, 60)" stroke-width="1px" opacity="0.25"></line><line x1="0" y1="97.09090909090901" x2="280" y2="97.09090909090901" fill="rgb(0, 0, 0)" stroke="rgb(60, 60, 60)" stroke-width="1px" opacity="0.25"></line><line x1="0" y1="80.90909090909082" x2="280" y2="80.90909090909082" fill="rgb(0, 0, 0)" stroke="rgb(60, 60, 60)" stroke-width="1px" opacity="0.25"></line><line x1="0" y1="64.7272727272726" x2="280" y2="64.7272727272726" fill="rgb(0, 0, 0)" stroke="rgb(60, 60, 60)" stroke-width="1px" opacity="0.25"></line><line x1="0" y1="48.545454545454426" x2="280" y2="48.545454545454426" fill="rgb(0, 0, 0)" stroke="rgb(60, 60, 60)" stroke-width="1px" opacity="0.25"></line><line x1="0" y1="32.36363636363622" x2="280" y2="32.36363636363622" fill="rgb(0, 0, 0)" stroke="rgb(60, 60, 60)" stroke-width="1px" opacity="0.25"></line><line x1="0" y1="16.18181818181821" x2="280" y2="16.18181818181821" fill="rgb(0, 0, 0)" stroke="rgb(60, 60, 60)" stroke-width="1px" opacity="0.25"></line><line x1="0" y1="0" x2="280" y2="0" fill="rgb(0, 0, 0)" stroke="rgb(60, 60, 60)" stroke-width="1px" opacity="0.25"></line></g></g></g><g><g><line x1="0" y1="1132.7272727272727" x2="280" y2="1132.7272727272727" fill="rgb(0, 0, 0)" stroke="rgb(153, 153, 153)" stroke-width="1.5px"></line></g></g><g><g><line x1="23.333333333333332" y1="0" x2="23.333333333333332" y2="178" fill="rgb(0, 0, 0)" stroke="rgb(153, 153, 153)" stroke-width="1.5px"></line></g></g><g><g><g><g><g><path stroke="rgb(0, 119, 187)" stroke-width="2px" d="M37.333333333333336,188.20061987096608L42,172.2388222000815L46.666666666666664,162.78979214754966L51.33333333333333,154.46181383999905L56,152.0061674985018L60.66666666666667,139.78117682717058L65.33333333333333,153.02044781771568L70,148.32269798625595L74.66666666666667,147.73540691895914L79.33333333333333,141.4360857009887L84,141.7030624909834L88.66666666666666,133.58862703496754L93.33333333333333,134.92322163148353L98,133.74873594804237L102.66666666666666,136.79167335683644L107.33333333333334,130.33214677463874L112,139.40752506256098L116.66666666666667,132.307369925759L121.33333333333334,140.10149110447273L126,137.21875905990595L130.66666666666666,135.45707876032043L135.33333333333334,133.48185560920015L140,136.0442733764648L144.66666666666669,128.6772379008206L149.33333333333334,132.36080386421892L154,128.94421469081524L158.66666666666666,129.15775754235003L163.33333333333334,133.74873594804237L168,128.62390041351313L172.66666666666669,128.03670579736877L177.33333333333331,123.60573985359879L182,124.72688804973248L186.66666666666666,121.47040778940368L191.33333333333334,130.75923247770825L196,136.15104480223218L200.66666666666666,128.51712898774576L205.33333333333331,131.5600663965398L210,130.91943784193555L214.66666666666669,132.04048958691678L219.33333333333334,131.07954675501037L224,128.09004328467623L228.66666666666666,124.24636840820307L233.33333333333334,127.98327185890885L238,128.25015219775108L242.66666666666669,130.1720378615639L247.33333333333331,128.25015219775108L252,131.5066324580799" style="fill: none;" fill="none"></path></g><g><path stroke="rgb(238, 51, 119)" stroke-width="2px" d="M23.333333333333332,182.38181829452512L28,137.48563939874816L32.666666666666664,125.58096300471905L37.333333333333336,132.09382707422424L42,122.48468810861755L46.666666666666664,108.5514510761607L51.33333333333333,101.45129593935876L56,100.00992991707535L60.66666666666667,97.34074072404334L65.33333333333333,107.7507136084816L70,95.57906042445782L74.66666666666667,95.73926578868512L79.33333333333333,98.88887817209411L84,88.85265350341791L88.66666666666666,91.84215697375207L93.33333333333333,83.30073226581914L98,83.46084117889399L102.66666666666666,83.08718941428438L107.33333333333334,81.27207517623896L112,91.30829984491515L116.66666666666667,87.57139639420936L121.33333333333334,81.27207517623896L126,86.984201778065L130.66666666666666,93.23018550872797L135.33333333333334,86.45034464922811L140,85.96992145885113L144.66666666666669,88.10525352304626L149.33333333333334,80.52477164701976L154,79.83070915395558L158.66666666666666,80.311228795485L163.33333333333334,79.61716630242081L168,78.4427770701321L172.66666666666669,78.49611455743957L177.33333333333331,74.6524396809664L182,79.93748057972294L186.66666666666666,78.54954849589947L191.33333333333334,85.2225214784795L196,83.7811554561961L200.66666666666666,87.83837318420404L205.33333333333331,82.28635549545282L210,86.984201778065L214.66666666666669,81.43228054046625L219.33333333333334,79.51039487665344L224,84.15480722080571L228.66666666666666,81.32550911469886L233.33333333333334,82.980417988517L238,84.95564113963727L242.66666666666669,82.01947515661061L247.33333333333331,78.60288598320695L252,80.84498947316945" style="fill: none;" fill="none"></path></g><g><path stroke="rgb(204, 51, 17)" stroke-width="2px" d="M23.333333333333332,138.3398108048872L28,98.30168355594977L32.666666666666664,82.1796805208379L37.333333333333336,85.64960718154902L42,72.99753080714825L46.666666666666664,64.45610609921535L51.33333333333333,55.060509985143426L56,51.43037796020502L60.66666666666667,50.20245833830393L65.33333333333333,60.02523660659784L70,57.99657951701764L74.66666666666667,55.220618898218255L79.33333333333333,52.92508146979586L84,51.270172595977726L88.66666666666666,48.600983402945715L93.33333333333333,50.789749405600745L98,43.369279991496626L102.66666666666666,40.16623366962773L107.33333333333334,42.35499967228276L112,49.561926234852116L116.66666666666667,50.52277261560607L121.33333333333334,47.47993165796447L126,46.839303103360194L130.66666666666666,46.465651338750604L135.33333333333334,46.09190312298854L140,46.51898882605807L144.66666666666669,42.675313949584904L149.33333333333334,45.45127456838427L154,40.967067588459294L158.66666666666666,41.7678050561384L163.33333333333334,41.180610439994055L168,40.700090798464615L172.66666666666669,40.64675331115717L177.33333333333331,41.55426220460365L182,38.938410498879115L186.66666666666666,41.55426220460365L191.33333333333334,43.476051417264L196,43.10239965265441L200.66666666666666,44.11667997186828L205.33333333333331,46.89264059066767L210,43.74302820725868L214.66666666666669,48.227331638336125L219.33333333333334,42.56854252381752L224,42.888856801119644L228.66666666666666,44.490428187630336L233.33333333333334,46.30544597452331L238,47.21295486796979L242.66666666666669,44.75730852647255L247.33333333333331,48.227331638336125L252,45.771588845686416" style="fill: none;" fill="none"></path></g><g><path stroke="rgb(51, 187, 238)" stroke-width="2px" d="M23.333333333333332,115.06431514566589L28,73.21107365868302L32.666666666666664,61.62671154195605L37.333333333333336,66.05758103457357L42,54.47321891784662L46.666666666666664,45.5047085068442L51.33333333333333,40.21966760808764L56,35.41504989970807L60.66666666666667,33.81357496434985L65.33333333333333,36.26922130584711L70,39.418930140408534L74.66666666666667,36.21588381853964L79.33333333333333,35.84213560277758L84,28.581871552900772L88.66666666666666,31.518037535927434L93.33333333333333,28.528534065593302L98,28.581871552900772L102.66666666666666,26.92696267908263L107.33333333333334,26.446539488705657L112,32.15866609053171L116.66666666666667,30.076671513644058L121.33333333333334,31.945123238996963L126,30.66386612978842L130.66666666666666,34.34743209318674L135.33333333333334,30.61052864248095L140,28.528534065593302L144.66666666666669,32.692523219368596L149.33333333333334,27.88790551098903L154,33.279717835512955L158.66666666666666,31.25115719708522L163.33333333333334,28.848848342895447L168,26.92696267908263L172.66666666666669,26.980396617542546L177.33333333333331,26.553310914473037L182,29.4894768974997L186.66666666666666,28.848848342895447L191.33333333333334,32.852632132443446L196,33.49326068704772L200.66666666666666,28.47510012713339L205.33333333333331,32.639089280908685L210,31.998460726304412L214.66666666666669,32.26543751629909L219.33333333333334,28.42176263982592L224,34.774421345103804L228.66666666666666,31.037614345550477L233.33333333333334,30.877408981323182L238,28.848848342895447L242.66666666666669,31.571375023234904L247.33333333333331,33.70680353858246L252,30.076671513644058" style="fill: none;" fill="none"></path></g><g><path stroke="rgb(255, 112, 67)" stroke-width="2px" d="M23.333333333333332,137.09539803591636L28,92.77985507791686L32.666666666666664,75.60827060179271L37.333333333333336,64.08949526873495L42,58.49002361297602L46.666666666666664,55.77029401605773L51.33333333333333,54.437146186828556L56,58.49002361297602L60.66666666666667,55.55704051798034L65.33333333333333,49.74421891299154L70,47.18450177799565L74.66666666666667,45.10472557761447L79.33333333333333,44.25151868299997L84,41.95839253338893L88.66666666666666,42.59834592992602L93.33333333333333,39.878616333007756L98,39.29200042377812L102.66666666666666,38.278781067241255L107.33333333333334,37.79884013262655L112,44.038168733770135L116.66666666666667,41.905055046081486L121.33333333333334,42.70502090454096L126,43.98483124646266L130.66666666666666,43.66490277377035L135.33333333333334,43.184961839155655L140,43.184961839155655L144.66666666666669,42.971611889925796L149.33333333333334,44.41143469376991L154,44.51810966838483L158.66666666666666,44.784797104922134L163.33333333333334,43.87815627184774L168,43.02494937723327L172.66666666666669,42.4916709553111L177.33333333333331,43.4515528245405L182,42.971611889925796L186.66666666666666,43.4515528245405L191.33333333333334,42.38499598069618L196,42.011730020696405L200.66666666666666,41.85171755877401L205.33333333333331,44.25151868299997L210,44.5714471556923L214.66666666666669,45.58466651222916" style="fill: none;" fill="none"></path></g></g></g></g></g></g><g transform="translate(50, 178)" clip-path="url(#clip_1)"><clipPath id="clip_1"><rect width="280" height="22"></rect></clipPath><g><g><line x1="0" y1="0" x2="0" y2="5" style="visibility: inherit;" fill="rgb(0, 0, 0)" stroke="rgb(204, 204, 204)" stroke-width="1px"></line><line x1="23.333333333333332" y1="0" x2="23.333333333333332" y2="5" style="visibility: inherit;" fill="rgb(0, 0, 0)" stroke="rgb(204, 204, 204)" stroke-width="1px"></line><line x1="46.666666666666664" y1="0" x2="46.666666666666664" y2="5" style="visibility: inherit;" fill="rgb(0, 0, 0)" stroke="rgb(204, 204, 204)" stroke-width="1px"></line><line x1="70" y1="0" x2="70" y2="5" style="visibility: inherit;" fill="rgb(0, 0, 0)" stroke="rgb(204, 204, 204)" stroke-width="1px"></line><line x1="93.33333333333333" y1="0" x2="93.33333333333333" y2="5" style="visibility: inherit;" fill="rgb(0, 0, 0)" stroke="rgb(204, 204, 204)" stroke-width="1px"></line><line x1="116.66666666666667" y1="0" x2="116.66666666666667" y2="5" style="visibility: inherit;" fill="rgb(0, 0, 0)" stroke="rgb(204, 204, 204)" stroke-width="1px"></line><line x1="140" y1="0" x2="140" y2="5" style="visibility: inherit;" fill="rgb(0, 0, 0)" stroke="rgb(204, 204, 204)" stroke-width="1px"></line><line x1="163.33333333333334" y1="0" x2="163.33333333333334" y2="5" style="visibility: inherit;" fill="rgb(0, 0, 0)" stroke="rgb(204, 204, 204)" stroke-width="1px"></line><line x1="186.66666666666666" y1="0" x2="186.66666666666666" y2="5" style="visibility: inherit;" fill="rgb(0, 0, 0)" stroke="rgb(204, 204, 204)" stroke-width="1px"></line><line x1="210" y1="0" x2="210" y2="5" style="visibility: inherit;" fill="rgb(0, 0, 0)" stroke="rgb(204, 204, 204)" stroke-width="1px"></line><line x1="233.33333333333334" y1="0" x2="233.33333333333334" y2="5" style="visibility: inherit;" fill="rgb(0, 0, 0)" stroke="rgb(204, 204, 204)" stroke-width="1px"></line><line x1="256.66666666666663" y1="0" x2="256.66666666666663" y2="5" style="visibility: inherit;" fill="rgb(0, 0, 0)" stroke="rgb(204, 204, 204)" stroke-width="1px"></line><line x1="280" y1="0" x2="280" y2="5" style="visibility: inherit;" fill="rgb(0, 0, 0)" stroke="rgb(204, 204, 204)" stroke-width="1px"></line></g><g transform="translate(0, 8)"><text x="0" y="0" dx="0em" dy="0.95em" style="text-anchor: middle; visibility: hidden; font-family: Roboto, sans-serif; font-size: 12px; font-weight: 200;" fill="rgb(50, 49, 63)" stroke="none" stroke-width="1px">-5</text><text x="23.333333333333332" y="0" dx="0em" dy="0.95em" style="text-anchor: middle; visibility: inherit; font-family: Roboto, sans-serif; font-size: 12px; font-weight: 200;" fill="rgb(50, 49, 63)" stroke="none" stroke-width="1px">0</text><text x="46.666666666666664" y="0" dx="0em" dy="0.95em" style="text-anchor: middle; visibility: inherit; font-family: Roboto, sans-serif; font-size: 12px; font-weight: 200;" fill="rgb(50, 49, 63)" stroke="none" stroke-width="1px">5</text><text x="70" y="0" dx="0em" dy="0.95em" style="text-anchor: middle; visibility: inherit; font-family: Roboto, sans-serif; font-size: 12px; font-weight: 200;" fill="rgb(50, 49, 63)" stroke="none" stroke-width="1px">10</text><text x="93.33333333333333" y="0" dx="0em" dy="0.95em" style="text-anchor: middle; visibility: inherit; font-family: Roboto, sans-serif; font-size: 12px; font-weight: 200;" fill="rgb(50, 49, 63)" stroke="none" stroke-width="1px">15</text><text x="116.66666666666667" y="0" dx="0em" dy="0.95em" style="text-anchor: middle; visibility: inherit; font-family: Roboto, sans-serif; font-size: 12px; font-weight: 200;" fill="rgb(50, 49, 63)" stroke="none" stroke-width="1px">20</text><text x="140" y="0" dx="0em" dy="0.95em" style="text-anchor: middle; visibility: inherit; font-family: Roboto, sans-serif; font-size: 12px; font-weight: 200;" fill="rgb(50, 49, 63)" stroke="none" stroke-width="1px">25</text><text x="163.33333333333334" y="0" dx="0em" dy="0.95em" style="text-anchor: middle; visibility: inherit; font-family: Roboto, sans-serif; font-size: 12px; font-weight: 200;" fill="rgb(50, 49, 63)" stroke="none" stroke-width="1px">30</text><text x="186.66666666666666" y="0" dx="0em" dy="0.95em" style="text-anchor: middle; visibility: inherit; font-family: Roboto, sans-serif; font-size: 12px; font-weight: 200;" fill="rgb(50, 49, 63)" stroke="none" stroke-width="1px">35</text><text x="210" y="0" dx="0em" dy="0.95em" style="text-anchor: middle; visibility: inherit; font-family: Roboto, sans-serif; font-size: 12px; font-weight: 200;" fill="rgb(50, 49, 63)" stroke="none" stroke-width="1px">40</text><text x="233.33333333333334" y="0" dx="0em" dy="0.95em" style="text-anchor: middle; visibility: inherit; font-family: Roboto, sans-serif; font-size: 12px; font-weight: 200;" fill="rgb(50, 49, 63)" stroke="none" stroke-width="1px">45</text><text x="256.66666666666663" y="0" dx="0em" dy="0.95em" style="text-anchor: middle; visibility: inherit; font-family: Roboto, sans-serif; font-size: 12px; font-weight: 200;" fill="rgb(50, 49, 63)" stroke="none" stroke-width="1px">50</text><text x="280" y="0" dx="0em" dy="0.95em" style="text-anchor: middle; visibility: hidden; font-family: Roboto, sans-serif; font-size: 12px; font-weight: 200;" fill="rgb(50, 49, 63)" stroke="none" stroke-width="1px">55</text></g><line x1="0" y1="0" x2="280" y2="0" fill="rgb(0, 0, 0)" stroke="rgb(204, 204, 204)" stroke-width="1px"></line></g></g></g></g></svg>