<svg viewBox="0 0 330 200" xmlns="http://www.w3.org/2000/svg"><g><g><g><g><g><line x1="50" y1="178" x2="45" y2="178" style="visibility: inherit;" fill="rgb(0, 0, 0)" stroke="rgb(204, 204, 204)" stroke-width="1px"></line><line x1="50" y1="160.20000000000007" x2="45" y2="160.20000000000007" style="visibility: inherit;" fill="rgb(0, 0, 0)" stroke="rgb(204, 204, 204)" stroke-width="1px"></line><line x1="50" y1="142.40000000000003" x2="45" y2="142.40000000000003" style="visibility: inherit;" fill="rgb(0, 0, 0)" stroke="rgb(204, 204, 204)" stroke-width="1px"></line><line x1="50" y1="124.60000000000004" x2="45" y2="124.60000000000004" style="visibility: inherit;" fill="rgb(0, 0, 0)" stroke="rgb(204, 204, 204)" stroke-width="1px"></line><line x1="50" y1="106.80000000000001" x2="45" y2="106.80000000000001" style="visibility: inherit;" fill="rgb(0, 0, 0)" stroke="rgb(204, 204, 204)" stroke-width="1px"></line><line x1="50" y1="89" x2="45" y2="89" style="visibility: inherit;" fill="rgb(0, 0, 0)" stroke="rgb(204, 204, 204)" stroke-width="1px"></line><line x1="50" y1="71.20000000000006" x2="45" y2="71.20000000000006" style="visibility: inherit;" fill="rgb(0, 0, 0)" stroke="rgb(204, 204, 204)" stroke-width="1px"></line><line x1="50" y1="53.40000000000005" x2="45" y2="53.40000000000005" style="visibility: inherit;" fill="rgb(0, 0, 0)" stroke="rgb(204, 204, 204)" stroke-width="1px"></line><line x1="50" y1="35.60000000000003" x2="45" y2="35.60000000000003" style="visibility: inherit;" fill="rgb(0, 0, 0)" stroke="rgb(204, 204, 204)" stroke-width="1px"></line><line x1="50" y1="17.800000000000015" x2="45" y2="17.800000000000015" style="visibility: inherit;" fill="rgb(0, 0, 0)" stroke="rgb(204, 204, 204)" stroke-width="1px"></line><line x1="50" y1="0" x2="45" y2="0" style="visibility: inherit;" fill="rgb(0, 0, 0)" stroke="rgb(204, 204, 204)" stroke-width="1px"></line></g><g transform="translate(40, 0)"><text x="0" y="178" dx="0em" dy="0.3em" style="text-anchor: end; visibility: hidden; font-family: Roboto, sans-serif; font-size: 12px; font-weight: 200;" fill="rgb(50, 49, 63)" stroke="none" stroke-width="1px">1.1</text><text x="0" y="160.20000000000007" dx="0em" dy="0.3em" style="text-anchor: end; visibility: inherit; font-family: Roboto, sans-serif; font-size: 12px; font-weight: 200;" fill="rgb(50, 49, 63)" stroke="none" stroke-width="1px">1.15</text><text x="0" y="142.40000000000003" dx="0em" dy="0.3em" style="text-anchor: end; visibility: hidden; font-family: Roboto, sans-serif; font-size: 12px; font-weight: 200;" fill="rgb(50, 49, 63)" stroke="none" stroke-width="1px">1.2</text><text x="0" y="124.60000000000004" dx="0em" dy="0.3em" style="text-anchor: end; visibility: inherit; font-family: Roboto, sans-serif; font-size: 12px; font-weight: 200;" fill="rgb(50, 49, 63)" stroke="none" stroke-width="1px">1.25</text><text x="0" y="106.80000000000001" dx="0em" dy="0.3em" style="text-anchor: end; visibility: hidden; font-family: Roboto, sans-serif; font-size: 12px; font-weight: 200;" fill="rgb(50, 49, 63)" stroke="none" stroke-width="1px">1.3</text><text x="0" y="89" dx="0em" dy="0.3em" style="text-anchor: end; visibility: inherit; font-family: Roboto, sans-serif; font-size: 12px; font-weight: 200;" fill="rgb(50, 49, 63)" stroke="none" stroke-width="1px">1.35</text><text x="0" y="71.20000000000006" dx="0em" dy="0.3em" style="text-anchor: end; visibility: hidden; font-family: Roboto, sans-serif; font-size: 12px; font-weight: 200;" fill="rgb(50, 49, 63)" stroke="none" stroke-width="1px">1.4</text><text x="0" y="53.40000000000005" dx="0em" dy="0.3em" style="text-anchor: end; visibility: inherit; font-family: Roboto, sans-serif; font-size: 12px; font-weight: 200;" fill="rgb(50, 49, 63)" stroke="none" stroke-width="1px">1.45</text><text x="0" y="35.60000000000003" dx="0em" dy="0.3em" style="text-anchor: end; visibility: hidden; font-family: Roboto, sans-serif; font-size: 12px; font-weight: 200;" fill="rgb(50, 49, 63)" stroke="none" stroke-width="1px">1.5</text><text x="0" y="17.800000000000015" dx="0em" dy="0.3em" style="text-anchor: end; visibility: inherit; font-family: Roboto, sans-serif; font-size: 12px; font-weight: 200;" fill="rgb(50, 49, 63)" stroke="none" stroke-width="1px">1.55</text><text x="0" y="0" dx="0em" dy="0.3em" style="text-anchor: end; visibility: hidden; font-family: Roboto, sans-serif; font-size: 12px; font-weight: 200;" fill="rgb(50, 49, 63)" stroke="none" stroke-width="1px">1.6</text></g><line x1="50" y1="0" x2="50" y2="178" fill="rgb(0, 0, 0)" stroke="rgb(204, 204, 204)" stroke-width="1px"></line></g></g><g transform="translate(50, 0)" clip-path="url(#clip_0)"><clipPath id="clip_0"><rect width="280" height="178"></rect></clipPath><g><g><g><line x1="0" y1="0" x2="0" y2="178" fill="rgb(0, 0, 0)" stroke="rgb(60, 60, 60)" stroke-width="1px" opacity="0.25"></line><line x1="23.333333333333332" y1="0" x2="23.333333333333332" y2="178" fill="rgb(0, 0, 0)" stroke="rgb(60, 60, 60)" stroke-width="1px" opacity="0.25"></line><line x1="46.666666666666664" y1="0" x2="46.666666666666664" y2="178" fill="rgb(0, 0, 0)" stroke="rgb(60, 60, 60)" stroke-width="1px" opacity="0.25"></line><line x1="70" y1="0" x2="70" y2="178" fill="rgb(0, 0, 0)" stroke="rgb(60, 60, 60)" stroke-width="1px" opacity="0.25"></line><line x1="93.33333333333333" y1="0" x2="93.33333333333333" y2="178" fill="rgb(0, 0, 0)" stroke="rgb(60, 60, 60)" stroke-width="1px" opacity="0.25"></line><line x1="116.66666666666667" y1="0" x2="116.66666666666667" y2="178" fill="rgb(0, 0, 0)" stroke="rgb(60, 60, 60)" stroke-width="1px" opacity="0.25"></line><line x1="140" y1="0" x2="140" y2="178" fill="rgb(0, 0, 0)" stroke="rgb(60, 60, 60)" stroke-width="1px" opacity="0.25"></line><line x1="163.33333333333334" y1="0" x2="163.33333333333334" y2="178" fill="rgb(0, 0, 0)" stroke="rgb(60, 60, 60)" stroke-width="1px" opacity="0.25"></line><line x1="186.66666666666666" y1="0" x2="186.66666666666666" y2="178" fill="rgb(0, 0, 0)" stroke="rgb(60, 60, 60)" stroke-width="1px" opacity="0.25"></line><line x1="210" y1="0" x2="210" y2="178" fill="rgb(0, 0, 0)" stroke="rgb(60, 60, 60)" stroke-width="1px" opacity="0.25"></line><line x1="233.33333333333334" y1="0" x2="233.33333333333334" y2="178" fill="rgb(0, 0, 0)" stroke="rgb(60, 60, 60)" stroke-width="1px" opacity="0.25"></line><line x1="256.66666666666663" y1="0" x2="256.66666666666663" y2="178" fill="rgb(0, 0, 0)" stroke="rgb(60, 60, 60)" stroke-width="1px" opacity="0.25"></line><line x1="280" y1="0" x2="280" y2="178" fill="rgb(0, 0, 0)" stroke="rgb(60, 60, 60)" stroke-width="1px" opacity="0.25"></line></g><g><line x1="0" y1="178" x2="280" y2="178" fill="rgb(0, 0, 0)" stroke="rgb(60, 60, 60)" stroke-width="1px" opacity="0.25"></line><line x1="0" y1="160.20000000000007" x2="280" y2="160.20000000000007" fill="rgb(0, 0, 0)" stroke="rgb(60, 60, 60)" stroke-width="1px" opacity="0.25"></line><line x1="0" y1="142.40000000000003" x2="280" y2="142.40000000000003" fill="rgb(0, 0, 0)" stroke="rgb(60, 60, 60)" stroke-width="1px" opacity="0.25"></line><line x1="0" y1="124.60000000000004" x2="280" y2="124.60000000000004" fill="rgb(0, 0, 0)" stroke="rgb(60, 60, 60)" stroke-width="1px" opacity="0.25"></line><line x1="0" y1="106.80000000000001" x2="280" y2="106.80000000000001" fill="rgb(0, 0, 0)" stroke="rgb(60, 60, 60)" stroke-width="1px" opacity="0.25"></line><line x1="0" y1="89" x2="280" y2="89" fill="rgb(0, 0, 0)" stroke="rgb(60, 60, 60)" stroke-width="1px" opacity="0.25"></line><line x1="0" y1="71.20000000000006" x2="280" y2="71.20000000000006" fill="rgb(0, 0, 0)" stroke="rgb(60, 60, 60)" stroke-width="1px" opacity="0.25"></line><line x1="0" y1="53.40000000000005" x2="280" y2="53.40000000000005" fill="rgb(0, 0, 0)" stroke="rgb(60, 60, 60)" stroke-width="1px" opacity="0.25"></line><line x1="0" y1="35.60000000000003" x2="280" y2="35.60000000000003" fill="rgb(0, 0, 0)" stroke="rgb(60, 60, 60)" stroke-width="1px" opacity="0.25"></line><line x1="0" y1="17.800000000000015" x2="280" y2="17.800000000000015" fill="rgb(0, 0, 0)" stroke="rgb(60, 60, 60)" stroke-width="1px" opacity="0.25"></line><line x1="0" y1="0" x2="280" y2="0" fill="rgb(0, 0, 0)" stroke="rgb(60, 60, 60)" stroke-width="1px" opacity="0.25"></line></g></g></g><g><g><line x1="0" y1="569.6" x2="280" y2="569.6" fill="rgb(0, 0, 0)" stroke="rgb(153, 153, 153)" stroke-width="1.5px"></line></g></g><g><g><line x1="23.333333333333332" y1="0" x2="23.333333333333332" y2="178" fill="rgb(0, 0, 0)" stroke="rgb(153, 153, 153)" stroke-width="1.5px"></line></g></g><g><g><g><g><g><path stroke="rgb(0, 119, 187)" stroke-width="2px" d="M28,-12.603778266906707L32.666666666666664,0.45582351684573474L37.333333333333336,-1.3424657821654957L42,8.505135154724153L46.666666666666664,22.192275142669708L51.33333333333333,25.910694694519073L56,34.62247142791751L60.66666666666667,37.15303716659549L65.33333333333333,27.660519218444854L70,33.15613613128665L74.66666666666667,36.08991012573245L79.33333333333333,37.927242851257354L84,39.58862552642825L88.66666666666666,43.147476291656524L93.33333333333333,44.32489023208621L98,47.319139099121124L102.66666666666666,44.95009431838992L107.33333333333334,45.12133369445804L112,40.68358144760135L116.66666666666667,44.206529235839874L121.33333333333334,41.30789432525638L126,42.822057819366485L130.66666666666666,44.3511172294617L135.33333333333334,43.45082674026492L140,46.57735643386844L144.66666666666669,46.74307880401614L149.33333333333334,47.401936626434356L154,47.56243906021121L158.66666666666666,46.945383167266876L163.33333333333334,48.54336271286014L168,46.61678180694583L172.66666666666669,49.726760482788116L177.33333333333331,51.30458173751834L182,50.74019203186038L186.66666666666666,52.80321273803714L191.33333333333334,46.418212032318145L196,43.777857875824004L200.66666666666666,47.29949007034305L205.33333333333331,44.89547595977786L210,46.98094663619998L214.66666666666669,46.22515926361087L219.33333333333334,46.98693046569827L224,49.20115957260135L228.66666666666666,49.09845838546756L233.33333333333334,47.748362159729034L238,48.9247575759888L242.66666666666669,47.027247047424346L247.33333333333331,47.92163858413699L252,46.41430768966678" style="fill: none;" fill="none"></path></g><g><path stroke="rgb(238, 51, 119)" stroke-width="2px" d="M23.333333333333332,1.5913930892944652L28,42.98124465942386L32.666666666666664,54.50894365310672L37.333333333333336,52.98811731338504L42,63.56939516067508L46.666666666666664,76.13963851928715L51.33333333333333,80.16162071228031L56,84.1468935966492L60.66666666666667,84.98675165176395L65.33333333333333,75.45298347473148L70,83.24469337463383L74.66666666666667,86.1128998756409L79.33333333333333,82.84763870239262L84,89.7158018112183L88.66666666666666,89.70315513610844L93.33333333333333,93.4230600357056L98,95.71465454101566L102.66666666666666,95.10685024261478L107.33333333333334,95.90872583389286L112,90.30060443878178L116.66666666666667,91.7917238235474L121.33333333333334,96.14633903503422L126,92.07296380996708L130.66666666666666,90.67809495925907L135.33333333333334,93.47301015853886L140,92.94970092773441L144.66666666666669,93.82979068756107L149.33333333333334,95.73426113128666L154,96.09957180023197L158.66666666666666,96.6356974601746L163.33333333333334,95.67998228073124L168,99.43829402923588L172.66666666666669,98.52556905746464L177.33333333333331,99.22491321563724L182,97.26128349304203L186.66666666666666,98.00064716339115L191.33333333333334,95.57091531753544L196,93.5975247383118L200.66666666666666,92.24700412750248L205.33333333333331,92.30658779144291L210,90.46984920501713L214.66666666666669,94.83511648178104L219.33333333333334,94.81580696105961L224,93.29570207595829L228.66666666666666,93.04013738632206L233.33333333333334,93.53055677413944L238,93.25873813629154L242.66666666666669,92.16115102767948L247.33333333333331,94.8102899551392L252,95.83785352706913" style="fill: none;" fill="none"></path></g><g><path stroke="rgb(204, 51, 17)" stroke-width="2px" d="M23.333333333333332,49.052539920806915L28,85.45760688781742L32.666666666666664,98.0186410903931L37.333333333333336,96.88035545349125L42,107.1876502990723L46.666666666666664,116.13530025482181L51.33333333333333,122.6858535766602L56,126.72375020980839L60.66666666666667,126.3967190742493L65.33333333333333,119.94661769866947L70,123.85974512100223L74.66666666666667,126.14230022430424L79.33333333333333,127.14384899139408L84,129.70552215576174L88.66666666666666,131.5802432060242L93.33333333333333,131.24901065826418L98,133.15152893066409L102.66666666666666,134.538928604126L107.33333333333334,134.91119918823244L112,128.7043977737427L116.66666666666667,128.10991916656496L121.33333333333334,129.88639507293703L126,130.451845741272L130.66666666666666,130.29214963912966L135.33333333333334,130.6895438194275L140,130.01625690460207L144.66666666666669,133.50839433670046L149.33333333333334,132.31740007400515L154,132.07859859466555L158.66666666666666,133.95157966613772L163.33333333333334,133.10671386718752L168,133.33227453231814L172.66666666666669,133.29242477416994L177.33333333333331,133.23407182693484L182,133.18076906204226L186.66666666666666,134.53846178054812L191.33333333333334,130.7183595657349L196,130.20094928741457L200.66666666666666,131.57014284133913L205.33333333333331,130.1450577735901L210,129.60808334350588L214.66666666666669,128.2205987930298L219.33333333333334,129.3281589508057L224,128.96081123352053L228.66666666666666,127.48569116592411L233.33333333333334,128.33637104034426L238,128.87343034744265L242.66666666666669,129.174107170105L247.33333333333331,127.53776321411137L252,128.38810358047488" style="fill: none;" fill="none"></path></g><g><path stroke="rgb(51, 187, 238)" stroke-width="2px" d="M23.333333333333332,69.95745143890385L28,106.86006746292118L32.666666666666664,118.17111787796024L37.333333333333336,115.72941837310795L42,126.76177511215214L46.666666666666664,134.0632353782654L51.33333333333333,138.46958312988284L56,143.6233578681946L60.66666666666667,143.86126813888552L65.33333333333333,138.85662231445315L70,140.61616525650027L74.66666666666667,141.5327521324158L79.33333333333333,143.16608295440676L84,144.77653942108157L88.66666666666666,145.21705112457278L93.33333333333333,147.71629724502566L98,147.1205879211426L102.66666666666666,149.117701625824L107.33333333333334,149.1988864898682L112,143.05485162734988L116.66666666666667,143.7884436607361L121.33333333333334,143.05213556289675L126,142.6945911407471L130.66666666666666,143.23937425613406L135.33333333333334,141.76760683059695L140,143.96040449142458L144.66666666666669,144.72268495559695L149.33333333333334,144.2880297660828L154,143.2957325935364L158.66666666666666,143.4648500442505L163.33333333333334,144.83773574829104L168,144.7270561218262L172.66666666666669,144.8318367958069L177.33333333333331,145.9295512199402L182,144.79657039642336L186.66666666666666,145.6279407501221L191.33333333333334,143.237761592865L196,142.08521661758425L200.66666666666666,142.2887941360474L205.33333333333331,140.33585891723635L210,140.87253627777102L214.66666666666669,141.60765609741213L219.33333333333334,140.84686098098757L224,138.95979032516482L228.66666666666666,140.25187311172488L233.33333333333334,138.97871789932253L238,138.83128652572634L242.66666666666669,138.31952056884768L247.33333333333331,138.9578805923462L252,139.75708255767825" style="fill: none;" fill="none"></path></g><g><path stroke="rgb(255, 112, 67)" stroke-width="2px" d="M23.333333333333332,43.60207757949832L28,87.98469266891483L32.666666666666664,106.77548751831058L37.333333333333336,117.16362771987919L42,122.35788879394535L46.666666666666664,124.51686296463016L51.33333333333333,124.80141315460209L56,123.72623357772831L60.66666666666667,127.15348253250126L65.33333333333333,130.45256719589236L70,132.35644350051882L74.66666666666667,133.9535318374634L79.33333333333333,135.33897933959963L84,136.14654169082644L88.66666666666666,136.71309576034548L93.33333333333333,137.5285092353821L98,138.02389392852785L102.66666666666666,138.08653316497805L107.33333333333334,138.05920276641848L112,134.50434122085574L116.66666666666667,134.12146100997927L121.33333333333334,133.69949493408205L126,133.33974370956423L130.66666666666666,133.32688484191897L135.33333333333334,132.8381205558777L140,132.67676935195925L144.66666666666669,132.778918838501L149.33333333333334,132.35177526474L154,132.16300878524783L158.66666666666666,131.9645238876343L163.33333333333334,132.11399230957034L168,132.1411105155945L172.66666666666669,132.22658166885378L177.33333333333331,132.211855506897L182,132.38093051910403L186.66666666666666,132.35975370407107L191.33333333333334,132.3503323554993L196,132.31425962448122L200.66666666666666,132.30021247863772L205.33333333333331,129.11049184799197L210,128.90538654327395L214.66666666666669,128.43495569229128" style="fill: none;" fill="none"></path></g></g></g></g></g></g><g transform="translate(50, 178)" clip-path="url(#clip_1)"><clipPath id="clip_1"><rect width="280" height="22"></rect></clipPath><g><g><line x1="0" y1="0" x2="0" y2="5" style="visibility: inherit;" fill="rgb(0, 0, 0)" stroke="rgb(204, 204, 204)" stroke-width="1px"></line><line x1="23.333333333333332" y1="0" x2="23.333333333333332" y2="5" style="visibility: inherit;" fill="rgb(0, 0, 0)" stroke="rgb(204, 204, 204)" stroke-width="1px"></line><line x1="46.666666666666664" y1="0" x2="46.666666666666664" y2="5" style="visibility: inherit;" fill="rgb(0, 0, 0)" stroke="rgb(204, 204, 204)" stroke-width="1px"></line><line x1="70" y1="0" x2="70" y2="5" style="visibility: inherit;" fill="rgb(0, 0, 0)" stroke="rgb(204, 204, 204)" stroke-width="1px"></line><line x1="93.33333333333333" y1="0" x2="93.33333333333333" y2="5" style="visibility: inherit;" fill="rgb(0, 0, 0)" stroke="rgb(204, 204, 204)" stroke-width="1px"></line><line x1="116.66666666666667" y1="0" x2="116.66666666666667" y2="5" style="visibility: inherit;" fill="rgb(0, 0, 0)" stroke="rgb(204, 204, 204)" stroke-width="1px"></line><line x1="140" y1="0" x2="140" y2="5" style="visibility: inherit;" fill="rgb(0, 0, 0)" stroke="rgb(204, 204, 204)" stroke-width="1px"></line><line x1="163.33333333333334" y1="0" x2="163.33333333333334" y2="5" style="visibility: inherit;" fill="rgb(0, 0, 0)" stroke="rgb(204, 204, 204)" stroke-width="1px"></line><line x1="186.66666666666666" y1="0" x2="186.66666666666666" y2="5" style="visibility: inherit;" fill="rgb(0, 0, 0)" stroke="rgb(204, 204, 204)" stroke-width="1px"></line><line x1="210" y1="0" x2="210" y2="5" style="visibility: inherit;" fill="rgb(0, 0, 0)" stroke="rgb(204, 204, 204)" stroke-width="1px"></line><line x1="233.33333333333334" y1="0" x2="233.33333333333334" y2="5" style="visibility: inherit;" fill="rgb(0, 0, 0)" stroke="rgb(204, 204, 204)" stroke-width="1px"></line><line x1="256.66666666666663" y1="0" x2="256.66666666666663" y2="5" style="visibility: inherit;" fill="rgb(0, 0, 0)" stroke="rgb(204, 204, 204)" stroke-width="1px"></line><line x1="280" y1="0" x2="280" y2="5" style="visibility: inherit;" fill="rgb(0, 0, 0)" stroke="rgb(204, 204, 204)" stroke-width="1px"></line></g><g transform="translate(0, 8)"><text x="0" y="0" dx="0em" dy="0.95em" style="text-anchor: middle; visibility: hidden; font-family: Roboto, sans-serif; font-size: 12px; font-weight: 200;" fill="rgb(50, 49, 63)" stroke="none" stroke-width="1px">-5</text><text x="23.333333333333332" y="0" dx="0em" dy="0.95em" style="text-anchor: middle; visibility: inherit; font-family: Roboto, sans-serif; font-size: 12px; font-weight: 200;" fill="rgb(50, 49, 63)" stroke="none" stroke-width="1px">0</text><text x="46.666666666666664" y="0" dx="0em" dy="0.95em" style="text-anchor: middle; visibility: inherit; font-family: Roboto, sans-serif; font-size: 12px; font-weight: 200;" fill="rgb(50, 49, 63)" stroke="none" stroke-width="1px">5</text><text x="70" y="0" dx="0em" dy="0.95em" style="text-anchor: middle; visibility: inherit; font-family: Roboto, sans-serif; font-size: 12px; font-weight: 200;" fill="rgb(50, 49, 63)" stroke="none" stroke-width="1px">10</text><text x="93.33333333333333" y="0" dx="0em" dy="0.95em" style="text-anchor: middle; visibility: inherit; font-family: Roboto, sans-serif; font-size: 12px; font-weight: 200;" fill="rgb(50, 49, 63)" stroke="none" stroke-width="1px">15</text><text x="116.66666666666667" y="0" dx="0em" dy="0.95em" style="text-anchor: middle; visibility: inherit; font-family: Roboto, sans-serif; font-size: 12px; font-weight: 200;" fill="rgb(50, 49, 63)" stroke="none" stroke-width="1px">20</text><text x="140" y="0" dx="0em" dy="0.95em" style="text-anchor: middle; visibility: inherit; font-family: Roboto, sans-serif; font-size: 12px; font-weight: 200;" fill="rgb(50, 49, 63)" stroke="none" stroke-width="1px">25</text><text x="163.33333333333334" y="0" dx="0em" dy="0.95em" style="text-anchor: middle; visibility: inherit; font-family: Roboto, sans-serif; font-size: 12px; font-weight: 200;" fill="rgb(50, 49, 63)" stroke="none" stroke-width="1px">30</text><text x="186.66666666666666" y="0" dx="0em" dy="0.95em" style="text-anchor: middle; visibility: inherit; font-family: Roboto, sans-serif; font-size: 12px; font-weight: 200;" fill="rgb(50, 49, 63)" stroke="none" stroke-width="1px">35</text><text x="210" y="0" dx="0em" dy="0.95em" style="text-anchor: middle; visibility: inherit; font-family: Roboto, sans-serif; font-size: 12px; font-weight: 200;" fill="rgb(50, 49, 63)" stroke="none" stroke-width="1px">40</text><text x="233.33333333333334" y="0" dx="0em" dy="0.95em" style="text-anchor: middle; visibility: inherit; font-family: Roboto, sans-serif; font-size: 12px; font-weight: 200;" fill="rgb(50, 49, 63)" stroke="none" stroke-width="1px">45</text><text x="256.66666666666663" y="0" dx="0em" dy="0.95em" style="text-anchor: middle; visibility: inherit; font-family: Roboto, sans-serif; font-size: 12px; font-weight: 200;" fill="rgb(50, 49, 63)" stroke="none" stroke-width="1px">50</text><text x="280" y="0" dx="0em" dy="0.95em" style="text-anchor: middle; visibility: hidden; font-family: Roboto, sans-serif; font-size: 12px; font-weight: 200;" fill="rgb(50, 49, 63)" stroke="none" stroke-width="1px">55</text></g><line x1="0" y1="0" x2="280" y2="0" fill="rgb(0, 0, 0)" stroke="rgb(204, 204, 204)" stroke-width="1px"></line></g></g></g></g></svg>