<svg viewBox="0 0 330 200" xmlns="http://www.w3.org/2000/svg"><g><g><g><g><g><line x1="50" y1="178" x2="45" y2="178" style="visibility: inherit;" fill="rgb(0, 0, 0)" stroke="rgb(204, 204, 204)" stroke-width="1px"></line><line x1="50" y1="164.3076923076923" x2="45" y2="164.3076923076923" style="visibility: inherit;" fill="rgb(0, 0, 0)" stroke="rgb(204, 204, 204)" stroke-width="1px"></line><line x1="50" y1="150.61538461538458" x2="45" y2="150.61538461538458" style="visibility: inherit;" fill="rgb(0, 0, 0)" stroke="rgb(204, 204, 204)" stroke-width="1px"></line><line x1="50" y1="136.92307692307688" x2="45" y2="136.92307692307688" style="visibility: inherit;" fill="rgb(0, 0, 0)" stroke="rgb(204, 204, 204)" stroke-width="1px"></line><line x1="50" y1="123.23076923076918" x2="45" y2="123.23076923076918" style="visibility: inherit;" fill="rgb(0, 0, 0)" stroke="rgb(204, 204, 204)" stroke-width="1px"></line><line x1="50" y1="109.53846153846146" x2="45" y2="109.53846153846146" style="visibility: inherit;" fill="rgb(0, 0, 0)" stroke="rgb(204, 204, 204)" stroke-width="1px"></line><line x1="50" y1="95.84615384615378" x2="45" y2="95.84615384615378" style="visibility: inherit;" fill="rgb(0, 0, 0)" stroke="rgb(204, 204, 204)" stroke-width="1px"></line><line x1="50" y1="82.15384615384608" x2="45" y2="82.15384615384608" style="visibility: inherit;" fill="rgb(0, 0, 0)" stroke="rgb(204, 204, 204)" stroke-width="1px"></line><line x1="50" y1="68.46153846153838" x2="45" y2="68.46153846153838" style="visibility: inherit;" fill="rgb(0, 0, 0)" stroke="rgb(204, 204, 204)" stroke-width="1px"></line><line x1="50" y1="54.769230769230674" x2="45" y2="54.769230769230674" style="visibility: inherit;" fill="rgb(0, 0, 0)" stroke="rgb(204, 204, 204)" stroke-width="1px"></line><line x1="50" y1="41.07692307692311" x2="45" y2="41.07692307692311" style="visibility: inherit;" fill="rgb(0, 0, 0)" stroke="rgb(204, 204, 204)" stroke-width="1px"></line><line x1="50" y1="27.384615384615405" x2="45" y2="27.384615384615405" style="visibility: inherit;" fill="rgb(0, 0, 0)" stroke="rgb(204, 204, 204)" stroke-width="1px"></line><line x1="50" y1="13.692307692307702" x2="45" y2="13.692307692307702" style="visibility: inherit;" fill="rgb(0, 0, 0)" stroke="rgb(204, 204, 204)" stroke-width="1px"></line><line x1="50" y1="0" x2="45" y2="0" style="visibility: inherit;" fill="rgb(0, 0, 0)" stroke="rgb(204, 204, 204)" stroke-width="1px"></line></g><g transform="translate(40, 0)"><text x="0" y="178" dx="0em" dy="0.3em" style="text-anchor: end; visibility: hidden; font-family: Roboto, sans-serif; font-size: 12px; font-weight: 200;" fill="rgb(50, 49, 63)" stroke="none" stroke-width="1px">1.18</text><text x="0" y="164.3076923076923" dx="0em" dy="0.3em" style="text-anchor: end; visibility: inherit; font-family: Roboto, sans-serif; font-size: 12px; font-weight: 200;" fill="rgb(50, 49, 63)" stroke="none" stroke-width="1px">1.2</text><text x="0" y="150.61538461538458" dx="0em" dy="0.3em" style="text-anchor: end; visibility: hidden; font-family: Roboto, sans-serif; font-size: 12px; font-weight: 200;" fill="rgb(50, 49, 63)" stroke="none" stroke-width="1px">1.22</text><text x="0" y="136.92307692307688" dx="0em" dy="0.3em" style="text-anchor: end; visibility: inherit; font-family: Roboto, sans-serif; font-size: 12px; font-weight: 200;" fill="rgb(50, 49, 63)" stroke="none" stroke-width="1px">1.24</text><text x="0" y="123.23076923076918" dx="0em" dy="0.3em" style="text-anchor: end; visibility: hidden; font-family: Roboto, sans-serif; font-size: 12px; font-weight: 200;" fill="rgb(50, 49, 63)" stroke="none" stroke-width="1px">1.26</text><text x="0" y="109.53846153846146" dx="0em" dy="0.3em" style="text-anchor: end; visibility: inherit; font-family: Roboto, sans-serif; font-size: 12px; font-weight: 200;" fill="rgb(50, 49, 63)" stroke="none" stroke-width="1px">1.28</text><text x="0" y="95.84615384615378" dx="0em" dy="0.3em" style="text-anchor: end; visibility: hidden; font-family: Roboto, sans-serif; font-size: 12px; font-weight: 200;" fill="rgb(50, 49, 63)" stroke="none" stroke-width="1px">1.3</text><text x="0" y="82.15384615384608" dx="0em" dy="0.3em" style="text-anchor: end; visibility: inherit; font-family: Roboto, sans-serif; font-size: 12px; font-weight: 200;" fill="rgb(50, 49, 63)" stroke="none" stroke-width="1px">1.32</text><text x="0" y="68.46153846153838" dx="0em" dy="0.3em" style="text-anchor: end; visibility: hidden; font-family: Roboto, sans-serif; font-size: 12px; font-weight: 200;" fill="rgb(50, 49, 63)" stroke="none" stroke-width="1px">1.34</text><text x="0" y="54.769230769230674" dx="0em" dy="0.3em" style="text-anchor: end; visibility: inherit; font-family: Roboto, sans-serif; font-size: 12px; font-weight: 200;" fill="rgb(50, 49, 63)" stroke="none" stroke-width="1px">1.36</text><text x="0" y="41.07692307692311" dx="0em" dy="0.3em" style="text-anchor: end; visibility: hidden; font-family: Roboto, sans-serif; font-size: 12px; font-weight: 200;" fill="rgb(50, 49, 63)" stroke="none" stroke-width="1px">1.38</text><text x="0" y="27.384615384615405" dx="0em" dy="0.3em" style="text-anchor: end; visibility: inherit; font-family: Roboto, sans-serif; font-size: 12px; font-weight: 200;" fill="rgb(50, 49, 63)" stroke="none" stroke-width="1px">1.4</text><text x="0" y="13.692307692307702" dx="0em" dy="0.3em" style="text-anchor: end; visibility: hidden; font-family: Roboto, sans-serif; font-size: 12px; font-weight: 200;" fill="rgb(50, 49, 63)" stroke="none" stroke-width="1px">1.42</text><text x="0" y="0" dx="0em" dy="0.3em" style="text-anchor: end; visibility: hidden; font-family: Roboto, sans-serif; font-size: 12px; font-weight: 200;" fill="rgb(50, 49, 63)" stroke="none" stroke-width="1px">1.44</text></g><line x1="50" y1="0" x2="50" y2="178" fill="rgb(0, 0, 0)" stroke="rgb(204, 204, 204)" stroke-width="1px"></line></g></g><g transform="translate(50, 0)" clip-path="url(#clip_0)"><clipPath id="clip_0"><rect width="280" height="178"></rect></clipPath><g><g><g><line x1="0" y1="0" x2="0" y2="178" fill="rgb(0, 0, 0)" stroke="rgb(60, 60, 60)" stroke-width="1px" opacity="0.25"></line><line x1="23.333333333333332" y1="0" x2="23.333333333333332" y2="178" fill="rgb(0, 0, 0)" stroke="rgb(60, 60, 60)" stroke-width="1px" opacity="0.25"></line><line x1="46.666666666666664" y1="0" x2="46.666666666666664" y2="178" fill="rgb(0, 0, 0)" stroke="rgb(60, 60, 60)" stroke-width="1px" opacity="0.25"></line><line x1="70" y1="0" x2="70" y2="178" fill="rgb(0, 0, 0)" stroke="rgb(60, 60, 60)" stroke-width="1px" opacity="0.25"></line><line x1="93.33333333333333" y1="0" x2="93.33333333333333" y2="178" fill="rgb(0, 0, 0)" stroke="rgb(60, 60, 60)" stroke-width="1px" opacity="0.25"></line><line x1="116.66666666666667" y1="0" x2="116.66666666666667" y2="178" fill="rgb(0, 0, 0)" stroke="rgb(60, 60, 60)" stroke-width="1px" opacity="0.25"></line><line x1="140" y1="0" x2="140" y2="178" fill="rgb(0, 0, 0)" stroke="rgb(60, 60, 60)" stroke-width="1px" opacity="0.25"></line><line x1="163.33333333333334" y1="0" x2="163.33333333333334" y2="178" fill="rgb(0, 0, 0)" stroke="rgb(60, 60, 60)" stroke-width="1px" opacity="0.25"></line><line x1="186.66666666666666" y1="0" x2="186.66666666666666" y2="178" fill="rgb(0, 0, 0)" stroke="rgb(60, 60, 60)" stroke-width="1px" opacity="0.25"></line><line x1="210" y1="0" x2="210" y2="178" fill="rgb(0, 0, 0)" stroke="rgb(60, 60, 60)" stroke-width="1px" opacity="0.25"></line><line x1="233.33333333333334" y1="0" x2="233.33333333333334" y2="178" fill="rgb(0, 0, 0)" stroke="rgb(60, 60, 60)" stroke-width="1px" opacity="0.25"></line><line x1="256.66666666666663" y1="0" x2="256.66666666666663" y2="178" fill="rgb(0, 0, 0)" stroke="rgb(60, 60, 60)" stroke-width="1px" opacity="0.25"></line><line x1="280" y1="0" x2="280" y2="178" fill="rgb(0, 0, 0)" stroke="rgb(60, 60, 60)" stroke-width="1px" opacity="0.25"></line></g><g><line x1="0" y1="178" x2="280" y2="178" fill="rgb(0, 0, 0)" stroke="rgb(60, 60, 60)" stroke-width="1px" opacity="0.25"></line><line x1="0" y1="164.3076923076923" x2="280" y2="164.3076923076923" fill="rgb(0, 0, 0)" stroke="rgb(60, 60, 60)" stroke-width="1px" opacity="0.25"></line><line x1="0" y1="150.61538461538458" x2="280" y2="150.61538461538458" fill="rgb(0, 0, 0)" stroke="rgb(60, 60, 60)" stroke-width="1px" opacity="0.25"></line><line x1="0" y1="136.92307692307688" x2="280" y2="136.92307692307688" fill="rgb(0, 0, 0)" stroke="rgb(60, 60, 60)" stroke-width="1px" opacity="0.25"></line><line x1="0" y1="123.23076923076918" x2="280" y2="123.23076923076918" fill="rgb(0, 0, 0)" stroke="rgb(60, 60, 60)" stroke-width="1px" opacity="0.25"></line><line x1="0" y1="109.53846153846146" x2="280" y2="109.53846153846146" fill="rgb(0, 0, 0)" stroke="rgb(60, 60, 60)" stroke-width="1px" opacity="0.25"></line><line x1="0" y1="95.84615384615378" x2="280" y2="95.84615384615378" fill="rgb(0, 0, 0)" stroke="rgb(60, 60, 60)" stroke-width="1px" opacity="0.25"></line><line x1="0" y1="82.15384615384608" x2="280" y2="82.15384615384608" fill="rgb(0, 0, 0)" stroke="rgb(60, 60, 60)" stroke-width="1px" opacity="0.25"></line><line x1="0" y1="68.46153846153838" x2="280" y2="68.46153846153838" fill="rgb(0, 0, 0)" stroke="rgb(60, 60, 60)" stroke-width="1px" opacity="0.25"></line><line x1="0" y1="54.769230769230674" x2="280" y2="54.769230769230674" fill="rgb(0, 0, 0)" stroke="rgb(60, 60, 60)" stroke-width="1px" opacity="0.25"></line><line x1="0" y1="41.07692307692311" x2="280" y2="41.07692307692311" fill="rgb(0, 0, 0)" stroke="rgb(60, 60, 60)" stroke-width="1px" opacity="0.25"></line><line x1="0" y1="27.384615384615405" x2="280" y2="27.384615384615405" fill="rgb(0, 0, 0)" stroke="rgb(60, 60, 60)" stroke-width="1px" opacity="0.25"></line><line x1="0" y1="13.692307692307702" x2="280" y2="13.692307692307702" fill="rgb(0, 0, 0)" stroke="rgb(60, 60, 60)" stroke-width="1px" opacity="0.25"></line><line x1="0" y1="0" x2="280" y2="0" fill="rgb(0, 0, 0)" stroke="rgb(60, 60, 60)" stroke-width="1px" opacity="0.25"></line></g></g></g><g><g><line x1="0" y1="985.8461538461538" x2="280" y2="985.8461538461538" fill="rgb(0, 0, 0)" stroke="rgb(153, 153, 153)" stroke-width="1.5px"></line></g></g><g><g><line x1="23.333333333333332" y1="0" x2="23.333333333333332" y2="178" fill="rgb(0, 0, 0)" stroke="rgb(153, 153, 153)" stroke-width="1.5px"></line></g></g><g><g><g><g><g><path stroke="rgb(0, 119, 187)" stroke-width="2px" d="M28,-5.95571235510021L32.666666666666664,16.804548667027362L37.333333333333336,11.009652137756309L42,38.296388002542315L46.666666666666664,56.948519926804735L51.33333333333333,68.4840406637925L56,75.69116012866677L60.66666666666667,77.34805738008934L65.33333333333333,68.00211877089275L70,74.00031207158011L74.66666666666667,78.64806310947121L79.33333333333333,83.79707820598891L84,87.78744044670687L88.66666666666666,90.20741470043471L93.33333333333333,93.53051302983206L98,96.15541630524851L102.66666666666666,96.54478960770822L107.33333333333334,96.6051012552701L112,88.33081656235912L116.66666666666667,89.76899227729207L121.33333333333334,91.94265996492821L126,92.38687687653757L130.66666666666666,93.43935185212351L135.33333333333334,94.0660543441772L140,95.10343100474428L144.66666666666669,95.91898485330431L149.33333333333334,97.25073785048262L154,98.30337605109578L158.66666666666666,98.54054201566252L163.33333333333334,99.04890636297368L168,99.85393219727732L172.66666666666669,100.71233261548551L177.33333333333331,100.89245143303499L182,100.79451641669637L186.66666666666666,100.78407001495357L191.33333333333334,96.95399475097652L196,95.82570175024175L200.66666666666666,96.2378449440002L205.33333333333331,97.05323556753301L210,96.0974714205815L214.66666666666669,95.88886983578017L219.33333333333334,96.506839788877L224,96.29570821615361L228.66666666666666,95.43396168488718L233.33333333333334,95.63064784270064L238,95.85214420465319L242.66666666666669,97.37935917194069L247.33333333333331,96.52675324219919L252,97.42449089197008" style="fill: none;" fill="none"></path></g><g><path stroke="rgb(204, 51, 17)" stroke-width="2px" d="M23.333333333333332,-44.95988324972301L28,29.447224763723476L32.666666666666664,51.12293709241423L37.333333333333336,48.38540854820834L42,73.1128575985248L46.666666666666664,90.64689808625437L51.33333333333333,101.63692078223592L56,108.5620690125685L60.66666666666667,110.13612956267134L65.33333333333333,99.70401000976558L70,106.71868716753441L74.66666666666667,112.36921116021959L79.33333333333333,115.53357315063472L84,119.67083791586064L88.66666666666666,123.48989549049959L93.33333333333333,125.93141544782193L98,127.94495938374442L102.66666666666666,128.5610522490281L107.33333333333334,128.65833436525782L112,120.80361960484427L116.66666666666667,121.49748919560355L121.33333333333334,123.47659265078026L126,123.9070986601022L130.66666666666666,124.26537759487441L135.33333333333334,126.65393103086026L140,126.77839011412398L144.66666666666669,128.34657456324646L149.33333333333334,129.45870828628537L154,129.91157612433798L158.66666666666666,130.85444549413825L163.33333333333334,131.06786221724286L168,132.2936005592346L172.66666666666669,132.61956093861502L177.33333333333331,132.79502784288843L182,132.46106943717368L186.66666666666666,132.36729665902942L191.33333333333334,127.88970771202669L196,127.70501859371474L200.66666666666666,126.7581502107473L205.33333333333331,127.17992368111238L210,128.04240472500138L214.66666666666669,127.3622460365295L219.33333333333334,127.14066806206331L224,127.65041982210595L228.66666666666666,128.6913874332721L233.33333333333334,127.39293234164894L238,127.8907686747037L242.66666666666669,126.85681973970848L247.33333333333331,127.31997075447664L252,127.3391496951763" style="fill: none;" fill="none"></path></g><g><path stroke="rgb(51, 187, 238)" stroke-width="2px" d="M23.333333333333332,-29.584004072042646L28,44.753570079803424L32.666666666666664,66.55414955432595L37.333333333333336,59.87334918975826L42,87.71203048412612L46.666666666666664,103.18682402830855L51.33333333333333,113.013378730187L56,119.71874446135298L60.66666666666667,121.41465249428377L65.33333333333333,113.06022431300234L70,118.46835914024935L74.66666666666667,122.92636108398433L79.33333333333333,125.84980293420641L84,129.8887246205256L88.66666666666666,132.81551258380594L93.33333333333333,135.0470435435955L98,136.71299978402942L102.66666666666666,137.2341772959782L107.33333333333334,137.23964533439047L112,129.81747689613925L116.66666666666667,131.641190125392L121.33333333333334,130.74851245146527L126,131.28095249029303L130.66666666666666,132.35374898176923L135.33333333333334,133.4904480714064L140,135.03545456666208L144.66666666666669,134.4107923874488L149.33333333333334,135.6428148929889L154,136.31301685479968L158.66666666666666,136.95653152465817L163.33333333333334,137.570257627047L168,137.736257479741L172.66666666666669,138.34223039333634L177.33333333333331,138.12816077012278L182,138.1744350653428L186.66666666666666,138.10490120374237L191.33333333333334,133.27882682360132L196,132.91654887566196L200.66666666666666,133.65310181104218L205.33333333333331,133.00273169003995L210,132.6209483513465L214.66666666666669,131.5776955897991L219.33333333333334,132.34689353062552L224,131.8690522634066L228.66666666666666,131.9595605410062L233.33333333333334,131.56014889937177L238,131.12246098885166L242.66666666666669,130.96641786281876L247.33333333333331,130.6919549795297L252,130.49029045838572" style="fill: none;" fill="none"></path></g><g><path stroke="rgb(238, 51, 119)" stroke-width="2px" d="M23.333333333333332,-5.666232769305941L28,65.9141442225529L32.666666666666664,86.95442152023311L37.333333333333336,82.22367055599501L42,104.43916804973891L46.666666666666664,119.04772637440604L51.33333333333333,130.0079605029179L56,136.57703333634592L60.66666666666667,137.85443239945627L65.33333333333333,128.47943973541257L70,132.2914786338806L74.66666666666667,134.57507837735687L79.33333333333333,138.40368461608884L84,140.3773200328533L88.66666666666666,142.87229618659384L93.33333333333333,145.06522442744324L98,146.5810952553382L102.66666666666666,147.29381733674265L107.33333333333334,147.12316557077258L112,139.08498587975131L116.66666666666667,140.0136546721825L121.33333333333334,139.8980913529029L126,140.86356738897467L130.66666666666666,139.76547101827765L135.33333333333334,139.60240921607382L140,140.5300986583416L144.66666666666669,140.56666106444135L149.33333333333334,140.73821056806122L154,141.16594175192023L158.66666666666666,141.07673927453845L163.33333333333334,141.5735146449162L168,141.76660985213056L172.66666666666669,142.16169603054337L177.33333333333331,141.98402558840235L182,141.8976795489971L186.66666666666666,141.88968152266278L191.33333333333334,137.71454855111926L196,136.63228500806366L200.66666666666666,135.50693005781903L205.33333333333331,136.28804342563333L210,134.98363062051624L214.66666666666669,134.34068723825305L219.33333333333334,133.31457310456491L224,133.31049247888416L228.66666666666666,132.46555812542252L233.33333333333334,131.77438174761255L238,131.7551211943993L242.66666666666669,130.811190861922L247.33333333333331,130.5883886997516L252,130.5111016493577" style="fill: none;" fill="none"></path></g><g><path stroke="rgb(255, 112, 67)" stroke-width="2px" d="M23.333333333333332,-25.6883123471187L28,59.662870517143794L32.666666666666664,95.79901445828948L37.333333333333336,115.77620715361373L42,125.76517075758711L46.666666666666664,129.91704416275022L51.33333333333333,130.46425606654236L56,128.3966030340928L60.66666666666667,134.98746640865616L65.33333333333333,141.33185999210062L70,144.99316057792075L74.66666666666667,148.06448430281415L79.33333333333333,150.72880642230692L84,152.28181094389691L88.66666666666666,153.3713380006643L93.33333333333333,154.9394408372732L98,155.89210370870734L102.66666666666666,156.01256377880387L107.33333333333334,155.96000532003546L112,149.12373311703018L116.66666666666667,148.38742501919083L121.33333333333334,147.57595179631156L126,146.88412251839267L130.66666666666666,146.85939392676718L135.33333333333334,145.91946260745706L140,145.6091718306908L144.66666666666669,145.80561315096338L149.33333333333334,144.98418320142304L154,144.62117074086112L158.66666666666666,144.23946901468128L163.33333333333334,144.5269082876352L168,144.5790586838355L172.66666666666669,144.7434262862572L177.33333333333331,144.7151067440326L182,145.0402509982769L186.66666666666666,144.99952635398276L191.33333333333334,144.9814083759601L196,144.9120377393869L200.66666666666666,144.88502399738016L205.33333333333331,138.75094586152292L210,138.35651258321906L214.66666666666669,137.45183786979086" style="fill: none;" fill="none"></path></g></g></g></g></g></g><g transform="translate(50, 178)" clip-path="url(#clip_1)"><clipPath id="clip_1"><rect width="280" height="22"></rect></clipPath><g><g><line x1="0" y1="0" x2="0" y2="5" style="visibility: inherit;" fill="rgb(0, 0, 0)" stroke="rgb(204, 204, 204)" stroke-width="1px"></line><line x1="23.333333333333332" y1="0" x2="23.333333333333332" y2="5" style="visibility: inherit;" fill="rgb(0, 0, 0)" stroke="rgb(204, 204, 204)" stroke-width="1px"></line><line x1="46.666666666666664" y1="0" x2="46.666666666666664" y2="5" style="visibility: inherit;" fill="rgb(0, 0, 0)" stroke="rgb(204, 204, 204)" stroke-width="1px"></line><line x1="70" y1="0" x2="70" y2="5" style="visibility: inherit;" fill="rgb(0, 0, 0)" stroke="rgb(204, 204, 204)" stroke-width="1px"></line><line x1="93.33333333333333" y1="0" x2="93.33333333333333" y2="5" style="visibility: inherit;" fill="rgb(0, 0, 0)" stroke="rgb(204, 204, 204)" stroke-width="1px"></line><line x1="116.66666666666667" y1="0" x2="116.66666666666667" y2="5" style="visibility: inherit;" fill="rgb(0, 0, 0)" stroke="rgb(204, 204, 204)" stroke-width="1px"></line><line x1="140" y1="0" x2="140" y2="5" style="visibility: inherit;" fill="rgb(0, 0, 0)" stroke="rgb(204, 204, 204)" stroke-width="1px"></line><line x1="163.33333333333334" y1="0" x2="163.33333333333334" y2="5" style="visibility: inherit;" fill="rgb(0, 0, 0)" stroke="rgb(204, 204, 204)" stroke-width="1px"></line><line x1="186.66666666666666" y1="0" x2="186.66666666666666" y2="5" style="visibility: inherit;" fill="rgb(0, 0, 0)" stroke="rgb(204, 204, 204)" stroke-width="1px"></line><line x1="210" y1="0" x2="210" y2="5" style="visibility: inherit;" fill="rgb(0, 0, 0)" stroke="rgb(204, 204, 204)" stroke-width="1px"></line><line x1="233.33333333333334" y1="0" x2="233.33333333333334" y2="5" style="visibility: inherit;" fill="rgb(0, 0, 0)" stroke="rgb(204, 204, 204)" stroke-width="1px"></line><line x1="256.66666666666663" y1="0" x2="256.66666666666663" y2="5" style="visibility: inherit;" fill="rgb(0, 0, 0)" stroke="rgb(204, 204, 204)" stroke-width="1px"></line><line x1="280" y1="0" x2="280" y2="5" style="visibility: inherit;" fill="rgb(0, 0, 0)" stroke="rgb(204, 204, 204)" stroke-width="1px"></line></g><g transform="translate(0, 8)"><text x="0" y="0" dx="0em" dy="0.95em" style="text-anchor: middle; visibility: hidden; font-family: Roboto, sans-serif; font-size: 12px; font-weight: 200;" fill="rgb(50, 49, 63)" stroke="none" stroke-width="1px">-5</text><text x="23.333333333333332" y="0" dx="0em" dy="0.95em" style="text-anchor: middle; visibility: inherit; font-family: Roboto, sans-serif; font-size: 12px; font-weight: 200;" fill="rgb(50, 49, 63)" stroke="none" stroke-width="1px">0</text><text x="46.666666666666664" y="0" dx="0em" dy="0.95em" style="text-anchor: middle; visibility: inherit; font-family: Roboto, sans-serif; font-size: 12px; font-weight: 200;" fill="rgb(50, 49, 63)" stroke="none" stroke-width="1px">5</text><text x="70" y="0" dx="0em" dy="0.95em" style="text-anchor: middle; visibility: inherit; font-family: Roboto, sans-serif; font-size: 12px; font-weight: 200;" fill="rgb(50, 49, 63)" stroke="none" stroke-width="1px">10</text><text x="93.33333333333333" y="0" dx="0em" dy="0.95em" style="text-anchor: middle; visibility: inherit; font-family: Roboto, sans-serif; font-size: 12px; font-weight: 200;" fill="rgb(50, 49, 63)" stroke="none" stroke-width="1px">15</text><text x="116.66666666666667" y="0" dx="0em" dy="0.95em" style="text-anchor: middle; visibility: inherit; font-family: Roboto, sans-serif; font-size: 12px; font-weight: 200;" fill="rgb(50, 49, 63)" stroke="none" stroke-width="1px">20</text><text x="140" y="0" dx="0em" dy="0.95em" style="text-anchor: middle; visibility: inherit; font-family: Roboto, sans-serif; font-size: 12px; font-weight: 200;" fill="rgb(50, 49, 63)" stroke="none" stroke-width="1px">25</text><text x="163.33333333333334" y="0" dx="0em" dy="0.95em" style="text-anchor: middle; visibility: inherit; font-family: Roboto, sans-serif; font-size: 12px; font-weight: 200;" fill="rgb(50, 49, 63)" stroke="none" stroke-width="1px">30</text><text x="186.66666666666666" y="0" dx="0em" dy="0.95em" style="text-anchor: middle; visibility: inherit; font-family: Roboto, sans-serif; font-size: 12px; font-weight: 200;" fill="rgb(50, 49, 63)" stroke="none" stroke-width="1px">35</text><text x="210" y="0" dx="0em" dy="0.95em" style="text-anchor: middle; visibility: inherit; font-family: Roboto, sans-serif; font-size: 12px; font-weight: 200;" fill="rgb(50, 49, 63)" stroke="none" stroke-width="1px">40</text><text x="233.33333333333334" y="0" dx="0em" dy="0.95em" style="text-anchor: middle; visibility: inherit; font-family: Roboto, sans-serif; font-size: 12px; font-weight: 200;" fill="rgb(50, 49, 63)" stroke="none" stroke-width="1px">45</text><text x="256.66666666666663" y="0" dx="0em" dy="0.95em" style="text-anchor: middle; visibility: inherit; font-family: Roboto, sans-serif; font-size: 12px; font-weight: 200;" fill="rgb(50, 49, 63)" stroke="none" stroke-width="1px">50</text><text x="280" y="0" dx="0em" dy="0.95em" style="text-anchor: middle; visibility: hidden; font-family: Roboto, sans-serif; font-size: 12px; font-weight: 200;" fill="rgb(50, 49, 63)" stroke="none" stroke-width="1px">55</text></g><line x1="0" y1="0" x2="280" y2="0" fill="rgb(0, 0, 0)" stroke="rgb(204, 204, 204)" stroke-width="1px"></line></g></g></g></g></svg>